<svg width="45" height="42" viewBox="0 0 45 42" fill="none" xmlns="http://www.w3.org/2000/svg">
<path d="M14.5 7.00119H24.5M14.5 11.0012H24.5M30 19.5012C30.5 20.5012 27 17.5012 26.5 17.5012C26 17.5012 19.3719 17.9238 14.5 17.0012C10.1906 14.1531 9.0893 12.2701 9 8.50119C10.1907 2.14245 13.1499 1.29799 20 1.00119C26.3301 1.34786 29.5 4.50119 30.5 6.00119C31.5 7.50119 31.1936 9.82675 31 11.0012C30.8064 12.1756 29.0113 14.8214 28.5 15.5012C27.9887 16.1809 29.5 18.5012 30 19.5012Z" stroke="#6F9444" stroke-width="2" stroke-linecap="round"/>
<path d="M1 40.5012C1.06991 35.4109 1.76578 33.5935 5 33.5012H13.5C17.1057 33.6386 18.1014 35.2301 18 40.5012" stroke="#0F3051" stroke-width="2" stroke-linecap="round"/>
<path d="M27 40.0012C27.0699 34.9109 27.7658 33.0935 31 33.0012H39.5C43.1057 33.1386 44.1014 34.7301 44 40.0012" stroke="#0F3051" stroke-width="2" stroke-linecap="round"/>
<circle cx="9" cy="26.0012" r="4.5" stroke="#0F3051"/>
<circle cx="36" cy="26.0012" r="4.5" stroke="#0F3051"/>
</svg>
