<svg width="50" height="51" viewBox="0 0 50 51" fill="none" xmlns="http://www.w3.org/2000/svg">
<path d="M9 45.1251C7.5 48.6251 2 48.6251 0.5 45.1251V36.1251C2.47295 31.6655 4.16897 29.9881 8 28.1251C10.7638 27.7388 12.1771 27.7536 14.5 28.1251C18.343 28.3298 19 27.6249 19.5 26.625C20 26.6249 19.0949 21.6388 20.5 18.6251C22.2659 14.8377 25.2427 13.0499 29 12.1251H34C37.1293 12.6444 38.4618 12.1327 40 9.62509V3.12509C41.5 -0.375049 47.5 -0.375013 48.5 3.12509C48.8815 6.49084 48.8773 8.46695 48.5 12.1251C46.5805 16.8075 44.6024 18.682 40 21.1251C36.3183 21.4218 33 18.6251 30 21.1251C28.9937 21.9636 28.7941 22.6902 28.5 24.1251C28.738 26.6796 28.7581 28.0123 28.5 30.1251C26.4061 33.9528 25.0534 35.6022 21.5 37.1251C17.731 38.7404 14.008 34.3383 11 37.1251C9.9671 38.082 9 40.1251 9 40.1251V45.1251Z" stroke="#0F3051" stroke-linecap="round"/>
<path d="M1 23.125C2.1659 22.6734 2.80352 22.1633 3.5 21.125C4.59314 19.4953 2.98764 17.8061 4 16.125C4.56983 15.1788 5.03974 14.6709 6 14.125C8.04408 12.963 9.86406 15.608 12 14.625C13.5051 13.9323 14.2653 13.11 15 11.625C15.7841 10.0402 14.666 8.68415 15.5 7.125C16.1512 5.90751 16.7651 5.24247 18 4.625C19.7465 3.75176 21.1278 5.17972 23 4.625C24.5094 4.17777 26.5 2.625 26.5 2.625M44.5 27.125C44.5 27.125 41.0785 29.0357 40 31.125C38.8322 33.3873 40.6431 35.3501 39.5 37.625C38.8153 38.9877 38.2535 39.7564 37 40.625C34.5872 42.2969 32.1209 39.8031 29.5 41.125C27.8926 41.9357 26.9191 42.5771 26 44.125C25.1779 45.5095 25.8645 46.7666 25 48.125C24.407 49.0569 23.4319 49.532 22.5 50.125M4.5 41.125C4.5 41.125 5.92321 34.0526 9.5 32.625C12.0454 31.609 13.8153 33.6759 16.5 33.125C20.4802 32.3083 22.8976 30.6019 25 27.125M24.5 22.125C26.2722 17.2462 28.2269 16.0294 33.5 16.625M38.5 16.625C43.6067 14.25 44.9141 11.7278 44.5 5.625" stroke="#6F9444" stroke-linecap="round"/>
</svg>
