<svg width="36" height="41" viewBox="0 0 36 41" fill="none" xmlns="http://www.w3.org/2000/svg">
<path d="M24.0706 1H11.0706C9.93411 1.5007 10.2918 2.34597 12.0706 4.5V16.5L1.07061 34.5C0.773515 37.2657 1.34935 38.9049 4.0706 40H32.0706C34.5664 38.5488 34.9713 37.329 34.0706 34.5L23.0706 16.5L23.5706 3.5C24.6707 2.35788 25.3126 1.78957 24.0706 1Z" stroke="#0F3051" stroke-width="2" stroke-linecap="round"/>
<circle cx="19.5706" cy="21.5" r="2" fill="#6F9444"/>
<circle cx="13.5706" cy="27.5" r="1" fill="#6F9444"/>
<path d="M22.5706 25.5C22.9655 25.5 23.2689 25.7038 23.3899 25.7891C23.5557 25.9059 23.7171 26.0532 23.8655 26.2021C24.1662 26.504 24.5096 26.912 24.8665 27.3691C25.5851 28.2896 26.4297 29.5018 27.2181 30.7002C28.0075 31.9001 28.7546 33.1067 29.2757 34.0205C29.5334 34.4725 29.7485 34.8755 29.886 35.1777C29.9492 35.3166 30.0234 35.4913 30.0638 35.6592C30.0783 35.7195 30.1251 35.9181 30.0823 36.1523C30.0585 36.2831 29.991 36.5105 29.7874 36.709C29.5634 36.9274 29.29 37 29.0706 37H6.0706C5.51832 37 5.0706 36.5523 5.0706 36C5.0706 35.4477 5.51832 35 6.0706 35H13.5882C13.5963 34.9898 13.6042 34.9793 13.6126 34.9688C13.8207 34.7077 14.119 34.3348 14.4798 33.8877C15.2011 32.9939 16.1749 31.8001 17.181 30.6055C18.1844 29.4139 19.2309 28.209 20.095 27.2969C20.5248 26.8432 20.9265 26.4436 21.2649 26.1514C21.4323 26.0068 21.6065 25.8689 21.7757 25.7617C21.8936 25.6871 22.196 25.5 22.5706 25.5ZM26.9417 33.3965C26.1733 32.953 25.3273 32.9809 25.0511 33.459C24.775 33.9373 25.1732 34.6852 25.9417 35.1289C26.71 35.5724 27.5579 35.5443 27.8343 35.0664C28.1104 34.5882 27.7101 33.8402 26.9417 33.3965ZM19.4417 33.2627C18.5548 33.2628 17.8359 33.7098 17.8353 34.2617C17.8353 34.8139 18.5544 35.2616 19.4417 35.2617C20.329 35.2617 21.0489 34.8148 21.0491 34.2627C21.0491 33.7104 20.3292 33.2627 19.4417 33.2627ZM23.6175 32.4785C23.1739 31.7105 22.4268 31.3115 21.9485 31.5869C21.4703 31.863 21.4425 32.71 21.886 33.4785C22.3298 34.247 23.0767 34.6462 23.555 34.3701C24.033 34.0938 24.0611 33.2469 23.6175 32.4785ZM22.4417 28.2627C21.5546 28.2628 20.8357 28.7097 20.8353 29.2617C20.8353 29.814 21.5543 30.2617 22.4417 30.2617C23.3291 30.2617 24.0481 29.814 24.0481 29.2617C24.0477 28.7097 23.3288 28.2628 22.4417 28.2627Z" fill="#6F9444"/>
</svg>
