<svg width="70" height="51" viewBox="0 0 70 51" fill="none" xmlns="http://www.w3.org/2000/svg">
<path d="M1.00012 1C1.73893 6.83861 3.90779 9.54991 10.5001 13.5C22.0375 22.3361 22.1092 27.0172 13.0001 35M10.0001 13L7.00012 15.5C1.7888 20.0366 0.0335972 25.7832 3.00012 31.5C5.11601 35.5776 21.0615 40.1398 19.0001 50" stroke="#0F3051" stroke-width="2" stroke-linecap="round"/>
<path d="M7.50012 39C2.65628 42.2892 1.20042 44.6656 1.00012 50M13.5001 11.5C17.2995 8.74953 18.7326 6.56227 19.5001 1M5.50012 3.5H14.5001M4.50012 26H14.5001M4.50012 47.5H15.5001" stroke="#6F9444" stroke-width="2" stroke-linecap="round"/>
<path d="M7.50012 43H13.0001M7.50012 30.5H13.0001M5.50012 21H14.0001M7.50012 7.5H13.0001M23.5001 36H69.0001M33.5001 21V31.5M44.0001 20V31.5M55.0001 20V31.5M65.0001 20V31.5" stroke="#0F3051" stroke-width="2" stroke-linecap="round"/>
<path d="M24.0001 15.5H69.0001M28.0001 20V31.5M38.5001 20V31.5M49.5001 24.5V31.5M59.5001 21V31.5" stroke="#6F9444" stroke-width="2" stroke-linecap="round"/>
</svg>
