<svg width="92" height="98" viewBox="0 0 92 98" fill="none" xmlns="http://www.w3.org/2000/svg">
<path d="M1.8 94.7V63.6C1.8 63.2 2.1 62.8 2.5 62.8H45.3C45.7 62.8 46 63.1 46 63.6V94.7C46 95.1 45.7 95.5 45.3 95.5H2.5C2.1 95.5 1.8 95.2 1.8 94.7ZM30.6 97.3H45.3C46.7 97.3 47.8 96.1 47.8 94.7V63.6C47.8 62.2 46.7 61 45.3 61H2.5C1.1 61 0 62.2 0 63.6V94.7C0 96.1 1.1 97.3 2.5 97.3H30.6Z" fill="#0F3051"/>
<path d="M27.9 93.7H43.2C43.7 93.7 44.1 93.3 44.1 92.8C44.1 92.3 43.7 91.9 43.2 91.9H5.50002V90H11.8C12.6 90 13.2 89.4 13.2 88.6L13.9 77.6L15.1 88.8C15.1 89.6 15.8 90.2 16.5 90.2C17.3 90.2 19.1 90.2 19.5 90.2C20.1 90.2 20.9 89.6 21.2 88.4C21.5 87 22.3 84.1 22.8 82.2C22.8 82.8 23 83.4 23.1 84C23.4 85.9 23.8 88.1 24 89.3C24.2 90 24.7 90.3 27.1 90.3H31.3C32 90.3 32.6 89.8 32.7 89L33.4 84.9L34.4 89.2C34.6 89.9 35.1 90.4 35.8 90.4H40.5C41 90.4 41.4 90 41.4 89.5C41.4 89 41 88.6 40.5 88.6H36.1V88C36 88 34.7 82.9 34.7 82.9C34.5 82.2 34 81.7 33.3 81.7C32.6 81.7 32 82.2 31.9 83L30.9 88.6H27.1C26.6 88.6 26 88.6 25.7 88.6C25.5 87.5 25.2 85.6 24.9 84C24.5 81.5 24.3 80.6 24.2 80.2C24 79.8 23.7 79 23 79C22.3 79 21.9 79.7 21.8 80C21.3 81.1 20.1 85.7 19.6 87.9C19.6 88.1 19.6 88.2 19.6 88.4C19.6 88.7 19.4 88.8 19.4 88.8C19.2 88.8 18.1 88.8 17 88.8L15.3 73.7C15.3 72.9 14.6 72.3 13.9 72.3C13.2 72.3 12.5 72.9 12.5 73.7L11.5 88.6H5.60002V67.4C5.60002 66.9 5.20002 66.5 4.70002 66.5C4.20002 66.5 3.80002 66.9 3.80002 67.4V94.1H28L27.9 93.7Z" fill="#6F9444"/>
<path d="M18.5 62V20.5311C18.5 20.1831 18.5908 19.841 18.7635 19.5389L24.5 9.5M24.5 9.5L29.7717 19.5641C29.9217 19.8504 30 20.1689 30 20.4921V57M24.5 9.5H69M24.5 9.5V3C24.5 1.89543 25.3954 1 26.5 1H67C68.1046 1 69 1.89543 69 3V9.5M24.5 9.5V38M30 62V57M30 57L36.5 47.5M50 49.7632L47.1035 50.9827C44.864 51.9257 42.2957 51.6398 40.3184 50.2274L36.5 47.5L36.2516 47.0652C35.1358 45.1126 34.8934 42.7805 35.5838 40.6401L39.5 28.5L43.1079 33.4608C43.3624 33.8108 43.7236 34.0688 44.1372 34.1961L49.2686 35.7749C49.7395 35.9199 50.2474 35.8858 50.6948 35.6793L56.5 33L53.717 45.3249C53.267 47.3175 51.8828 48.9704 50 49.7632ZM50 49.7632V56.5M50 56.5L47 62M50 56.5H53M61.5 56.5H53M66 56.5H82.5M47.5 74H89C90.1046 74 91 73.1046 91 72V67.054C91 66.6915 90.9015 66.3358 90.715 66.025L85.5826 57.471C85.2212 56.8686 84.5701 56.5 83.8676 56.5H82.5M53 56.5C53.3675 53.3475 54.1017 52.3042 56.5 52C57.5 46.5 63 47 64.5 50.5C66.5 47.5 69 47 71.5 49.7632C72.5669 48.4248 73.8235 47.8154 75 47.7432M82.5 56.5C82.641 53.6116 81.7852 52.5724 79 51.5C79 49.2447 77.1316 47.6123 75 47.7432M63 38H69M63 34H69M69 9.5L74.7365 19.5389C74.9092 19.841 75 20.1831 75 20.5311V47.7432M24.5 47V62M72 68.5C75.9348 68.0082 76.4828 63.1619 72.2162 62.0521C72.075 62.0154 71.9264 62 71.7805 62H63.3627C63.1228 62 62.8827 62.0398 62.664 62.1382C59.128 63.7274 60.0499 67.8543 62.8366 68.4684C62.9442 68.4921 63.0554 68.5 63.1655 68.5H72ZM41.5 16.5V24.5L45.0354 23.3215C45.6416 23.1195 46.3084 23.2248 46.839 23.5808C52.0724 27.0922 55.2874 27.0344 59.7198 23.1792C60.7936 22.2452 60.9596 20.6274 60.0632 19.522C56.7461 15.4315 53.4853 14.9691 46.8465 18.0916C46.3088 18.3445 45.6859 18.3604 45.1429 18.1191L41.5 16.5Z" stroke="#0F3051" stroke-width="2" stroke-linecap="round"/>
<ellipse cx="42.346" cy="39.7037" rx="1" ry="1.5" transform="rotate(14.607 42.346 39.7037)" fill="#0F3051"/>
<ellipse cx="48.346" cy="41.7037" rx="1" ry="1.5" transform="rotate(14.607 48.346 41.7037)" fill="#0F3051"/>
<ellipse cx="43.7441" cy="43.4345" rx="1" ry="1.5" transform="rotate(109.038 43.7441 43.4345)" fill="#0F3051"/>
<circle cx="56" cy="21" r="1" fill="#0F3051"/>
</svg>
