<svg width="50" height="50" viewBox="0 0 50 50" fill="none" xmlns="http://www.w3.org/2000/svg">
<circle cx="25" cy="25" r="24" stroke="#0F3051" stroke-width="2"/>
<circle cx="25.5" cy="25.5" r="21" stroke="#6F9444"/>
<ellipse cx="17.5" cy="14" rx="3.5" ry="4" fill="#6F9444"/>
<ellipse cx="15.5" cy="34" rx="3.5" ry="4" fill="#6F9444"/>
<ellipse cx="31.5" cy="33" rx="3.5" ry="4" fill="#6F9444"/>
<ellipse cx="36.5" cy="16" rx="3.5" ry="4" fill="#6F9444"/>
<ellipse cx="23.5" cy="25" rx="3.5" ry="4" fill="#6F9444"/>
<ellipse cx="11.5" cy="20.5" rx="1.5" ry="2.5" fill="#6F9444"/>
<ellipse cx="41.5" cy="28.5" rx="1.5" ry="2.5" fill="#6F9444"/>
<ellipse cx="38.5" cy="35.5" rx="1.5" ry="2.5" fill="#6F9444"/>
<ellipse cx="10.5327" cy="28.9143" rx="1.5" ry="2.5" transform="rotate(29.3443 10.5327 28.9143)" fill="#6F9444"/>
<ellipse cx="23.6244" cy="40.5" rx="0.951069" ry="1.32281" transform="rotate(58.6886 23.6244 40.5)" fill="#6F9444"/>
<ellipse cx="34.3547" cy="39.9959" rx="0.951069" ry="1.32281" transform="rotate(88.0329 34.3547 39.9959)" fill="#6F9444"/>
<ellipse cx="21.612" cy="30.4528" rx="0.951069" ry="1.32281" transform="rotate(117.377 21.612 30.4528)" fill="#6F9444"/>
<ellipse cx="29.612" cy="26.4528" rx="0.951069" ry="1.32281" transform="rotate(12.4847 29.612 26.4528)" fill="#6F9444"/>
<ellipse cx="18.3616" cy="28.0058" rx="0.951069" ry="1.32281" transform="rotate(-92.4078 18.3616 28.0058)" fill="#6F9444"/>
<ellipse cx="15.5209" cy="25.6278" rx="0.951069" ry="1.32281" transform="rotate(146.721 15.5209 25.6278)" fill="#6F9444"/>
<ellipse cx="17.0396" cy="22.385" rx="0.951069" ry="1.32281" transform="rotate(176.066 17.0396 22.385)" fill="#6F9444"/>
<ellipse cx="23.4267" cy="18.603" rx="0.951069" ry="1.32281" transform="rotate(-154.59 23.4267 18.603)" fill="#6F9444"/>
<ellipse cx="26.6292" cy="18.5401" rx="0.951069" ry="1.32281" transform="rotate(-125.246 26.6292 18.5401)" fill="#6F9444"/>
<ellipse cx="25.4136" cy="14.082" rx="0.951069" ry="1.32281" transform="rotate(-95.9014 25.4136 14.082)" fill="#6F9444"/>
<ellipse cx="25.592" cy="9.39881" rx="0.951069" ry="1.32281" transform="rotate(-66.5571 25.592 9.39881)" fill="#6F9444"/>
<ellipse cx="29.5574" cy="8.62868" rx="0.951069" ry="1.32281" transform="rotate(-37.2128 29.5574 8.62868)" fill="#6F9444"/>
<ellipse cx="33.1232" cy="10.4405" rx="0.951069" ry="1.32281" transform="rotate(-7.86856 33.1232 10.4405)" fill="#6F9444"/>
<ellipse cx="30.3693" cy="13.5792" rx="0.951069" ry="1.32281" transform="rotate(21.4757 30.3693 13.5792)" fill="#6F9444"/>
<ellipse cx="32.6262" cy="20.5729" rx="0.951069" ry="1.32281" transform="rotate(50.82 32.6262 20.5729)" fill="#6F9444"/>
<ellipse cx="30.4658" cy="16.1631" rx="0.951069" ry="1.32281" transform="rotate(80.1643 30.4658 16.1631)" fill="#6F9444"/>
<ellipse cx="29.5645" cy="22.3383" rx="0.951069" ry="1.32281" transform="rotate(109.509 29.5645 22.3383)" fill="#6F9444"/>
<ellipse cx="27.5866" cy="29.6219" rx="0.951069" ry="1.32281" transform="rotate(138.853 27.5866 29.6219)" fill="#6F9444"/>
<ellipse cx="37.2015" cy="23.4894" rx="0.951069" ry="1.32281" transform="rotate(168.197 37.2015 23.4894)" fill="#6F9444"/>
<ellipse cx="21.3055" cy="8.548" rx="0.951069" ry="1.32281" transform="rotate(-162.459 21.3055 8.548)" fill="#6F9444"/>
<ellipse cx="41.5252" cy="22.5" rx="1.50676" ry="2.04857" transform="rotate(-133.114 41.5252 22.5)" fill="#6F9444"/>
<ellipse cx="33.3483" cy="25.951" rx="1.50676" ry="2.04857" transform="rotate(-103.77 33.3483 25.951)" fill="#6F9444"/>
<ellipse cx="24.3779" cy="34.0014" rx="1.50676" ry="2.04857" transform="rotate(-74.4257 24.3779 34.0014)" fill="#6F9444"/>
<ellipse cx="29.5145" cy="40.5135" rx="1.50676" ry="2.04857" transform="rotate(-45.0814 29.5145 40.5135)" fill="#6F9444"/>
<ellipse cx="21.0059" cy="37.3805" rx="1.50676" ry="2.04857" transform="rotate(-15.7371 21.0059 37.3805)" fill="#6F9444"/>
</svg>
