<svg width="70" height="53" viewBox="0 0 70 53" fill="none" xmlns="http://www.w3.org/2000/svg">
<path d="M34.7275 8.68237C30.2324 12.3762 26.9709 15.9295 24.7275 20.0053M9.72748 18.1824L17.8948 27.1824M27.7275 27.3106C27.1634 27.3643 26.5387 27.6579 25.7275 28.1824C23.1676 35.2371 22.5357 40.9262 21.2275 50.6824C20.5144 42.5698 20.4413 36.1854 21.2275 30.8548M21.2275 30.8548L17.8948 27.1824M21.2275 30.8548C21.8393 26.7061 22.9715 23.1956 24.7275 20.0053M17.8948 27.1824C8.6238 27.6372 4.13638 26.1691 1.22748 11.1824C19.7534 12.2996 19.6961 17.3855 17.8948 27.1824ZM24.7275 20.0053C23.3238 10.1801 21.2985 4.30018 42.2275 1.18237C39.6787 22.2572 33.8842 20.0926 24.7275 20.0053ZM25.7275 28.1824C24.7549 31.2297 27.5675 36.8923 29.7275 38.6824C30.7741 34.422 30.7703 32.1392 29.7275 28.1824C29.0017 27.5309 28.4089 27.2456 27.7275 27.3106M25.7275 28.1824L27.7275 27.3106M27.7275 27.3106L28.2275 31.6824M35.2275 45.6824L40.7275 48.6824M37.7275 43.1824L41.2275 45.1824M41.2275 34.6824L45.7275 37.1824M41.2275 30.8548L48.7275 34.6824M43.7275 28.1824L48.7275 30.6824M49.2275 18.6824L53.2275 20.6824M49.2275 15.1824L55.7275 18.6824" stroke="#6F9444" stroke-width="2" stroke-linecap="round"/>
<path d="M46.7275 12.6824C45.4296 15.2172 45.7224 16.7958 46.7275 19.6824C47.7325 22.569 51.9964 22.2887 52.2275 29.6824C52.4585 37.076 49.9753 39.3528 41.7275 40.6824C36.4372 40.8784 34.0864 42.3197 30.7275 46.6824" stroke="#0F3051" stroke-width="2" stroke-linecap="round"/>
<path d="M59.7039 18.9848C58.5381 21.5831 56.8536 22.4376 54.2425 23.3635C51.6313 24.2894 48.7726 21.973 43 25.3277C37.2275 28.6824 37.7275 34.8397 41.4858 39.9005C44.6421 44.1506 44.7275 46.6824 44.7275 51.6824" stroke="#6F9444" stroke-width="2" stroke-linecap="round"/>
</svg>
