<svg width="74" height="66" viewBox="0 0 74 66" fill="none" xmlns="http://www.w3.org/2000/svg">
<rect x="15" y="1" width="45" height="16" rx="4" stroke="#0F3051" stroke-width="2"/>
<path d="M18.0568 14V5.27273H19.1136V9.15909H23.767V5.27273H24.8239V14H23.767V10.0966H19.1136V14H18.0568ZM27.2976 14H26.1896L29.3942 5.27273H30.4851L33.6896 14H32.5817L29.9737 6.65341H29.9055L27.2976 14ZM27.7067 10.5909H32.1726V11.5284H27.7067V10.5909ZM41.6616 8H40.6048C40.5423 7.69602 40.4329 7.42898 40.2766 7.19886C40.1232 6.96875 39.9357 6.77557 39.7141 6.61932C39.4954 6.46023 39.2525 6.34091 38.9854 6.26136C38.7184 6.18182 38.44 6.14205 38.1502 6.14205C37.6218 6.14205 37.1431 6.27557 36.7141 6.54261C36.288 6.80966 35.9485 7.20312 35.6957 7.72301C35.4457 8.2429 35.3207 8.88068 35.3207 9.63636C35.3207 10.392 35.4457 11.0298 35.6957 11.5497C35.9485 12.0696 36.288 12.4631 36.7141 12.7301C37.1431 12.9972 37.6218 13.1307 38.1502 13.1307C38.44 13.1307 38.7184 13.0909 38.9854 13.0114C39.2525 12.9318 39.4954 12.8139 39.7141 12.6577C39.9357 12.4986 40.1232 12.304 40.2766 12.0739C40.4329 11.8409 40.5423 11.5739 40.6048 11.2727H41.6616C41.582 11.7187 41.4371 12.1179 41.2269 12.4702C41.0167 12.8224 40.7553 13.1222 40.4428 13.3693C40.1303 13.6136 39.7795 13.7997 39.3903 13.9276C39.0039 14.0554 38.5906 14.1193 38.1502 14.1193C37.4059 14.1193 36.744 13.9375 36.1644 13.5739C35.5849 13.2102 35.1289 12.6932 34.7965 12.0227C34.4641 11.3523 34.2979 10.5568 34.2979 9.63636C34.2979 8.71591 34.4641 7.92045 34.7965 7.25C35.1289 6.57955 35.5849 6.0625 36.1644 5.69886C36.744 5.33523 37.4059 5.15341 38.1502 5.15341C38.5906 5.15341 39.0039 5.21733 39.3903 5.34517C39.7795 5.47301 40.1303 5.66051 40.4428 5.90767C40.7553 6.15199 41.0167 6.45028 41.2269 6.80256C41.4371 7.15199 41.582 7.55114 41.6616 8ZM50.392 8H49.3352C49.2727 7.69602 49.1634 7.42898 49.0071 7.19886C48.8537 6.96875 48.6662 6.77557 48.4446 6.61932C48.2259 6.46023 47.983 6.34091 47.7159 6.26136C47.4489 6.18182 47.1705 6.14205 46.8807 6.14205C46.3523 6.14205 45.8736 6.27557 45.4446 6.54261C45.0185 6.80966 44.679 7.20312 44.4261 7.72301C44.1761 8.2429 44.0511 8.88068 44.0511 9.63636C44.0511 10.392 44.1761 11.0298 44.4261 11.5497C44.679 12.0696 45.0185 12.4631 45.4446 12.7301C45.8736 12.9972 46.3523 13.1307 46.8807 13.1307C47.1705 13.1307 47.4489 13.0909 47.7159 13.0114C47.983 12.9318 48.2259 12.8139 48.4446 12.6577C48.6662 12.4986 48.8537 12.304 49.0071 12.0739C49.1634 11.8409 49.2727 11.5739 49.3352 11.2727H50.392C50.3125 11.7187 50.1676 12.1179 49.9574 12.4702C49.7472 12.8224 49.4858 13.1222 49.1733 13.3693C48.8608 13.6136 48.5099 13.7997 48.1207 13.9276C47.7344 14.0554 47.321 14.1193 46.8807 14.1193C46.1364 14.1193 45.4744 13.9375 44.8949 13.5739C44.3153 13.2102 43.8594 12.6932 43.527 12.0227C43.1946 11.3523 43.0284 10.5568 43.0284 9.63636C43.0284 8.71591 43.1946 7.92045 43.527 7.25C43.8594 6.57955 44.3153 6.0625 44.8949 5.69886C45.4744 5.33523 46.1364 5.15341 46.8807 5.15341C47.321 5.15341 47.7344 5.21733 48.1207 5.34517C48.5099 5.47301 48.8608 5.66051 49.1733 5.90767C49.4858 6.15199 49.7472 6.45028 49.9574 6.80256C50.1676 7.15199 50.3125 7.55114 50.392 8ZM52.0998 14V5.27273H55.0487C55.7333 5.27273 56.293 5.39631 56.7276 5.64347C57.1651 5.88778 57.489 6.21875 57.6992 6.63636C57.9094 7.05398 58.0146 7.51989 58.0146 8.03409C58.0146 8.5483 57.9094 9.01562 57.6992 9.43608C57.4918 9.85653 57.1708 10.1918 56.7362 10.4418C56.3015 10.6889 55.7447 10.8125 55.0657 10.8125H52.9521V9.875H55.0316C55.5004 9.875 55.8768 9.79403 56.1609 9.6321C56.445 9.47017 56.6509 9.25142 56.7788 8.97585C56.9094 8.69744 56.9748 8.38352 56.9748 8.03409C56.9748 7.68466 56.9094 7.37216 56.7788 7.09659C56.6509 6.82102 56.4435 6.60511 56.1566 6.44886C55.8697 6.28977 55.489 6.21023 55.0146 6.21023H53.1566V14H52.0998Z" fill="#0F3051"/>
<path d="M8 26L10.8868 21L5.11325 21L8 26ZM8 21L7.5 21L7.5 21.5L8 21.5L8.5 21.5L8.5 21L8 21Z" fill="#0F3051"/>
<path d="M38 50L40.8868 45L35.1132 45L38 50ZM38 45L37.5 45L37.5 45.5L38 45.5L38.5 45.5L38.5 45L38 45Z" fill="#0F3051"/>
<path d="M58 34L53 31.1132V36.8868L58 34ZM53 34V34.5H53.5V34V33.5H53V34Z" fill="#0F3051"/>
<path d="M58 58L53 55.1132V60.8868L58 58ZM53 58V58.5H53.5V58V57.5H53V58Z" fill="#0F3051"/>
<path d="M30 34L25 31.1132V36.8868L30 34ZM25 34V34.5H25.5V34V33.5H25V34Z" fill="#0F3051"/>
<path d="M38 46V41M38 27V17" stroke="#0F3051" stroke-width="2"/>
<path d="M8.00004 10.9991L9.00004 10.9991L8.00004 10.9991ZM14.9286 9.49761C15.4795 9.53703 15.958 9.12242 15.9974 8.57155C16.0369 8.02067 15.6223 7.54214 15.0714 7.50271L15 8.50016L14.9286 9.49761ZM8.00004 21.9991C9.00004 21.9991 9.00004 21.9991 9.00004 21.999C9.00004 21.999 9.00004 21.9989 9.00004 21.9988C9.00004 21.9985 9.00004 21.9982 9.00004 21.9977C9.00004 21.9967 9.00004 21.9953 9.00004 21.9933C9.00004 21.9895 9.00004 21.9837 9.00004 21.9761C9.00004 21.9609 9.00004 21.9382 9.00004 21.9086C9.00004 21.8492 9.00004 21.7618 9.00004 21.6495C9.00004 21.4249 9.00004 21.1007 9.00004 20.7023C9.00003 19.9054 9.00003 18.8117 9.00003 17.6242C9.00003 15.2492 9.00003 12.4992 9.00004 10.9991L8.00004 10.9991L7.00004 10.9991C7.00003 12.4992 7.00003 15.2492 7.00003 17.6242C7.00003 18.8117 7.00003 19.9054 7.00004 20.7023C7.00004 21.1007 7.00004 21.4249 7.00004 21.6495C7.00004 21.7618 7.00004 21.8492 7.00004 21.9086C7.00004 21.9382 7.00004 21.9609 7.00004 21.9761C7.00004 21.9837 7.00004 21.9895 7.00004 21.9933C7.00004 21.9953 7.00004 21.9967 7.00004 21.9977C7.00004 21.9982 7.00004 21.9985 7.00004 21.9988C7.00004 21.9989 7.00004 21.999 7.00004 21.999C7.00004 21.9991 7.00004 21.9991 8.00004 21.9991ZM8.00004 10.9991L9.00004 10.9991C9.00004 10.7292 9.12341 10.4778 9.58984 10.2114C10.0834 9.92936 10.8114 9.73306 11.6413 9.61462C12.4529 9.4988 13.2768 9.46866 13.9061 9.46875C14.2186 9.4688 14.4783 9.47628 14.6583 9.48365C14.7482 9.48733 14.818 9.49098 14.8642 9.49363C14.8873 9.49495 14.9045 9.49602 14.9154 9.49673C14.9208 9.49708 14.9247 9.49734 14.9269 9.49749C14.928 9.49757 14.9287 9.49761 14.929 9.49763C14.9292 9.49764 14.9292 9.49765 14.9291 9.49764C14.9291 9.49764 14.929 9.49763 14.9289 9.49763C14.9288 9.49762 14.9286 9.49761 15 8.50016C15.0714 7.50271 15.0712 7.50269 15.0709 7.50267C15.0708 7.50266 15.0705 7.50264 15.0702 7.50263C15.0697 7.50259 15.0691 7.50255 15.0684 7.5025C15.067 7.5024 15.0652 7.50227 15.0629 7.50212C15.0584 7.50181 15.0522 7.5014 15.0444 7.5009C15.0288 7.49989 15.0067 7.49851 14.9786 7.4969C14.9223 7.49367 14.8416 7.48948 14.7401 7.48533C14.5373 7.47702 14.2501 7.4688 13.9064 7.46875C13.2232 7.46865 12.2971 7.50076 11.3587 7.63468C10.4386 7.766 9.41663 8.00694 8.59775 8.47476C7.75168 8.9581 7.00005 9.76909 7.00004 10.9991L8.00004 10.9991Z" fill="#0F3051"/>
<circle cx="8" cy="34" r="7" stroke="#0F3051" stroke-width="2"/>
<circle cx="38" cy="34" r="7" stroke="#6F9444" stroke-width="2"/>
<circle cx="66" cy="34" r="7" stroke="#0F3051" stroke-width="2"/>
<circle cx="66" cy="58" r="7" stroke="#6F9444" stroke-width="2"/>
<circle cx="38" cy="58" r="7" stroke="#0F3051" stroke-width="2"/>
<path d="M15 34H26M45 34H54.5M45 58H54.5M31.5 58H11C9.34315 58 8 56.6569 8 55V41" stroke="#0F3051" stroke-width="2"/>
<path d="M61.7045 61V55.1818H63.7386C64.1439 55.1818 64.4782 55.2519 64.7415 55.392C65.0047 55.5303 65.2008 55.7169 65.3295 55.9517C65.4583 56.1847 65.5227 56.4432 65.5227 56.7273C65.5227 56.9773 65.4782 57.1837 65.3892 57.3466C65.3021 57.5095 65.1866 57.6383 65.0426 57.733C64.9006 57.8277 64.7462 57.8977 64.5795 57.9432V58C64.7576 58.0114 64.9366 58.0739 65.1165 58.1875C65.2964 58.3011 65.447 58.464 65.5682 58.6761C65.6894 58.8883 65.75 59.1477 65.75 59.4545C65.75 59.7462 65.6837 60.0085 65.5511 60.2415C65.4186 60.4744 65.2093 60.6591 64.9233 60.7955C64.6373 60.9318 64.2652 61 63.8068 61H61.7045ZM62.4091 60.375H63.8068C64.267 60.375 64.5938 60.286 64.7869 60.108C64.982 59.928 65.0795 59.7102 65.0795 59.4545C65.0795 59.2576 65.0294 59.0758 64.929 58.9091C64.8286 58.7405 64.6856 58.6061 64.5 58.5057C64.3144 58.4034 64.0947 58.3523 63.8409 58.3523H62.4091V60.375ZM62.4091 57.7386H63.7159C63.928 57.7386 64.1193 57.697 64.2898 57.6136C64.4621 57.5303 64.5985 57.4129 64.6989 57.2614C64.8011 57.1098 64.8523 56.9318 64.8523 56.7273C64.8523 56.4716 64.7633 56.2547 64.5852 56.0767C64.4072 55.8968 64.125 55.8068 63.7386 55.8068H62.4091V57.7386ZM71.5895 57H70.8849C70.8433 56.7973 70.7704 56.6193 70.6662 56.4659C70.5639 56.3125 70.4389 56.1837 70.2912 56.0795C70.1454 55.9735 69.9834 55.8939 69.8054 55.8409C69.6274 55.7879 69.4418 55.7614 69.2486 55.7614C68.8963 55.7614 68.5772 55.8504 68.2912 56.0284C68.0071 56.2064 67.7808 56.4688 67.6122 56.8153C67.4455 57.1619 67.3622 57.5871 67.3622 58.0909C67.3622 58.5947 67.4455 59.0199 67.6122 59.3665C67.7808 59.7131 68.0071 59.9754 68.2912 60.1534C68.5772 60.3314 68.8963 60.4205 69.2486 60.4205C69.4418 60.4205 69.6274 60.3939 69.8054 60.3409C69.9834 60.2879 70.1454 60.2093 70.2912 60.1051C70.4389 59.9991 70.5639 59.8693 70.6662 59.7159C70.7704 59.5606 70.8433 59.3826 70.8849 59.1818H71.5895C71.5365 59.4792 71.4399 59.7453 71.2997 59.9801C71.1596 60.215 70.9853 60.4148 70.777 60.5795C70.5687 60.7424 70.3348 60.8665 70.0753 60.9517C69.8177 61.0369 69.5421 61.0795 69.2486 61.0795C68.7524 61.0795 68.3111 60.9583 67.9247 60.7159C67.5384 60.4735 67.2344 60.1288 67.0128 59.6818C66.7912 59.2348 66.6804 58.7045 66.6804 58.0909C66.6804 57.4773 66.7912 56.947 67.0128 56.5C67.2344 56.053 67.5384 55.7083 67.9247 55.4659C68.3111 55.2235 68.7524 55.1023 69.2486 55.1023C69.5421 55.1023 69.8177 55.1449 70.0753 55.2301C70.3348 55.3153 70.5687 55.4403 70.777 55.6051C70.9853 55.768 71.1596 55.9669 71.2997 56.2017C71.4399 56.4347 71.5365 56.7008 71.5895 57Z" fill="#0F3051"/>
</svg>
