<svg width="97" height="48" viewBox="0 0 97 48" fill="none" xmlns="http://www.w3.org/2000/svg">
<path d="M35 7.01916C31.5161 8.83694 29.8639 12.1414 30.5 16.0192C30.5 16.0192 18.3429 17.5298 14 23.0192C9.3566 28.8884 6.32922 36.6088 11.5 42.0192C16.6425 47.4 24.6633 45.1378 30.5 40.5192C36.1655 36.0361 36.5 23.0192 36.5 23.0192C40.5332 23.7844 44.0371 22.1246 46 18.5192C47.8766 15.0721 47.6992 11.3683 45 8.51916C42.2841 5.65247 38.501 5.19243 35 7.01916Z" stroke="#0F3051" stroke-linecap="round"/>
<path d="M6.0214 5.38751C6.06408 7.04545 7.13378 8.27335 8.93483 8.73181C8.93483 8.73181 7.00723 13.6435 8.44548 16.2931C9.98326 19.126 12.659 21.677 16.0797 20.6824C19.4818 19.6932 20.2097 16.2239 19.4622 13.1618C18.7367 10.1895 13.2144 7.70823 13.2144 7.70823C14.398 6.30774 14.4275 4.6707 13.2943 3.26985C12.2109 1.93058 10.5818 1.32852 8.78544 1.84325C6.97801 2.36116 5.97851 3.7214 6.0214 5.38751Z" stroke="#0F3051" stroke-linecap="round"/>
<path d="M35 7.01916C31.5161 8.83694 29.8639 12.1414 30.5 16.0192C30.5 16.0192 18.3429 17.5298 14 23.0192C9.3566 28.8884 6.32922 36.6088 11.5 42.0192C16.6425 47.4 24.6633 45.1378 30.5 40.5192C36.1655 36.0361 36.5 23.0192 36.5 23.0192C40.5332 23.7844 44.0371 22.1246 46 18.5192C47.8766 15.0721 47.6992 11.3683 45 8.51916C42.2841 5.65247 38.501 5.19243 35 7.01916Z" stroke="#0F3051" stroke-linecap="round"/>
<path d="M6.0214 5.38751C6.06408 7.04545 7.13378 8.27335 8.93483 8.73181C8.93483 8.73181 7.00723 13.6435 8.44548 16.2931C9.98326 19.126 12.659 21.677 16.0797 20.6824C19.4818 19.6932 20.2097 16.2239 19.4622 13.1618C18.7367 10.1895 13.2144 7.70823 13.2144 7.70823C14.398 6.30774 14.4275 4.6707 13.2943 3.26985C12.2109 1.93058 10.5818 1.32852 8.78544 1.84325C6.97801 2.36116 5.97851 3.7214 6.0214 5.38751Z" stroke="#0F3051" stroke-linecap="round"/>
<circle cx="18" cy="36.5192" r="5" fill="#6F9444"/>
<ellipse cx="2.18233" cy="2.33092" rx="2.18233" ry="2.33092" transform="matrix(0.485607 -0.874177 0.921718 0.387862 11.8859 18.2117)" fill="#6F9444"/>
<circle cx="39" cy="14.5192" r="5" fill="#6F9444"/>
<ellipse cx="2.18233" cy="2.33092" rx="2.18233" ry="2.33092" transform="matrix(0.485607 -0.874177 0.921718 0.387862 6.88367 6.22119)" fill="#6F9444"/>
<ellipse cx="28" cy="26.5192" rx="5" ry="7" transform="rotate(-18.6811 28 26.5192)" fill="#6F9444"/>
<ellipse cx="2.12045" cy="3.34228" rx="2.12045" ry="3.34228" transform="matrix(0.148916 -0.98885 0.994703 0.102789 9.27637 13.3376)" fill="#6F9444"/>
<ellipse cx="26.4893" cy="37.0286" rx="1.55269" ry="3.17968" transform="rotate(-18.6811 26.4893 37.0286)" fill="#6F9444"/>
<ellipse cx="0.658481" cy="1.5182" rx="0.658481" ry="1.5182" transform="matrix(0.148916 -0.98885 0.994703 0.102789 15.5041 14.556)" fill="#6F9444"/>
<ellipse cx="17.4893" cy="25.0287" rx="1.55269" ry="3.17968" transform="rotate(51.3476 17.4893 25.0287)" fill="#6F9444"/>
<ellipse cx="0.742059" cy="1.34686" rx="0.742059" ry="1.34686" transform="matrix(0.979141 -0.203185 0.242831 0.970069 8.99487 14.1692)" fill="#6F9444"/>
<path d="M62.5 40.5193V35.0193L60.5 31.1622L55.5 21.5193C55.5 21.5193 54.1754 18.3472 55.5 17.5193C56.3279 17.0019 58 17.5193 58 17.5193L59.25 20.2693L60.5 23.0193L62.5 20.5193C62.5 20.5193 63.8627 20.5273 64.5 21.0193C65.1913 21.5529 65.5 23.0193 65.5 23.0193L63 27.0193L63.6945 29.5193L65.5 36.0193C65.8501 35.8951 66.1826 35.7689 66.5 35.6389C68.1512 34.9626 69.3958 34.1818 70.6029 33.0192C71.5343 32.1222 72.4435 30.998 73.5 29.5193C73.5 29.5193 70.4148 25.2102 69.5 22.0193C69.1227 20.7031 68.9632 19.0491 68.9093 17.5193C68.8245 15.1161 69 13.0193 69 13.0193L63.5 7.0193C63.5 7.0193 62.8949 4.45463 64 4.0193C64.7491 3.72422 66 4.5193 66 4.5193L70 9.5193L73 2.0193C73 2.0193 74.0483 0.301364 75 0.519219C76.025 0.753853 76 3.01922 76 3.01922L73.5 12.5193C73.5 12.5193 73.1013 14.0626 72.8591 16.0193C72.6395 17.7934 72.5485 19.9074 73 21.5193C73.6599 23.8752 76 27.0193 76 27.0193C79.0186 25.6112 80.5054 24.5891 82.5 22.0193C82.4466 21.6739 82.3971 21.3413 82.3516 21.0193C81.8573 17.5189 81.8396 15.274 82.5 11.5193C82.5 11.5193 83.3987 9.60402 84.5 9.5193C85.3707 9.45232 86.5 10.5193 86.5 10.5193C86.1321 12.0726 85.9209 13.3062 85.8881 14.5192C85.8507 15.8991 86.0441 17.2524 86.5 19.0193L93 13.0193C93 13.0193 94.875 12.7443 95.5 13.5193C96.1129 14.2793 95.5 16.0193 95.5 16.0193C94.2709 17.0895 93.1328 18.0796 92.0513 19.0193C91.4605 19.5327 90.8866 20.0311 90.324 20.5193C86.8608 23.5246 83.8248 26.1458 79.9057 29.5193C78.9908 30.3068 78.0278 31.1353 77 32.0193C77 32.0193 80.7982 34.2083 83.5 34.5193C83.8162 34.5557 84.1525 34.5704 84.5 34.568C87.168 34.5493 90.5 33.5193 90.5 33.5193C90.5 33.5193 93.2559 33.7324 93.5 35.0193C93.733 36.2477 91.5 37.5193 91.5 37.5193C91.5 37.5193 87.5977 38.7189 84.5 38.9727C84.1545 39.001 83.819 39.0175 83.5 39.0193C81.5018 39.0305 79.0384 38.4692 77 37.8758C74.7385 37.2174 73 36.5193 73 36.5193L66.5 41.6651L63.75 43.8422L61 46.0193L57.5 46.5193C57.5 46.5193 55.625 46.7943 55 46.0193C54.3871 45.2593 55 43.5193 55 43.5193L58.75 42.0193L62.5 40.5193Z" fill="#6F9444"/>
<path d="M70.6029 33.0192C69.3958 34.1818 68.1512 34.9626 66.5 35.6389C66.1826 35.7689 65.8501 35.8951 65.5 36.0193M65.5 36.0193L63.6945 29.5193M65.5 36.0193L63 38.0192M73.5 12.5193L70 9.5193L66 4.5193C66 4.5193 64.7491 3.72422 64 4.0193C62.8949 4.45463 63.5 7.0193 63.5 7.0193L69 13.0193C69 13.0193 68.8245 15.1161 68.9093 17.5193C68.9632 19.0491 69.1227 20.7031 69.5 22.0193C70.4148 25.2102 73.5 29.5193 73.5 29.5193M73.5 29.5193C72.4435 30.998 71.5343 32.1222 70.6029 33.0192M73.5 29.5193H79.9057M69.5 22.0193L73 21.5193M70 9.5193L73 2.0193C73 2.0193 74.0483 0.301364 75 0.519219C76.025 0.753853 76 3.01922 76 3.01922L73.5 12.5193M73.5 12.5193C73.5 12.5193 73.1013 14.0626 72.8591 16.0193M72.8591 16.0193C72.6395 17.7934 72.5485 19.9074 73 21.5193C73.6599 23.8752 76 27.0193 76 27.0193C79.0186 25.6112 80.5054 24.5891 82.5 22.0193C82.4466 21.6739 82.3971 21.3413 82.3516 21.0193M82.3516 21.0193C81.8573 17.5189 81.8396 15.274 82.5 11.5193C82.5 11.5193 83.3987 9.60402 84.5 9.5193C85.3707 9.45233 86.5 10.5193 86.5 10.5193C86.1321 12.0726 85.9209 13.3062 85.8881 14.5192C85.8507 15.8991 86.0441 17.2524 86.5 19.0193L90.324 20.5193M82.5 11.5193L85.8881 14.5192M90.324 20.5193C90.8866 20.0311 91.4605 19.5327 92.0513 19.0193C93.1328 18.0796 94.2709 17.0895 95.5 16.0193C95.5 16.0193 96.1129 14.2793 95.5 13.5193C94.875 12.7443 93 13.0193 93 13.0193L86.5 19.0193M93 13.0193L92.0513 19.0193M77 32.0193C77 32.0193 80.7982 34.2083 83.5 34.5193C83.8162 34.5557 84.1525 34.5704 84.5 34.568M77 37.8758V32.0193C78.0278 31.1353 78.9908 30.3068 79.9057 29.5193M63.75 43.8422L66.5 41.6651L73 36.5193M73 36.5193L70.6029 33.0192M84.5 38.9727C84.1545 39.001 83.819 39.0175 83.5 39.0193C81.5018 39.0305 79.0384 38.4692 77 37.8758C74.7385 37.2174 73 36.5193 73 36.5193M66.5 35.6389V41.6651M84.5 34.568C87.168 34.5493 90.5 33.5193 90.5 33.5193C90.5 33.5193 93.2559 33.7324 93.5 35.0193C93.733 36.2477 91.5 37.5193 91.5 37.5193C91.5 37.5193 87.5977 38.7189 84.5 38.9727M84.5 34.568V38.9727M82.3516 21.0193L86.5 23.0193M58.75 42.0193L62.5 40.5193V35.0193L60.5 31.1622L55.5 21.5193C55.5 21.5193 54.1754 18.3472 55.5 17.5193C56.3279 17.0019 58 17.5193 58 17.5193L59.25 20.2693M59.25 20.2693L60.5 23.0193L62.5 20.5193C62.5 20.5193 63.8627 20.5273 64.5 21.0193C65.1913 21.5529 65.5 23.0193 65.5 23.0193L63 27.0193L63.6945 29.5193M59.25 20.2693L57.5 24.0192M60.5 31.1622L63.6945 29.5193M58.75 42.0193L55 43.5193C55 43.5193 54.3871 45.2593 55 46.0193C55.625 46.7943 57.5 46.5193 57.5 46.5193L61 46.0193L63.75 43.8422M58.75 42.0193H59.25L63.75 43.8422M79.9057 29.5193C83.8248 26.1458 86.8608 23.5246 90.324 20.5193M68.9093 17.5193L72.8591 16.0193" stroke="#0F3051" stroke-linecap="round"/>
</svg>
