<svg width="93" height="65" viewBox="0 0 93 65" fill="none" xmlns="http://www.w3.org/2000/svg">
<path d="M25.306 23C18.852 21.0381 18.0226 27.9667 19.0002 33.5L30.5002 28.5L33.5002 30.5L31.0002 34L25.0002 37.5L27.0002 38H34.0002H45.0002L47.5002 39L48.5002 42V43.5L51.0002 45C56.4493 41.0779 58.0733 36.6336 50.0002 32.5C47.8882 29.8919 46.2916 28.9448 42.5002 28.5C39.7252 21.8468 37.1688 19.983 30.0002 21.5V18.5C27.7439 19.7596 26.9267 20.2939 25.306 23Z" fill="#6F9444" stroke="#0F3051" stroke-linecap="round"/>
<path d="M1.00024 40C1.00024 40 7.00024 41 9.00024 40C11.0002 39 16.8648 33.6456 22.5002 32.5L30.5002 29C32.9083 29.2233 33.3837 30.0403 33.0002 32.5C33.0002 32.5 27.4275 35.7152 24.0002 38C22.5002 39 45.5002 38 45.5002 38C47.9609 39.0022 49.0931 40.3457 48.0002 43.5M48.0002 43.5H31.0002M48.0002 43.5C48.0002 43.5 51.0245 45.0475 51.0002 47C50.9813 48.5249 49.5002 49.5 49.5002 49.5H48.0002M31.0002 49.5H48.0002M48.0002 49.5C50.0756 52.1641 49.5123 53.5482 47.0002 55H43.5002M30.5002 55H43.5002M43.5002 55C45.4489 58.2128 43.99 59.9528 42.0002 60.5H17.5002C14.0909 60.1626 13.0002 58 9.00024 57C5.00024 56 1.00024 57 1.00024 57" stroke="#0F3051" stroke-width="2" stroke-linecap="round"/>
<rect x="3.70735" y="17.9497" width="6" height="6" rx="0.5" transform="rotate(-45 3.70735 17.9497)" stroke="#0F3051"/>
<rect x="16.2788" y="7.46045" width="4.5" height="4.5" rx="0.5" transform="rotate(-45 16.2788 7.46045)" stroke="#6F9444"/>
<path d="M8.00025 14V11M12.0003 18H15.0003M8.00025 22V25M4.00025 18H1.00024" stroke="#0F3051" stroke-linecap="round"/>
<path d="M19.5002 4.35714V2M22.6431 7.5H25.0002M19.5002 10.6429V13M16.3574 7.5H14.0002" stroke="#6F9444" stroke-linecap="round"/>
<path d="M35.0002 17.5V2C35.0002 1.44772 35.448 1 36.0002 1H90.5002C91.0525 1 91.5002 1.44772 91.5002 2V48.5C91.5002 49.0523 91.0525 49.5 90.5002 49.5H85.5002" stroke="#0F3051" stroke-width="2" stroke-linecap="round"/>
<path d="M87.5002 35V9C84.5755 8.79436 83.6582 7.85021 83.5002 4.5H43.0002C42.9332 7.6885 41.9849 8.60435 39.0002 9V19" stroke="#0F3051" stroke-width="2" stroke-linecap="round"/>
<path d="M56.0002 11H71.0002M46.5002 17.5H79.5002M46.5002 22H79.5002M50.5002 26.5H70.0002" stroke="#6F9444" stroke-width="2" stroke-linecap="round"/>
<path d="M57.0002 45.5H63.5002M54.5002 49.5H67.0002" stroke="#0F3051" stroke-width="2" stroke-linecap="round"/>
<circle cx="76.0002" cy="41" r="6.5" stroke="#6F9444"/>
<circle cx="76.0002" cy="41" r="9" stroke="#6F9444" stroke-width="2"/>
<path d="M70.5002 48.5L66.5002 58.5C69.6141 57.3861 70.7795 58.0132 72.0002 61C72.0002 61 74.5002 50.5 77.0002 50.5C79.5002 50.5 80.5002 61 80.5002 61C82.2318 57.5629 83.5193 56.9175 86.5002 58.5L82.5002 47.5" stroke="#6F9444" stroke-width="2" stroke-linecap="round"/>
<path d="M73.5002 41.5L75.5002 43.5L79.5002 39.5" stroke="#6F9444" stroke-width="2" stroke-linecap="round"/>
</svg>
