<svg width="347" height="103" viewBox="0 0 347 103" fill="none" xmlns="http://www.w3.org/2000/svg">
<path d="M60 19.9998C59.4878 21.7031 57.9974 21.2501 51 19.5C49.4362 18.0404 49.0176 23.7834 51.5 33C55.1753 39.2816 60.0201 41.1761 65 49.9998C66.5433 54.5677 66.2821 59.3031 65.5 62C64.7179 64.6968 63.7371 66.2264 61 68.9998" stroke="#6F9444" stroke-width="3" stroke-linecap="round"/>
<path d="M41 37.5H49" stroke="#6F9444" stroke-width="3" stroke-linecap="round"/>
<path d="M42 45.5H54M45 52.5H56M49.5 59.5H56" stroke="#6F9444" stroke-width="3" stroke-linecap="round"/>
<path d="M41.5 20H29C28.3333 20.1997 28.3179 20.4115 29 21L30.5 23V39L18 61C17.0757 65.5055 17.8597 67.1412 21.5 68.5H44" stroke="#0F3051" stroke-width="3" stroke-linecap="round"/>
<circle cx="44" cy="30.5" r="2.5" fill="#0F3051"/>
<circle cx="41" cy="37.5" r="2.5" fill="#0F3051"/>
<circle cx="42" cy="45.5" r="2.5" fill="#0F3051"/>
<circle cx="45" cy="52.5" r="2.5" fill="#0F3051"/>
<circle cx="49" cy="59.5" r="2.5" fill="#0F3051"/>
<path d="M42.5 89.5C23 89.5 1.5 70.5 1.5 46C1.5 21.5 19.5 1.5 46 1.5" stroke="#0F3051" stroke-width="3"/>
<path d="M52.5 2C72.866 4.58449 91.4849 23.6168 88 49C84.5151 74.3831 66.4227 89.9735 42.5 89.5001" stroke="#6F9444" stroke-width="3" stroke-linecap="round"/>
<circle cx="53" cy="67.5" r="2.5" fill="#0F3051"/>
<path d="M110.307 27.6364V64H105.903V27.6364H110.307ZM125.758 47.5938V64H121.568V36.7273H125.616V40.9886H125.971C126.61 39.6037 127.581 38.491 128.883 37.6506C130.185 36.7983 131.866 36.3722 133.926 36.3722C135.772 36.3722 137.388 36.7509 138.773 37.5085C140.158 38.2543 141.235 39.3906 142.004 40.9176C142.774 42.4328 143.159 44.3504 143.159 46.6705V64H138.968V46.9545C138.968 44.812 138.412 43.143 137.299 41.9474C136.186 40.7401 134.66 40.1364 132.718 40.1364C131.381 40.1364 130.185 40.4264 129.132 41.0064C128.09 41.5864 127.267 42.4328 126.664 43.5455C126.06 44.6581 125.758 46.0076 125.758 47.5938ZM165.676 36.7273V40.2784H151.543V36.7273H165.676ZM155.662 30.1932H159.853V56.1875C159.853 57.3712 160.024 58.259 160.368 58.8509C160.723 59.4309 161.172 59.8215 161.717 60.0227C162.273 60.2121 162.859 60.3068 163.475 60.3068C163.936 60.3068 164.315 60.2831 164.611 60.2358C164.907 60.1766 165.144 60.1293 165.321 60.0938L166.174 63.858C165.89 63.9645 165.493 64.071 164.984 64.1776C164.475 64.2959 163.83 64.3551 163.049 64.3551C161.865 64.3551 160.705 64.1006 159.569 63.5916C158.444 63.0826 157.509 62.3073 156.763 61.2656C156.029 60.224 155.662 58.91 155.662 57.3239V30.1932ZM185.766 64.5682C183.304 64.5682 181.144 63.9822 179.286 62.8104C177.439 61.6385 175.995 59.9991 174.953 57.892C173.923 55.785 173.408 53.3229 173.408 50.5057C173.408 47.6648 173.923 45.1849 174.953 43.0661C175.995 40.9472 177.439 39.3018 179.286 38.13C181.144 36.9581 183.304 36.3722 185.766 36.3722C188.228 36.3722 190.383 36.9581 192.229 38.13C194.088 39.3018 195.532 40.9472 196.562 43.0661C197.603 45.1849 198.124 47.6648 198.124 50.5057C198.124 53.3229 197.603 55.785 196.562 57.892C195.532 59.9991 194.088 61.6385 192.229 62.8104C190.383 63.9822 188.228 64.5682 185.766 64.5682ZM185.766 60.804C187.637 60.804 189.175 60.3246 190.383 59.3658C191.59 58.407 192.484 57.1463 193.064 55.5838C193.644 54.0213 193.934 52.3286 193.934 50.5057C193.934 48.6828 193.644 46.9841 193.064 45.4098C192.484 43.8355 191.59 42.563 190.383 41.5923C189.175 40.6217 187.637 40.1364 185.766 40.1364C183.896 40.1364 182.357 40.6217 181.15 41.5923C179.942 42.563 179.049 43.8355 178.469 45.4098C177.889 46.9841 177.599 48.6828 177.599 50.5057C177.599 52.3286 177.889 54.0213 178.469 55.5838C179.049 57.1463 179.942 58.407 181.15 59.3658C182.357 60.3246 183.896 60.804 185.766 60.804ZM236.96 84V75.2727H238.016V83.0625H242.073V84H236.96ZM245.578 84H244.47L247.675 75.2727H248.766L251.97 84H250.862L248.254 76.6534H248.186L245.578 84ZM245.987 80.5909H250.453V81.5284H245.987V80.5909ZM254.29 84V75.2727H257.341C257.949 75.2727 258.45 75.3778 258.845 75.5881C259.24 75.7955 259.534 76.0753 259.727 76.4276C259.92 76.777 260.017 77.1648 260.017 77.5909C260.017 77.9659 259.95 78.2756 259.817 78.5199C259.686 78.7642 259.513 78.9574 259.297 79.0994C259.084 79.2415 258.852 79.3466 258.602 79.4148V79.5C258.869 79.517 259.138 79.6108 259.408 79.7812C259.678 79.9517 259.903 80.196 260.085 80.5142C260.267 80.8324 260.358 81.2216 260.358 81.6818C260.358 82.1193 260.259 82.5128 260.06 82.8622C259.861 83.2116 259.547 83.4886 259.118 83.6932C258.689 83.8977 258.131 84 257.443 84H254.29ZM255.347 83.0625H257.443C258.134 83.0625 258.624 82.929 258.913 82.6619C259.206 82.392 259.352 82.0653 259.352 81.6818C259.352 81.3864 259.277 81.1136 259.126 80.8636C258.976 80.6108 258.761 80.4091 258.483 80.2585C258.205 80.1051 257.875 80.0284 257.494 80.0284H255.347V83.0625ZM255.347 79.108H257.307C257.625 79.108 257.912 79.0455 258.168 78.9205C258.426 78.7955 258.631 78.6193 258.781 78.392C258.935 78.1648 259.011 77.8977 259.011 77.5909C259.011 77.2074 258.878 76.8821 258.611 76.6151C258.344 76.3452 257.92 76.2102 257.341 76.2102H255.347V79.108ZM270.418 79.6364C270.418 80.5568 270.252 81.3523 269.92 82.0227C269.587 82.6932 269.131 83.2102 268.552 83.5739C267.972 83.9375 267.31 84.1193 266.566 84.1193C265.822 84.1193 265.16 83.9375 264.58 83.5739C264 83.2102 263.545 82.6932 263.212 82.0227C262.88 81.3523 262.714 80.5568 262.714 79.6364C262.714 78.7159 262.88 77.9205 263.212 77.25C263.545 76.5795 264 76.0625 264.58 75.6989C265.16 75.3352 265.822 75.1534 266.566 75.1534C267.31 75.1534 267.972 75.3352 268.552 75.6989C269.131 76.0625 269.587 76.5795 269.92 77.25C270.252 77.9205 270.418 78.7159 270.418 79.6364ZM269.395 79.6364C269.395 78.8807 269.269 78.2429 269.016 77.723C268.766 77.2031 268.427 76.8097 267.998 76.5426C267.572 76.2756 267.094 76.142 266.566 76.142C266.037 76.142 265.559 76.2756 265.13 76.5426C264.704 76.8097 264.364 77.2031 264.111 77.723C263.861 78.2429 263.736 78.8807 263.736 79.6364C263.736 80.392 263.861 81.0298 264.111 81.5497C264.364 82.0696 264.704 82.4631 265.13 82.7301C265.559 82.9972 266.037 83.1307 266.566 83.1307C267.094 83.1307 267.572 82.9972 267.998 82.7301C268.427 82.4631 268.766 82.0696 269.016 81.5497C269.269 81.0298 269.395 80.392 269.395 79.6364ZM273.155 84V75.2727H276.104C276.786 75.2727 277.345 75.3892 277.783 75.6222C278.22 75.8523 278.544 76.169 278.755 76.5724C278.965 76.9759 279.07 77.4347 279.07 77.9489C279.07 78.4631 278.965 78.919 278.755 79.3168C278.544 79.7145 278.222 80.027 277.787 80.2543C277.353 80.4787 276.797 80.5909 276.121 80.5909H273.735V79.6364H276.087C276.553 79.6364 276.928 79.5682 277.212 79.4318C277.499 79.2955 277.706 79.1023 277.834 78.8523C277.965 78.5994 278.03 78.2983 278.03 77.9489C278.03 77.5994 277.965 77.294 277.834 77.0327C277.703 76.7713 277.495 76.5696 277.208 76.4276C276.921 76.2827 276.541 76.2102 276.07 76.2102H274.212V84H273.155ZM277.263 80.0795L279.411 84H278.184L276.07 80.0795H277.263Z" fill="#0F3051"/>
<path d="M262.1 36.7273C261.887 34.928 261.023 33.5312 259.508 32.5369C257.993 31.5426 256.134 31.0455 253.933 31.0455C252.323 31.0455 250.914 31.3059 249.707 31.8267C248.511 32.3475 247.576 33.0637 246.901 33.9751C246.239 34.8866 245.907 35.9223 245.907 37.0824C245.907 38.053 246.138 38.8875 246.6 39.5859C247.073 40.2725 247.677 40.8466 248.411 41.3082C249.145 41.758 249.914 42.1309 250.719 42.4268C251.524 42.7109 252.264 42.9418 252.938 43.1193L256.632 44.1136C257.579 44.3622 258.632 44.7055 259.792 45.1435C260.964 45.5814 262.083 46.1792 263.148 46.9368C264.225 47.6825 265.113 48.6413 265.811 49.8132C266.51 50.9851 266.859 52.4233 266.859 54.1278C266.859 56.0928 266.344 57.8684 265.314 59.4545C264.296 61.0407 262.805 62.3014 260.84 63.2365C258.887 64.1716 256.513 64.6392 253.72 64.6392C251.115 64.6392 248.86 64.219 246.955 63.3786C245.061 62.5381 243.569 61.3662 242.48 59.8629C241.403 58.3596 240.794 56.6136 240.651 54.625H245.197C245.315 55.9981 245.777 57.1345 246.582 58.0341C247.399 58.9219 248.428 59.5848 249.671 60.0227C250.926 60.4489 252.276 60.6619 253.72 60.6619C255.401 60.6619 256.91 60.3897 258.247 59.8452C259.585 59.2888 260.644 58.5194 261.426 57.5369C262.207 56.5426 262.597 55.3826 262.597 54.0568C262.597 52.8494 262.26 51.867 261.585 51.1094C260.911 50.3518 260.023 49.7363 258.922 49.2628C257.821 48.7893 256.632 48.375 255.353 48.0199L250.879 46.7415C248.038 45.9247 245.789 44.7588 244.132 43.2436C242.474 41.7285 241.646 39.7457 241.646 37.2955C241.646 35.2595 242.196 33.4839 243.297 31.9688C244.41 30.4418 245.901 29.258 247.771 28.4176C249.654 27.5653 251.755 27.1392 254.075 27.1392C256.419 27.1392 258.502 27.5594 260.325 28.3999C262.148 29.2285 263.592 30.3648 264.657 31.8089C265.734 33.2531 266.302 34.8925 266.362 36.7273H262.1ZM131.222 84V75.2727H132.279V83.0625H136.335V84H131.222ZM138.932 84V75.2727H144.199V76.2102H139.989V79.1591H143.926V80.0966H139.989V83.0625H144.267V84H138.932ZM147.064 84V75.2727H150.115C150.723 75.2727 151.224 75.3778 151.619 75.5881C152.014 75.7955 152.308 76.0753 152.501 76.4276C152.694 76.777 152.791 77.1648 152.791 77.5909C152.791 77.9659 152.724 78.2756 152.591 78.5199C152.46 78.7642 152.287 78.9574 152.071 79.0994C151.858 79.2415 151.626 79.3466 151.376 79.4148V79.5C151.643 79.517 151.912 79.6108 152.182 79.7812C152.451 79.9517 152.677 80.196 152.859 80.5142C153.041 80.8324 153.132 81.2216 153.132 81.6818C153.132 82.1193 153.032 82.5128 152.834 82.8622C152.635 83.2116 152.321 83.4886 151.892 83.6932C151.463 83.8977 150.905 84 150.217 84H147.064ZM148.121 83.0625H150.217C150.907 83.0625 151.397 82.929 151.687 82.6619C151.98 82.392 152.126 82.0653 152.126 81.6818C152.126 81.3864 152.051 81.1136 151.9 80.8636C151.75 80.6108 151.535 80.4091 151.257 80.2585C150.978 80.1051 150.649 80.0284 150.268 80.0284H148.121V83.0625ZM148.121 79.108H150.081C150.399 79.108 150.686 79.0455 150.942 78.9205C151.2 78.7955 151.405 78.6193 151.555 78.392C151.709 78.1648 151.785 77.8977 151.785 77.5909C151.785 77.2074 151.652 76.8821 151.385 76.6151C151.118 76.3452 150.694 76.2102 150.115 76.2102H148.121V79.108ZM155.828 84V75.2727H161.095V76.2102H156.885V79.1591H160.823V80.0966H156.885V83.0625H161.164V84H155.828ZM170.881 75.2727V84H169.858L165.102 77.1477H165.017V84H163.96V75.2727H164.983L169.756 82.142H169.841V75.2727H170.881ZM178.728 77.4545C178.677 77.0227 178.47 76.6875 178.106 76.4489C177.742 76.2102 177.296 76.0909 176.768 76.0909C176.382 76.0909 176.043 76.1534 175.754 76.2784C175.467 76.4034 175.242 76.5753 175.08 76.794C174.921 77.0128 174.842 77.2614 174.842 77.5398C174.842 77.7727 174.897 77.973 175.008 78.1406C175.122 78.3054 175.266 78.4432 175.443 78.554C175.619 78.6619 175.803 78.7514 175.997 78.8224C176.19 78.8906 176.367 78.946 176.529 78.9886L177.416 79.2273C177.643 79.2869 177.896 79.3693 178.174 79.4744C178.455 79.5795 178.724 79.723 178.98 79.9048C179.238 80.0838 179.451 80.3139 179.619 80.5952C179.786 80.8764 179.87 81.2216 179.87 81.6307C179.87 82.1023 179.747 82.5284 179.499 82.9091C179.255 83.2898 178.897 83.5923 178.426 83.8168C177.957 84.0412 177.387 84.1534 176.717 84.1534C176.092 84.1534 175.551 84.0526 175.093 83.8509C174.639 83.6491 174.281 83.3679 174.019 83.0071C173.761 82.6463 173.614 82.2273 173.58 81.75H174.671C174.7 82.0795 174.811 82.3523 175.004 82.5682C175.2 82.7812 175.447 82.9403 175.745 83.0455C176.046 83.1477 176.37 83.1989 176.717 83.1989C177.12 83.1989 177.482 83.1335 177.803 83.0028C178.124 82.8693 178.379 82.6847 178.566 82.4489C178.754 82.2102 178.847 81.9318 178.847 81.6136C178.847 81.3239 178.766 81.0881 178.605 80.9062C178.443 80.7244 178.23 80.5767 177.965 80.4631C177.701 80.3494 177.416 80.25 177.109 80.1648L176.035 79.858C175.353 79.6619 174.813 79.3821 174.416 79.0185C174.018 78.6548 173.819 78.179 173.819 77.5909C173.819 77.1023 173.951 76.6761 174.215 76.3125C174.482 75.946 174.84 75.6619 175.289 75.4602C175.741 75.2557 176.245 75.1534 176.802 75.1534C177.364 75.1534 177.864 75.2543 178.302 75.456C178.739 75.6548 179.086 75.9276 179.342 76.2741C179.6 76.6207 179.737 77.0142 179.751 77.4545H178.728ZM182.568 75.2727H183.829L186.795 82.517H186.897L189.863 75.2727H191.125V84H190.136V77.3693H190.051L187.323 84H186.369L183.642 77.3693H183.556V84H182.568V75.2727ZM195.26 75.2727V84H194.204V75.2727H195.26ZM197.862 76.2102V75.2727H204.408V76.2102H201.663V84H200.606V76.2102H197.862ZM206.521 76.2102V75.2727H213.067V76.2102H210.322V84H209.266V76.2102H206.521ZM215.658 84V75.2727H220.925V76.2102H216.715V79.1591H220.652V80.0966H216.715V83.0625H220.993V84H215.658ZM223.79 84V75.2727H224.846V83.0625H228.903V84H223.79ZM234.094 79.1676V80.1051H230.276V79.1676H234.094Z" fill="#6F9444"/>
<path d="M106.5 79.5H121.5" stroke="#6F9444" stroke-width="3" stroke-linecap="round"/>
<path d="M290.5 79.5H305.5" stroke="#0F3051" stroke-width="3" stroke-linecap="round"/>
<path d="M227.5 57C227.5 57 221.5 51 222.5 50C223.5 49 228.5 56 228.5 56L231 56.5L239.5 66L236 69L227.5 59V57Z" fill="#6F9444"/>
<path d="M217.5 30.5C225.814 30.5 232.5 37.0216 232.5 45C232.5 52.9784 225.814 59.5 217.5 59.5C209.186 59.5 202.5 52.9784 202.5 45C202.5 37.0216 209.186 30.5 217.5 30.5Z" stroke="#6F9444" stroke-width="2"/>
<path d="M238.5 70.5C237.161 70.8349 236 69 236 69L239.5 66C239.5 66 240.791 67.2841 240.5 68.5C240.307 69.3057 239.5 70 239.5 70C239.5 70 239.304 70.2991 238.5 70.5Z" fill="#0F3051"/>
<path d="M211 35.5001C216 32 222.5 33 225 36.5001" stroke="#0F3051" stroke-linecap="round"/>
</svg>
