<svg width="347" height="103" viewBox="0 0 347 103" fill="none" xmlns="http://www.w3.org/2000/svg">
<path d="M60 19.9998C59.4878 21.7031 57.9974 21.2501 51 19.5C49.4362 18.0404 49.0176 23.7834 51.5 33C55.1753 39.2816 60.0201 41.1761 65 49.9998C66.5433 54.5677 66.2821 59.3031 65.5 62C64.7179 64.6968 63.7371 66.2264 61 68.9998" stroke="#6F9444" stroke-width="3" stroke-linecap="round"/>
<path d="M41 37.5H49" stroke="#6F9444" stroke-width="3" stroke-linecap="round"/>
<path d="M42 45.5H54M45 52.5H56M49.5 59.5H56" stroke="#6F9444" stroke-width="3" stroke-linecap="round"/>
<path d="M41.5 20H29C28.3333 20.1997 28.3179 20.4115 29 21L30.5 23V39L18 61C17.0757 65.5055 17.8597 67.1412 21.5 68.5H44" stroke="#0F3051" stroke-width="3" stroke-linecap="round"/>
<circle cx="44" cy="30.5" r="2.5" fill="#0F3051"/>
<circle cx="41" cy="37.5" r="2.5" fill="#0F3051"/>
<circle cx="42" cy="45.5" r="2.5" fill="#0F3051"/>
<circle cx="45" cy="52.5" r="2.5" fill="#0F3051"/>
<circle cx="49" cy="59.5" r="2.5" fill="#0F3051"/>
<path d="M42.5 89.5C23 89.5 1.5 70.5 1.5 46C1.5 21.5 19.5 1.5 46 1.5" stroke="#0F3051" stroke-width="3"/>
<path d="M52.5 2C72.866 4.58449 91.4849 23.6168 88 49C84.5151 74.3831 66.4227 89.9735 42.5 89.5001" stroke="#6F9444" stroke-width="3" stroke-linecap="round"/>
<circle cx="53" cy="67.5" r="2.5" fill="#0F3051"/>
<path d="M110.307 27.6364V64H105.903V27.6364H110.307ZM150.971 27.6364V64H146.71L126.894 35.4489H126.539V64H122.136V27.6364H126.397L146.284 56.2585H146.639V27.6364H150.971ZM160.794 31.5426V27.6364H188.066V31.5426H176.632V64H172.228V31.5426H160.794ZM227.031 45.8182C227.031 49.6534 226.338 52.9678 224.953 55.7614C223.568 58.5549 221.668 60.7093 219.254 62.2244C216.839 63.7396 214.081 64.4972 210.979 64.4972C207.878 64.4972 205.12 63.7396 202.705 62.2244C200.29 60.7093 198.391 58.5549 197.006 55.7614C195.621 52.9678 194.928 49.6534 194.928 45.8182C194.928 41.983 195.621 38.6686 197.006 35.875C198.391 33.0814 200.29 30.9271 202.705 29.4119C205.12 27.8968 207.878 27.1392 210.979 27.1392C214.081 27.1392 216.839 27.8968 219.254 29.4119C221.668 30.9271 223.568 33.0814 224.953 35.875C226.338 38.6686 227.031 41.983 227.031 45.8182ZM222.769 45.8182C222.769 42.6695 222.242 40.0121 221.189 37.8459C220.147 35.6797 218.733 34.0402 216.945 32.9276C215.17 31.8149 213.181 31.2585 210.979 31.2585C208.778 31.2585 206.783 31.8149 204.996 32.9276C203.22 34.0402 201.806 35.6797 200.752 37.8459C199.71 40.0121 199.19 42.6695 199.19 45.8182C199.19 48.9669 199.71 51.6243 200.752 53.7905C201.806 55.9567 203.22 57.5961 204.996 58.7088C206.783 59.8215 208.778 60.3778 210.979 60.3778C213.181 60.3778 215.17 59.8215 216.945 58.7088C218.733 57.5961 220.147 55.9567 221.189 53.7905C222.242 51.6243 222.769 48.9669 222.769 45.8182ZM236.96 84V75.2727H238.016V83.0625H242.073V84H236.96ZM245.578 84H244.47L247.675 75.2727H248.766L251.97 84H250.862L248.254 76.6534H248.186L245.578 84ZM245.987 80.5909H250.453V81.5284H245.987V80.5909ZM254.29 84V75.2727H257.341C257.949 75.2727 258.45 75.3778 258.845 75.5881C259.24 75.7955 259.534 76.0753 259.727 76.4276C259.92 76.777 260.017 77.1648 260.017 77.5909C260.017 77.9659 259.95 78.2756 259.817 78.5199C259.686 78.7642 259.513 78.9574 259.297 79.0994C259.084 79.2415 258.852 79.3466 258.602 79.4148V79.5C258.869 79.517 259.138 79.6108 259.408 79.7812C259.678 79.9517 259.903 80.196 260.085 80.5142C260.267 80.8324 260.358 81.2216 260.358 81.6818C260.358 82.1193 260.259 82.5128 260.06 82.8622C259.861 83.2116 259.547 83.4886 259.118 83.6932C258.689 83.8977 258.131 84 257.443 84H254.29ZM255.347 83.0625H257.443C258.134 83.0625 258.624 82.929 258.913 82.6619C259.206 82.392 259.352 82.0653 259.352 81.6818C259.352 81.3864 259.277 81.1136 259.126 80.8636C258.976 80.6108 258.761 80.4091 258.483 80.2585C258.205 80.1051 257.875 80.0284 257.494 80.0284H255.347V83.0625ZM255.347 79.108H257.307C257.625 79.108 257.912 79.0455 258.168 78.9205C258.426 78.7955 258.631 78.6193 258.781 78.392C258.935 78.1648 259.011 77.8977 259.011 77.5909C259.011 77.2074 258.878 76.8821 258.611 76.6151C258.344 76.3452 257.92 76.2102 257.341 76.2102H255.347V79.108ZM270.418 79.6364C270.418 80.5568 270.252 81.3523 269.92 82.0227C269.587 82.6932 269.131 83.2102 268.552 83.5739C267.972 83.9375 267.31 84.1193 266.566 84.1193C265.822 84.1193 265.16 83.9375 264.58 83.5739C264 83.2102 263.545 82.6932 263.212 82.0227C262.88 81.3523 262.714 80.5568 262.714 79.6364C262.714 78.7159 262.88 77.9205 263.212 77.25C263.545 76.5795 264 76.0625 264.58 75.6989C265.16 75.3352 265.822 75.1534 266.566 75.1534C267.31 75.1534 267.972 75.3352 268.552 75.6989C269.131 76.0625 269.587 76.5795 269.92 77.25C270.252 77.9205 270.418 78.7159 270.418 79.6364ZM269.395 79.6364C269.395 78.8807 269.269 78.2429 269.016 77.723C268.766 77.2031 268.427 76.8097 267.998 76.5426C267.572 76.2756 267.094 76.142 266.566 76.142C266.037 76.142 265.559 76.2756 265.13 76.5426C264.704 76.8097 264.364 77.2031 264.111 77.723C263.861 78.2429 263.736 78.8807 263.736 79.6364C263.736 80.392 263.861 81.0298 264.111 81.5497C264.364 82.0696 264.704 82.4631 265.13 82.7301C265.559 82.9972 266.037 83.1307 266.566 83.1307C267.094 83.1307 267.572 82.9972 267.998 82.7301C268.427 82.4631 268.766 82.0696 269.016 81.5497C269.269 81.0298 269.395 80.392 269.395 79.6364ZM273.155 84V75.2727H276.104C276.786 75.2727 277.345 75.3892 277.783 75.6222C278.22 75.8523 278.544 76.169 278.755 76.5724C278.965 76.9759 279.07 77.4347 279.07 77.9489C279.07 78.4631 278.965 78.919 278.755 79.3168C278.544 79.7145 278.222 80.027 277.787 80.2543C277.353 80.4787 276.797 80.5909 276.121 80.5909H273.735V79.6364H276.087C276.553 79.6364 276.928 79.5682 277.212 79.4318C277.499 79.2955 277.706 79.1023 277.834 78.8523C277.965 78.5994 278.03 78.2983 278.03 77.9489C278.03 77.5994 277.965 77.294 277.834 77.0327C277.703 76.7713 277.495 76.5696 277.208 76.4276C276.921 76.2827 276.541 76.2102 276.07 76.2102H274.212V84H273.155ZM277.263 80.0795L279.411 84H278.184L276.07 80.0795H277.263Z" fill="#0F3051"/>
<path d="M250.645 52.6364H255.474L259.523 57.9631L260.588 59.3835L266.625 67.4091H261.795L257.818 62.0824L256.824 60.733L250.645 52.6364ZM268.116 45.8182C268.116 49.6534 267.424 52.9678 266.039 55.7614C264.654 58.5549 262.754 60.7093 260.339 62.2244C257.925 63.7396 255.167 64.4972 252.065 64.4972C248.964 64.4972 246.206 63.7396 243.791 62.2244C241.376 60.7093 239.477 58.5549 238.092 55.7614C236.707 52.9678 236.014 49.6534 236.014 45.8182C236.014 41.983 236.707 38.6686 238.092 35.875C239.477 33.0814 241.376 30.9271 243.791 29.4119C246.206 27.8968 248.964 27.1392 252.065 27.1392C255.167 27.1392 257.925 27.8968 260.339 29.4119C262.754 30.9271 264.654 33.0814 266.039 35.875C267.424 38.6686 268.116 41.983 268.116 45.8182ZM263.855 45.8182C263.855 42.6695 263.328 40.0121 262.275 37.8459C261.233 35.6797 259.819 34.0402 258.031 32.9276C256.256 31.8149 254.267 31.2585 252.065 31.2585C249.864 31.2585 247.869 31.8149 246.082 32.9276C244.306 34.0402 242.892 35.6797 241.838 37.8459C240.796 40.0121 240.276 42.6695 240.276 45.8182C240.276 48.9669 240.796 51.6243 241.838 53.7905C242.892 55.9567 244.306 57.5961 246.082 58.7088C247.869 59.8215 249.864 60.3778 252.065 60.3778C254.267 60.3778 256.256 59.8215 258.031 58.7088C259.819 57.5961 261.233 55.9567 262.275 53.7905C263.328 51.6243 263.855 48.9669 263.855 45.8182ZM298.407 36.7273C298.194 34.928 297.33 33.5312 295.815 32.5369C294.299 31.5426 292.441 31.0455 290.239 31.0455C288.629 31.0455 287.221 31.3059 286.013 31.8267C284.818 32.3475 283.883 33.0637 283.208 33.9751C282.545 34.8866 282.214 35.9223 282.214 37.0824C282.214 38.053 282.445 38.8875 282.906 39.5859C283.38 40.2725 283.983 40.8466 284.717 41.3082C285.451 41.758 286.221 42.1309 287.026 42.4268C287.83 42.7109 288.57 42.9418 289.245 43.1193L292.938 44.1136C293.885 44.3622 294.939 44.7055 296.099 45.1435C297.271 45.5814 298.389 46.1792 299.455 46.9368C300.532 47.6825 301.42 48.6413 302.118 49.8132C302.816 50.9851 303.165 52.4233 303.165 54.1278C303.165 56.0928 302.651 57.8684 301.621 59.4545C300.603 61.0407 299.111 62.3014 297.146 63.2365C295.193 64.1716 292.82 64.6392 290.026 64.6392C287.422 64.6392 285.167 64.219 283.261 63.3786C281.367 62.5381 279.876 61.3662 278.787 59.8629C277.71 58.3596 277.1 56.6136 276.958 54.625H281.504C281.622 55.9981 282.084 57.1345 282.888 58.0341C283.705 58.9219 284.735 59.5848 285.978 60.0227C287.233 60.4489 288.582 60.6619 290.026 60.6619C291.707 60.6619 293.216 60.3897 294.554 59.8452C295.892 59.2888 296.951 58.5194 297.732 57.5369C298.513 56.5426 298.904 55.3826 298.904 54.0568C298.904 52.8494 298.567 51.867 297.892 51.1094C297.217 50.3518 296.33 49.7363 295.229 49.2628C294.128 48.7893 292.938 48.375 291.66 48.0199L287.185 46.7415C284.344 45.9247 282.095 44.7588 280.438 43.2436C278.781 41.7285 277.952 39.7457 277.952 37.2955C277.952 35.2595 278.503 33.4839 279.604 31.9688C280.716 30.4418 282.208 29.258 284.078 28.4176C285.96 27.5653 288.061 27.1392 290.381 27.1392C292.725 27.1392 294.808 27.5594 296.631 28.3999C298.454 29.2285 299.898 30.3648 300.964 31.8089C302.041 33.2531 302.609 34.8925 302.668 36.7273H298.407ZM131.222 84V75.2727H132.279V83.0625H136.335V84H131.222ZM138.932 84V75.2727H144.199V76.2102H139.989V79.1591H143.926V80.0966H139.989V83.0625H144.267V84H138.932ZM147.064 84V75.2727H150.115C150.723 75.2727 151.224 75.3778 151.619 75.5881C152.014 75.7955 152.308 76.0753 152.501 76.4276C152.694 76.777 152.791 77.1648 152.791 77.5909C152.791 77.9659 152.724 78.2756 152.591 78.5199C152.46 78.7642 152.287 78.9574 152.071 79.0994C151.858 79.2415 151.626 79.3466 151.376 79.4148V79.5C151.643 79.517 151.912 79.6108 152.182 79.7812C152.451 79.9517 152.677 80.196 152.859 80.5142C153.041 80.8324 153.132 81.2216 153.132 81.6818C153.132 82.1193 153.032 82.5128 152.834 82.8622C152.635 83.2116 152.321 83.4886 151.892 83.6932C151.463 83.8977 150.905 84 150.217 84H147.064ZM148.121 83.0625H150.217C150.907 83.0625 151.397 82.929 151.687 82.6619C151.98 82.392 152.126 82.0653 152.126 81.6818C152.126 81.3864 152.051 81.1136 151.9 80.8636C151.75 80.6108 151.535 80.4091 151.257 80.2585C150.978 80.1051 150.649 80.0284 150.268 80.0284H148.121V83.0625ZM148.121 79.108H150.081C150.399 79.108 150.686 79.0455 150.942 78.9205C151.2 78.7955 151.405 78.6193 151.555 78.392C151.709 78.1648 151.785 77.8977 151.785 77.5909C151.785 77.2074 151.652 76.8821 151.385 76.6151C151.118 76.3452 150.694 76.2102 150.115 76.2102H148.121V79.108ZM155.828 84V75.2727H161.095V76.2102H156.885V79.1591H160.823V80.0966H156.885V83.0625H161.164V84H155.828ZM170.881 75.2727V84H169.858L165.102 77.1477H165.017V84H163.96V75.2727H164.983L169.756 82.142H169.841V75.2727H170.881ZM178.728 77.4545C178.677 77.0227 178.47 76.6875 178.106 76.4489C177.742 76.2102 177.296 76.0909 176.768 76.0909C176.382 76.0909 176.043 76.1534 175.754 76.2784C175.467 76.4034 175.242 76.5753 175.08 76.794C174.921 77.0128 174.842 77.2614 174.842 77.5398C174.842 77.7727 174.897 77.973 175.008 78.1406C175.122 78.3054 175.266 78.4432 175.443 78.554C175.619 78.6619 175.803 78.7514 175.997 78.8224C176.19 78.8906 176.367 78.946 176.529 78.9886L177.416 79.2273C177.643 79.2869 177.896 79.3693 178.174 79.4744C178.455 79.5795 178.724 79.723 178.98 79.9048C179.238 80.0838 179.451 80.3139 179.619 80.5952C179.786 80.8764 179.87 81.2216 179.87 81.6307C179.87 82.1023 179.747 82.5284 179.499 82.9091C179.255 83.2898 178.897 83.5923 178.426 83.8168C177.957 84.0412 177.387 84.1534 176.717 84.1534C176.092 84.1534 175.551 84.0526 175.093 83.8509C174.639 83.6491 174.281 83.3679 174.019 83.0071C173.761 82.6463 173.614 82.2273 173.58 81.75H174.671C174.7 82.0795 174.811 82.3523 175.004 82.5682C175.2 82.7812 175.447 82.9403 175.745 83.0455C176.046 83.1477 176.37 83.1989 176.717 83.1989C177.12 83.1989 177.482 83.1335 177.803 83.0028C178.124 82.8693 178.379 82.6847 178.566 82.4489C178.754 82.2102 178.847 81.9318 178.847 81.6136C178.847 81.3239 178.766 81.0881 178.605 80.9062C178.443 80.7244 178.23 80.5767 177.965 80.4631C177.701 80.3494 177.416 80.25 177.109 80.1648L176.035 79.858C175.353 79.6619 174.813 79.3821 174.416 79.0185C174.018 78.6548 173.819 78.179 173.819 77.5909C173.819 77.1023 173.951 76.6761 174.215 76.3125C174.482 75.946 174.84 75.6619 175.289 75.4602C175.741 75.2557 176.245 75.1534 176.802 75.1534C177.364 75.1534 177.864 75.2543 178.302 75.456C178.739 75.6548 179.086 75.9276 179.342 76.2741C179.6 76.6207 179.737 77.0142 179.751 77.4545H178.728ZM182.568 75.2727H183.829L186.795 82.517H186.897L189.863 75.2727H191.125V84H190.136V77.3693H190.051L187.323 84H186.369L183.642 77.3693H183.556V84H182.568V75.2727ZM195.26 75.2727V84H194.204V75.2727H195.26ZM197.862 76.2102V75.2727H204.408V76.2102H201.663V84H200.606V76.2102H197.862ZM206.521 76.2102V75.2727H213.067V76.2102H210.322V84H209.266V76.2102H206.521ZM215.658 84V75.2727H220.925V76.2102H216.715V79.1591H220.652V80.0966H216.715V83.0625H220.993V84H215.658ZM223.79 84V75.2727H224.846V83.0625H228.903V84H223.79ZM234.094 79.1676V80.1051H230.276V79.1676H234.094Z" fill="#6F9444"/>
<path d="M106.5 79.5H121.5" stroke="#6F9444" stroke-width="3" stroke-linecap="round"/>
<path d="M290.5 79.5H305.5" stroke="#0F3051" stroke-width="3" stroke-linecap="round"/>
</svg>
