<svg width="90" height="65" viewBox="0 0 90 65" fill="none" xmlns="http://www.w3.org/2000/svg">
<path d="M22.027 37.179V33.3783C20.2844 31.504 19.3593 30.2627 18.027 26.8783C15.8556 24.1144 15.3684 22.5768 15.527 19.8783C16.4809 18.9953 17.1476 18.9076 18.527 19.3783V17.3783C23.8915 16.6996 26.8476 15.3242 32.027 12.8779C35.6042 15.8307 36.3082 17.6155 38.527 18.8779C40.0776 18.2128 40.7637 18.673 41.527 19.3783C41.8475 20.0295 41.6494 23.9568 38.8355 26.8783C37.4908 30.4366 36.6941 31.6098 34.027 33.3783L35.027 37.179C35.1073 35.6425 36.7922 35.5603 45.027 37.8783L42.527 12.3783C39.027 -3.12196 17.027 -2.62207 14.027 12.8783L12.027 37.8783C19.1807 35.4178 21.2992 35.32 22.027 37.179Z" fill="#6F9444" stroke="#0F3051" stroke-width="2" stroke-linecap="round"/>
<path d="M18.527 27.8781V24.3781M38.527 18.8779V27.3781M18.527 24.3781V19.3781C18.527 19.3781 23.0639 18.1923 25.527 19.3781C28.5342 20.8257 28.604 22.6569 25.527 24.3781C23.1412 25.7126 18.527 24.3781 18.527 24.3781Z" stroke="#0F3051" stroke-width="2" stroke-linecap="round"/>
<path d="M38.0269 19.3774C38.0269 19.3774 33.454 18.1195 31.0269 19.3774C27.6722 21.1162 27.8573 22.9333 31.0269 24.3774C33.5146 25.5108 38.0269 24.3774 38.0269 24.3774V19.3774Z" stroke="#0F3051" stroke-width="2" stroke-linecap="round"/>
<path d="M22.027 33.3779C27.1162 36.6863 29.7607 36.8332 34.027 33.3779" stroke="#0F3051" stroke-width="2" stroke-linecap="round"/>
<path d="M22.027 36.8779C20.751 38.2917 19.8465 38.9892 17.527 39.8779M17.527 39.8779C3.48862 41.9494 0.684532 47.9853 1.02698 63.8779H28.527M17.527 39.8779L15.027 45.3779L19.027 45.8779L17.527 49.8779C22.1606 54.9244 24.5273 58.0378 28.527 63.8779M35.027 36.8779C36.3849 38.2058 37.2276 38.729 39.027 38.8779C55.3744 42.6619 56.8994 49.3947 55.527 63.8779H28.527M39.027 38.8779L42.027 45.8779H37.527L40.027 49.8779C35.4054 54.5785 32.892 57.6815 28.527 63.8779" stroke="#0F3051" stroke-width="2" stroke-linecap="round"/>
<path d="M28.527 61.3779L22.6103 42.3779C27.3565 44.7237 29.8686 44.8411 34.027 42.3779L28.527 61.3779Z" fill="#6F9444"/>
<path d="M34.027 42.3779L28.527 61.3779L22.6103 42.3779L21.527 38.3779M35.527 37.3779L34.027 42.3779M22.6103 42.3779C27.3565 44.7237 29.8686 44.8411 34.027 42.3779" stroke="#0F3051" stroke-width="2" stroke-linecap="round"/>
<path d="M39.527 56.8779H48.027M10.527 63.3779V51.3779H12.527V54.8779H15.527M15.527 54.8779V51.8779M15.527 54.8779V62.8779M12.527 60.8779V63.3779" stroke="#0F3051" stroke-width="2" stroke-linecap="round"/>
<path d="M50.027 39.8779V12.8779C50.027 11.7734 50.9224 10.8779 52.027 10.8779H60.027M54.027 41.8779V16.3779C54.027 15.2734 54.9224 14.3779 56.027 14.3779H60.027M78.027 10.8779H86.527C87.6316 10.8779 88.527 11.7734 88.527 12.8779V57.8779C88.527 58.9825 87.6316 59.8779 86.527 59.8779H58.527M58.527 55.8779H83.027C84.1316 55.8779 85.027 54.9825 85.027 53.8779V16.3779C85.027 15.2734 84.1316 14.3779 83.027 14.3779H78.027" stroke="#6F9444" stroke-width="2" stroke-linecap="round"/>
<rect x="61.027" y="9.37793" width="16" height="6" rx="1" stroke="#0F3051" stroke-width="2"/>
<mask id="path-11-inside-1_145_158" fill="white">
<path d="M73.027 9.37793C73.027 8.31706 72.6056 7.29965 71.8554 6.5495C71.1053 5.79936 70.0879 5.37793 69.027 5.37793C67.9661 5.37793 66.9487 5.79936 66.1986 6.5495C65.4484 7.29965 65.027 8.31706 65.027 9.37793L69.027 9.37793H73.027Z"/>
</mask>
<path d="M73.027 9.37793C73.027 8.31706 72.6056 7.29965 71.8554 6.5495C71.1053 5.79936 70.0879 5.37793 69.027 5.37793C67.9661 5.37793 66.9487 5.79936 66.1986 6.5495C65.4484 7.29965 65.027 8.31706 65.027 9.37793L69.027 9.37793H73.027Z" stroke="#0F3051" stroke-width="2" mask="url(#path-11-inside-1_145_158)"/>
<path d="M58.527 24.3779L60.527 25.8779L64.027 21.3779M58.527 32.3779L60.527 33.8779L64.027 29.3779M58.527 39.8779L60.527 41.3779L64.027 36.8779M58.527 47.3779L60.527 48.8779L64.027 43.8779" stroke="#0F3051" stroke-width="2" stroke-linecap="round"/>
<path d="M67.527 24.3779H80.027M67.527 31.3779H80.027M67.527 38.8779H80.027M67.527 47.3779H74.527" stroke="#6F9444" stroke-width="2" stroke-linecap="round"/>
<circle cx="77.527" cy="46.8779" r="2.5" stroke="#0F3051" stroke-width="2"/>
</svg>
