<svg width="88" height="68" viewBox="0 0 88 68" fill="none" xmlns="http://www.w3.org/2000/svg">
<path d="M10.5 7.5H4C2.34315 7.5 1 8.84315 1 10.5V53C1 54.6569 2.34315 56 4 56H36" stroke="#0F3051" stroke-width="2"/>
<path d="M30 7.5H36.5C38.1569 7.5 39.5 8.84315 39.5 10.5V29" stroke="#6F9444" stroke-width="2" stroke-linecap="round"/>
<mask id="path-3-inside-1_145_39" fill="white">
<path d="M24 4C24 3.47471 23.8965 2.95457 23.6955 2.46927C23.4945 1.98396 23.1999 1.54301 22.8284 1.17157C22.457 0.800138 22.016 0.505501 21.5307 0.304482C21.0454 0.103463 20.5253 -2.2961e-08 20 0C19.4747 2.29611e-08 18.9546 0.103463 18.4693 0.304482C17.984 0.505501 17.543 0.800139 17.1716 1.17157C16.8001 1.54301 16.5055 1.98396 16.3045 2.46927C16.1035 2.95457 16 3.47471 16 4L16.9481 4C16.9481 3.59921 17.027 3.20235 17.1804 2.83207C17.3337 2.46179 17.5585 2.12535 17.8419 1.84195C18.1253 1.55855 18.4618 1.33374 18.8321 1.18037C19.2024 1.027 19.5992 0.948055 20 0.948055C20.4008 0.948055 20.7976 1.027 21.1679 1.18037C21.5382 1.33374 21.8747 1.55855 22.1581 1.84195C22.4415 2.12535 22.6663 2.46179 22.8196 2.83207C22.973 3.20235 23.0519 3.59921 23.0519 4H24Z"/>
</mask>
<path d="M24 4C24 3.47471 23.8965 2.95457 23.6955 2.46927C23.4945 1.98396 23.1999 1.54301 22.8284 1.17157C22.457 0.800138 22.016 0.505501 21.5307 0.304482C21.0454 0.103463 20.5253 -2.2961e-08 20 0C19.4747 2.29611e-08 18.9546 0.103463 18.4693 0.304482C17.984 0.505501 17.543 0.800139 17.1716 1.17157C16.8001 1.54301 16.5055 1.98396 16.3045 2.46927C16.1035 2.95457 16 3.47471 16 4L16.9481 4C16.9481 3.59921 17.027 3.20235 17.1804 2.83207C17.3337 2.46179 17.5585 2.12535 17.8419 1.84195C18.1253 1.55855 18.4618 1.33374 18.8321 1.18037C19.2024 1.027 19.5992 0.948055 20 0.948055C20.4008 0.948055 20.7976 1.027 21.1679 1.18037C21.5382 1.33374 21.8747 1.55855 22.1581 1.84195C22.4415 2.12535 22.6663 2.46179 22.8196 2.83207C22.973 3.20235 23.0519 3.59921 23.0519 4H24Z" stroke="#0F3051" stroke-width="2" mask="url(#path-3-inside-1_145_39)"/>
<path d="M11 8V7.5C11 5.84315 12.3431 4.5 14 4.5H26C27.6569 4.5 29 5.84315 29 7.5V8C29 9.65685 27.6569 11 26 11H14C12.3431 11 11 9.65685 11 8Z" stroke="#6F9444" stroke-width="2" stroke-linecap="round"/>
<path d="M19.5 19H33M19.5 30.5H33M19.5 35H30.5M19.5 42H27M19.5 46.5H25.5M19.5 23.5H33" stroke="#6F9444" stroke-width="2" stroke-linecap="round"/>
<path d="M7.5 21L9.5 23.5L15 18M7.5 32L9.5 34.5L15 29.5M7.5 44.5L9.5 47L15 41.5" stroke="#0F3051" stroke-width="2" stroke-linecap="round"/>
<rect x="36.7395" y="31.521" width="6.59799" height="18" rx="2" transform="rotate(26.5248 36.7395 31.521)" stroke="#0F3051" stroke-width="2"/>
<rect x="71.3654" y="34.6541" width="6.59799" height="18" rx="2" transform="rotate(-29.898 71.3654 34.6541)" stroke="#6F9444" stroke-width="2"/>
<path d="M35.5 49.5L40 53M56.5 65.5L57.5 66.5C57.5 66.5 60.3762 67.585 61.5 66.5C62.4933 65.541 62 63 62 63M62 63L58.5 60M62 63C62 63 66.766 65.0186 67.5 63C67.7669 62.266 67.5 61 67.5 61M67.5 61L61 56M67.5 61C67.5 61 69.9714 61.9001 71 61C72.1756 59.9714 71 57 71 57M71 57L63 51.5M71 57C71 57 73.4714 57.9001 74.5 57C75.6756 55.9714 74.5 53 74.5 53M42.5 36.5H54" stroke="#0F3051" stroke-width="2" stroke-linecap="round"/>
<path d="M79 49.0002C79 49.0002 76.8056 51.9611 74.5 51.5C69.5 50.5 60 42.0002 60 42.0002C58.8284 41.6265 58.1716 41.5349 57 42.0002L52.5 45.5002C52.5 45.5002 48.9748 46.9624 48 45.5002C47.3501 44.5254 48 42.5002 48 42.5002L54 36.5002C54 36.5002 55.7625 35.4295 57 35.0002C60.1361 33.9121 65.5 35.0002 65.5 35.0002L68 36.5002C68.7811 36.8417 69.2189 36.8616 70 36.5002L71.5 35.5002M46 54.0002L42 58.5002C42 58.5002 39.0498 57.679 39 56C38.9663 54.8619 40 53.5002 40 53.5002C40 53.5002 41.475 51.9885 43 52C44.6568 52.0125 46 54.0002 46 54.0002ZM46 54.0002C46 54.0002 48.7813 52.5037 50 53.5002C50.814 54.1658 51 56.0002 51 56.0002M51 56.0002L46 62.0002C46 62.0002 42.9373 62.7497 42 61.5C41.2971 60.5627 42 59.0002 42 59.0002M51 56.0002C51 56.0002 53.2376 55.5895 54 56.5002C54.7521 57.3985 54 59.5002 54 59.5002M46 62.5002C46 62.5002 45.9783 63.6748 46.5 64.5C47.3349 65.8206 50 64.9247 50 64.9247L51 63.5686M54 59.5002L51 63.5686M54 59.5002C54 59.5002 55.5374 60.4972 56 61.5002C56.5602 62.7146 56 64.9247 56 64.9247L54.5 66.5C54.5 66.5 52.4569 67.476 51.5 66.5C50.5618 65.5431 51 63.5686 51 63.5686" stroke="#6F9444" stroke-width="2" stroke-linecap="round"/>
<path d="M42.5 13.5008C43.4882 11.6034 44.617 9.94031 45.8534 8.5M80.5 30.4991C81.5402 27.4879 82.0469 24.6446 82.108 22M45.8534 8.5C49.6952 4.02442 54.5751 1.69969 59.5 1.17752M45.8534 8.5C48.0527 9.43327 50.0809 10.2026 52 10.8066M61.5 1.06369C62.2867 1.05721 63.0711 1.09562 63.8491 1.17752C69.1692 1.73749 74.1921 4.33015 77.619 8.5C80.484 11.9863 82.2334 16.575 82.108 22M77.619 8.5C75.4182 9.43586 73.3895 10.2043 71.473 10.8066M43 22H51M82.108 22H51M61.5 1.06369C60.8342 1.06918 60.1667 1.10683 59.5 1.17752M61.5 1.06369L61.0243 30.4991M51 22C53.0053 27.5188 55.0429 29.5633 61.0243 30.4991C67.6414 30.1181 70.2092 28.406 72.5 22C73.2363 17.3873 73.1437 14.9102 71.473 10.8066M59.5 1.17752C55.6253 4.26152 53.9411 6.34751 52 10.8066M52 10.8066C50.5204 15.013 50.4292 17.4831 51 22M52 10.8066C58.9396 12.9906 64.4532 13.0128 71.473 10.8066M63.8491 1.17752C67.6831 4.43617 69.3381 6.51518 71.473 10.8066" stroke="#0F3051" stroke-width="2" stroke-linecap="round"/>
</svg>
