<svg width="47" height="46" viewBox="0 0 47 46" fill="none" xmlns="http://www.w3.org/2000/svg">
<path d="M3.49995 38C3.01873 35.1834 3.04602 33.8123 3.99992 32L31.9999 3.50003C33.0852 2.91301 34.0217 2.86988 36.4999 3.50003C39.4362 4.93624 40.668 6.10199 42.4999 8.50003C43.3649 11.0315 43.2911 12.4871 42.4999 15L14.4999 42.5C13.1093 42.8349 11.7679 42.8921 8.49992 42.5C6.4916 41.4211 4.98169 40.0879 3.49995 38Z" stroke="#0F3051"/>
<circle cx="1" cy="32" r="1" fill="#0F3051"/>
<circle cx="5" cy="26" r="1" fill="#0F3051"/>
<circle cx="10" cy="21" r="1" fill="#0F3051"/>
<circle cx="14" cy="17" r="1" fill="#0F3051"/>
<circle cx="18" cy="13" r="1" fill="#0F3051"/>
<circle cx="22" cy="8" r="1" fill="#0F3051"/>
<circle cx="27" cy="3" r="1" fill="#0F3051"/>
<circle cx="33" cy="1" r="1" fill="#0F3051"/>
<circle cx="40" cy="2" r="1" fill="#0F3051"/>
<circle cx="45" cy="6" r="1" fill="#0F3051"/>
<circle cx="46" cy="14" r="1" fill="#0F3051"/>
<circle cx="42" cy="20" r="1" fill="#0F3051"/>
<circle cx="38" cy="25" r="1" fill="#0F3051"/>
<circle cx="34" cy="28" r="1" fill="#0F3051"/>
<circle cx="30" cy="32" r="1" fill="#0F3051"/>
<circle cx="25" cy="37" r="1" fill="#0F3051"/>
<circle cx="20" cy="41" r="1" fill="#0F3051"/>
<circle cx="15" cy="45" r="1" fill="#0F3051"/>
<circle cx="7" cy="45" r="1" fill="#0F3051"/>
<circle cx="1" cy="40" r="1" fill="#0F3051"/>
<path d="M5 26L7.5 28.5" stroke="#0F3051"/>
<path d="M10 21L12.5 23.5" stroke="#0F3051"/>
<path d="M14 17L16.5 19.5" stroke="#0F3051"/>
<path d="M18 13L20.5 15" stroke="#0F3051"/>
<path d="M22 8L24.5 11" stroke="#0F3051"/>
<path d="M27 3L29.5 5.5" stroke="#0F3051"/>
<path d="M33 1V3.5" stroke="#0F3051"/>
<path d="M40 2L38.5 4M45 6L42.5 8" stroke="#0F3051"/>
<path d="M46 14H43" stroke="#0F3051"/>
<path d="M42 20L39.5 18.5" stroke="#0F3051"/>
<path d="M35 22.5L38 25" stroke="#0F3051"/>
<path d="M27.5 30L30 32" stroke="#0F3051"/>
<path d="M22.5 35L25 37" stroke="#0F3051"/>
<path d="M18.5 39L20 41" stroke="#0F3051"/>
<path d="M14.5 42.5L15 45" stroke="#0F3051"/>
<path d="M8 42.5L7 45" stroke="#0F3051"/>
<path d="M3.5 38L1 40" stroke="#0F3051"/>
<path d="M3.5 33L1 32" stroke="#0F3051"/>
<path d="M6.99991 36.0001C6.51108 33.5722 6.93539 32.0613 7.49991 31.0001L31.9999 6.49991C32.4999 5.99992 34.4999 5.00001 36.9999 6.50007C38.3196 7.40515 38.852 8.06946 39.4999 9.50007C40.9999 13 38.9999 14.5 38.4999 15.0001L14.4999 39.5001C13.7683 39.725 11.1547 40.0849 9.49989 39.0001C8.13438 38.1048 7.60631 37.3995 6.99991 36.0001Z" stroke="#6F9444"/>
<ellipse cx="20.041" cy="29.5161" rx="1" ry="2.5" transform="rotate(-0.941774 20.041 29.5161)" fill="#6F9444"/>
<ellipse cx="18.6895" cy="24.948" rx="1" ry="2.5" transform="rotate(65.4593 18.6895 24.948)" fill="#6F9444"/>
<ellipse cx="14.4893" cy="31.4599" rx="1" ry="2.5" transform="rotate(-45.7924 14.4893 31.4599)" fill="#6F9444"/>
<ellipse cx="13.5624" cy="36.3661" rx="1" ry="2.5" transform="rotate(50.3108 13.5624 36.3661)" fill="#6F9444"/>
<ellipse cx="15.574" cy="28.2029" rx="1" ry="2.5" transform="rotate(94.7347 15.574 28.2029)" fill="#6F9444"/>
<ellipse cx="10.39" cy="34.2588" rx="0.953652" ry="1.15534" transform="rotate(-72.3647 10.39 34.2588)" fill="#6F9444"/>
<path d="M27.4451 13.3374C30.0677 10.4822 33.3923 9.26821 34.8709 10.6255C36.3493 11.9834 35.4223 15.3998 32.7996 18.2554C30.1768 21.111 26.8513 22.3253 25.3728 20.9673C23.8944 19.6094 24.8223 16.1931 27.4451 13.3374ZM29.0808 19.6275C28.9844 19.2811 28.2555 19.1813 27.4529 19.4048C26.6505 19.6284 26.0781 20.0907 26.1746 20.4371C26.2714 20.7832 27.0002 20.8831 27.8025 20.6597C28.6051 20.4362 29.1772 19.9739 29.0808 19.6275ZM29.9764 18.1246C29.4208 17.5037 28.7531 17.1943 28.4851 17.4341C28.2172 17.6739 28.4501 18.3718 29.0056 18.9927C29.561 19.6133 30.2286 19.9224 30.4969 19.6831C30.7648 19.4434 30.5318 18.7454 29.9764 18.1246ZM26.8133 17.4234C26.014 17.1896 25.2837 17.2797 25.1824 17.6246C25.0814 17.9697 25.6484 18.4394 26.448 18.6734C27.2476 18.9073 27.9779 18.8173 28.0789 18.4722C28.1798 18.1271 27.6128 17.6573 26.8133 17.4234ZM32.8191 16.5259C32.6067 16.2358 31.8897 16.3991 31.2176 16.8912C30.5453 17.3833 30.1721 18.018 30.3846 18.3081C30.5972 18.5979 31.3141 18.4338 31.9861 17.9419C32.6581 17.45 33.031 16.8162 32.8191 16.5259ZM27.6414 14.1128C27.2873 14.175 27.1167 14.89 27.2605 15.7105C27.4045 16.5311 27.8087 17.1466 28.1629 17.0845C28.5169 17.0221 28.6876 16.3063 28.5437 15.4859C28.3998 14.6653 27.9956 14.0507 27.6414 14.1128ZM30.5047 15.1138C29.6739 15.1768 29.0224 15.5189 29.0496 15.8775C29.0769 16.236 29.7718 16.4755 30.6023 16.4126C31.4331 16.3496 32.0846 16.0075 32.0574 15.649C32.0298 15.2906 31.335 15.0509 30.5047 15.1138ZM32.9392 13.6978C32.2005 13.3127 31.4668 13.2588 31.3006 13.5777C31.1349 13.8966 31.5992 14.4671 32.3377 14.8521C33.0764 15.2372 33.81 15.291 33.9764 14.9722C34.1426 14.6533 33.678 14.0829 32.9392 13.6978ZM30.7303 12.2427C30.3966 12.1089 29.8742 12.6273 29.5633 13.3999C29.2523 14.1728 29.2707 14.9083 29.6043 15.0425C29.9379 15.1763 30.4603 14.658 30.7713 13.8853C31.0822 13.1125 31.0638 12.3769 30.7303 12.2427ZM33.8885 12.2984C33.4644 11.5814 32.8698 11.1486 32.5603 11.3316C32.251 11.5147 32.3435 12.2445 32.7674 12.9615C33.1914 13.6786 33.7869 14.1113 34.0965 13.9283C34.4055 13.7449 34.3123 13.0152 33.8885 12.2984Z" fill="#6F9444"/>
</svg>
