<svg width="93" height="63" viewBox="0 0 93 63" fill="none" xmlns="http://www.w3.org/2000/svg">
<path d="M34 24C35.0695 23.8516 35.5147 23.535 36 22.5V20M36 9.5C36 9.5 34 8.97631 34 8C34 7.02369 36 6.5 36 6.5H45.5C45.5 6.5 46.9807 7.1718 47 8C47.0227 8.97605 45 9.5 45 9.5M36 9.5V20M36 9.5H45M45 9.5V20H53C54 20.5 54 20.5 54.5 21.5V54C54 55 54 55 53 55.5H27M11 38.5H21C21 38.5 22.6397 37.491 23.5 36.2137M11 38.5V47M11 38.5H0.5M11 30.5H21C21 30.5 24.2541 32.9033 24 35C23.9496 35.4155 23.7606 35.8269 23.5 36.2137M11 30.5V22M11 30.5H0.5M36 20H27M27 20H12.5C11.5 20 11 20.5 11 21V22M27 20V55.5M27 55.5H12.5C11.5 55 11.5 55 11 54V47M11 22H4.5L0.5 26.5V30.5M11 47H4.5L0.5 42V38.5M0.5 38.5V30.5M11.5 33.5H23.5M30 34.5C32.2077 34.0704 33.4101 34.0926 35.5 34.5C37.7231 35.2454 38.8292 35.8745 40.5 37.5C41.8572 39.2604 42.779 38.8668 44.5 37.5C46.9084 35.1566 48.3536 34.1276 51 32.5C51.3963 31.137 50.9193 30.3623 50.5 29M11.5 36L23.5 36.2137" stroke="#0F3051" stroke-linecap="round"/>
<path d="M30.6209 25.8603C30.9029 25.6533 31.202 25.5333 31.4534 25.5024C31.7082 25.4713 31.8911 25.5331 31.9811 25.6553C32.071 25.7779 32.0756 25.9714 31.9694 26.2054C31.8646 26.436 31.6605 26.6854 31.3785 26.8924C31.0965 27.0993 30.7975 27.2195 30.5461 27.2502C30.2911 27.2814 30.1077 27.2191 30.0178 27.0966C29.9281 26.9741 29.924 26.7809 30.03 26.5472C30.1347 26.3166 30.3389 26.0674 30.6209 25.8603Z" fill="#6F9444" stroke="#0F3051" stroke-width="0.2"/>
<path d="M36.1283 27.9615C36.8515 28.1974 37.457 28.5468 37.8517 28.9167C38.2529 29.2928 38.4097 29.6625 38.3168 29.9476C38.2238 30.2326 37.8794 30.438 37.3338 30.5053C36.7969 30.5716 36.1019 30.4971 35.3786 30.2614C34.6551 30.0255 34.049 29.6759 33.6543 29.3059C33.2532 28.9299 33.096 28.561 33.1888 28.276C33.2818 27.9909 33.6263 27.7846 34.1721 27.7173C34.7091 27.651 35.4049 27.7257 36.1283 27.9615Z" fill="#6F9444" stroke="#0F3051" stroke-width="0.2"/>
<path d="M42.4215 24.1288C42.6907 24.977 42.82 25.7772 42.8142 26.3832C42.8113 26.6867 42.7743 26.9362 42.7079 27.1167C42.641 27.2987 42.5512 27.3939 42.4533 27.425C42.3554 27.456 42.2272 27.4301 42.0675 27.3199C41.9092 27.2107 41.7351 27.0283 41.5577 26.782C41.2035 26.2903 40.8477 25.562 40.5785 24.7137C40.3092 23.8654 40.1799 23.0653 40.1857 22.4593C40.1886 22.1558 40.2256 21.9064 40.292 21.7258C40.3589 21.544 40.4487 21.4486 40.5466 21.4176C40.6445 21.3865 40.7728 21.4126 40.9324 21.5226C41.0907 21.6318 41.2648 21.8142 41.4423 22.0605C41.7965 22.5522 42.1522 23.2804 42.4215 24.1288Z" fill="#6F9444" stroke="#0F3051" stroke-width="0.2"/>
<path d="M48.3942 24.8811C48.185 25.1614 47.934 25.3636 47.7027 25.4666C47.4681 25.5709 47.2751 25.5652 47.1533 25.4746C47.0314 25.3837 46.9705 25.1999 47.0037 24.9451C47.0365 24.694 47.1589 24.3958 47.368 24.1155C47.5773 23.8351 47.8281 23.6328 48.0595 23.53C48.2943 23.4257 48.4879 23.4317 48.6097 23.5225C48.7313 23.6135 48.7916 23.797 48.7585 24.0515C48.7258 24.3026 48.6033 24.6006 48.3942 24.8811Z" fill="#6F9444" stroke="#0F3051" stroke-width="0.2"/>
<path d="M41.3397 16.0523C41.5835 16.3032 41.7435 16.583 41.8085 16.8277C41.8744 17.0759 41.8383 17.2655 41.7296 17.3715C41.6206 17.4774 41.4295 17.5085 41.1831 17.4354C40.9403 17.3633 40.6653 17.1954 40.4215 16.9445C40.1778 16.6935 40.0177 16.4139 39.9527 16.1691C39.8868 15.9208 39.9234 15.7306 40.0324 15.6247C40.1414 15.5191 40.3321 15.4885 40.5782 15.5614C40.821 15.6334 41.0959 15.8015 41.3397 16.0523Z" fill="#6F9444" stroke="#0F3051" stroke-width="0.2"/>
<path d="M43.3147 32.9342C42.8281 32.9251 42.3941 32.8067 42.0868 32.6281C41.7762 32.4476 41.6148 32.2184 41.619 31.9924C41.6234 31.7665 41.7931 31.5442 42.11 31.3754C42.4237 31.2083 42.8618 31.1061 43.3485 31.1151C43.8349 31.1242 44.2682 31.2427 44.5754 31.4212C44.8858 31.6016 45.0482 31.8301 45.0442 32.0559C45.04 32.2819 44.8693 32.5049 44.5522 32.6739C44.2386 32.8408 43.8011 32.9431 43.3147 32.9342Z" fill="#6F9444" stroke="#0F3051" stroke-width="0.2"/>
<path d="M30 52.5V37.5C31.7573 37.0564 32.7428 37.0248 34.5 37.5C37.6298 38.6659 38.8253 39.5296 40 41.5C41.4843 42.5176 42.2469 42.4147 43.5 41.5C47.5754 37.5272 49.22 36.1337 51.5 34.5V51.5L50.5 52.5H30Z" fill="#6F9444" stroke="#0F3051"/>
<ellipse cx="50.5" cy="29.5" rx="1" ry="1.5" fill="#D9D9D9"/>
<ellipse cx="50.5" cy="29.5" rx="1" ry="1.5" fill="#0F3051"/>
<path d="M80.7684 33.9754L87.0099 44.712L80.6704 55.5871L68.083 55.7147L61.8415 44.9781L68.181 34.103L80.7684 33.9754Z" fill="#D9D9D9"/>
<path d="M80.7684 33.9754L87.0099 44.712L80.6704 55.5871L68.083 55.7147L61.8415 44.9781L68.181 34.103L80.7684 33.9754Z" fill="#6F9444"/>
<path d="M80.7684 33.9754L87.0099 44.712L80.6704 55.5871L68.083 55.7147L61.8415 44.9781L68.181 34.103L80.7684 33.9754Z" stroke="#0F3051"/>
<path d="M80.8023 7.01155L87.0438 17.7481L80.7043 28.6233L68.1169 28.7508L61.8754 18.0143L68.2149 7.13913L80.8023 7.01155Z" stroke="#0F3051"/>
<path d="M66.5568 13.2727H67.8182L70.7841 20.517H70.8864L73.8523 13.2727H75.1136V22H74.125V15.3693H74.0398L71.3125 22H70.358L67.6307 15.3693H67.5455V22H66.5568V13.2727ZM79.8406 22.1364C79.2099 22.1364 78.6658 21.9972 78.2085 21.7188C77.7539 21.4375 77.4031 21.0455 77.1559 20.5426C76.9116 20.0369 76.7894 19.4489 76.7894 18.7784C76.7894 18.108 76.9116 17.517 77.1559 17.0057C77.4031 16.4915 77.7468 16.0909 78.1871 15.804C78.6303 15.5142 79.1474 15.3693 79.7383 15.3693C80.0792 15.3693 80.4158 15.4261 80.7482 15.5398C81.0806 15.6534 81.3832 15.8381 81.6559 16.0938C81.9286 16.3466 82.146 16.6818 82.3079 17.0994C82.4698 17.517 82.5508 18.0312 82.5508 18.642V19.0682H77.5053V18.1989H81.5281C81.5281 17.8295 81.4542 17.5 81.3065 17.2102C81.1616 16.9205 80.9542 16.6918 80.6843 16.5241C80.4173 16.3565 80.1019 16.2727 79.7383 16.2727C79.3377 16.2727 78.9911 16.3722 78.6985 16.571C78.4087 16.767 78.1857 17.0227 78.0295 17.3381C77.8732 17.6534 77.7951 17.9915 77.7951 18.3523V18.9318C77.7951 19.4261 77.8803 19.8452 78.0508 20.1889C78.2241 20.5298 78.4641 20.7898 78.771 20.9688C79.0778 21.1449 79.4343 21.233 79.8406 21.233C80.1048 21.233 80.3434 21.196 80.5565 21.1222C80.7724 21.0455 80.9585 20.9318 81.1147 20.7812C81.271 20.6278 81.3917 20.4375 81.4769 20.2102L82.4485 20.483C82.3462 20.8125 82.1744 21.1023 81.9329 21.3523C81.6914 21.5994 81.3931 21.7926 81.038 21.9318C80.6829 22.0682 80.2837 22.1364 79.8406 22.1364Z" fill="#0F3051"/>
<path d="M67.5568 40.2727H68.8182L71.7841 47.517H71.8864L74.8523 40.2727H76.1136V49H75.125V42.3693H75.0398L72.3125 49H71.358L68.6307 42.3693H68.5455V49H67.5568V40.2727ZM81.011 42.4545V43.3068H77.4826V42.4545H81.011ZM78.5394 49V41.5511C78.5394 41.1761 78.6275 40.8636 78.8036 40.6136C78.9798 40.3636 79.2085 40.1761 79.4897 40.0511C79.771 39.9261 80.0678 39.8636 80.3803 39.8636C80.6275 39.8636 80.8292 39.8835 80.9854 39.9233C81.1417 39.9631 81.2582 40 81.3349 40.0341L81.0451 40.9034C80.994 40.8864 80.9229 40.8651 80.832 40.8395C80.744 40.8139 80.6275 40.8011 80.4826 40.8011C80.1502 40.8011 79.9102 40.8849 79.7624 41.0526C79.6175 41.2202 79.5451 41.4659 79.5451 41.7898V49H78.5394Z" fill="#0F3051"/>
</svg>
