<svg width="35" height="41" viewBox="0 0 35 41" fill="none" xmlns="http://www.w3.org/2000/svg">
<path d="M18.1749 21C19.8371 31.0549 19.1548 35.0792 15.1749 39.5M7.17493 26L15.6749 31.5M12.1749 23.5L15.6749 26M19.6749 15L23.1749 17.5M19.1749 9.00003L26.6749 14.5M21.6749 4.50003L28.6749 9.50003" stroke="#6F9444" stroke-width="2" stroke-linecap="round"/>
<path d="M13.675 36.5L4.17496 30.5C1.15854 31.1953 0.664817 31.1342 1.17496 30.5C2.7144 26.0057 6.04387 21.4193 10.675 21C13.4949 21.0626 15.8235 21.1076 17.675 21.1132C21.3791 21.1245 23.1739 20.9783 23.175 20.5C29.8396 17.5153 31.8297 14.8828 33.175 10.5C33.0882 9.8091 30.6666 10.5197 28.675 9.50003M17.675 21.1132C14.8242 11.6971 15.2285 7.23555 20.175 1.00003" stroke="#0F3051" stroke-width="2" stroke-linecap="round"/>
</svg>
