<svg width="101" height="50" viewBox="0 0 101 50" fill="none" xmlns="http://www.w3.org/2000/svg">
<path d="M0.722268 1.13086C0.722268 1.13086 0.222234 9.13086 0.722268 13.1309C0.927789 14.7749 3.72227 16.1309 3.72227 16.1309L3.22227 42.6309C3.22227 42.6309 3.89384 44.1309 4.72227 44.1309C5.55069 44.1309 6.22227 42.6309 6.22227 42.6309V16.1309C6.22227 16.1309 8.3524 14.6104 8.72227 13.1309C9.72223 9.13086 8.72227 1.13086 8.72227 1.13086M3.72227 1.13086V9.63086M6.22227 1.13086V9.63086" stroke="#0F3051" stroke-linecap="round"/>
<mask id="path-2-inside-1_141_134" fill="white">
<path d="M53.2222 23.1309C53.2222 17.7531 51.4198 12.5454 48.1281 8.41289C44.8364 4.28038 40.2637 1.48437 35.2048 0.51086C30.1459 -0.462652 24.9206 0.447889 20.4372 3.08421C15.9538 5.72054 12.4957 9.91596 10.6641 14.9412C8.83253 19.9665 8.74318 25.5039 10.4116 30.5909C12.08 35.6779 15.4007 39.9929 19.7965 42.7858C24.1923 45.5787 29.3853 46.673 34.4727 45.8784C39.5602 45.0839 44.2205 42.4507 47.6436 38.4366L46.7905 37.6414C43.5452 41.4469 39.127 43.9433 34.3039 44.6966C29.4807 45.4499 24.5576 44.4124 20.3902 41.7646C16.2227 39.1168 13.0746 35.026 11.4928 30.2033C9.91107 25.3806 9.99578 20.1309 11.7322 15.3667C13.4687 10.6025 16.747 6.62509 20.9975 4.12573C25.248 1.62637 30.2018 0.76314 34.9979 1.68607C39.794 2.60901 44.1291 5.25975 47.2498 9.17756C50.3704 13.0954 52.0792 18.0325 52.0792 23.1309H53.2222Z"/>
</mask>
<path d="M53.2222 23.1309C53.2222 17.7531 51.4198 12.5454 48.1281 8.41289C44.8364 4.28038 40.2637 1.48437 35.2048 0.51086C30.1459 -0.462652 24.9206 0.447889 20.4372 3.08421C15.9538 5.72054 12.4957 9.91596 10.6641 14.9412C8.83253 19.9665 8.74318 25.5039 10.4116 30.5909C12.08 35.6779 15.4007 39.9929 19.7965 42.7858C24.1923 45.5787 29.3853 46.673 34.4727 45.8784C39.5602 45.0839 44.2205 42.4507 47.6436 38.4366L46.7905 37.6414C43.5452 41.4469 39.127 43.9433 34.3039 44.6966C29.4807 45.4499 24.5576 44.4124 20.3902 41.7646C16.2227 39.1168 13.0746 35.026 11.4928 30.2033C9.91107 25.3806 9.99578 20.1309 11.7322 15.3667C13.4687 10.6025 16.747 6.62509 20.9975 4.12573C25.248 1.62637 30.2018 0.76314 34.9979 1.68607C39.794 2.60901 44.1291 5.25975 47.2498 9.17756C50.3704 13.0954 52.0792 18.0325 52.0792 23.1309H53.2222Z" stroke="#0F3051" stroke-width="4" mask="url(#path-2-inside-1_141_134)"/>
<path d="M49.2222 35.1309H62.2222" stroke="#6F9444" stroke-width="2" stroke-linecap="round"/>
<path d="M49.2222 44.1309H62.2222" stroke="#6F9444" stroke-width="2" stroke-linecap="round"/>
<path d="M16.7222 12.6309C21.5661 7.84596 24.6206 6.28678 30.7222 5.63086V19.1309M47.7222 22.6309H33.7222V14.6309M33.7222 40.6309C39.2617 39.7226 41.9311 37.1833 45.7222 32.1309M54.7222 22.6309V5.13086C55.5137 2.02669 56.4601 1.16135 58.7222 0.630859V22.6309M60.7222 29.6309C60.7656 30.8804 62.7222 30.8806 62.7222 32.1309C62.7222 37.1309 62.7222 47.1309 62.7222 47.1309C62.399 48.0578 62.1337 48.4669 61.2222 48.6309H50.2222C49.3537 48.3636 49.0218 48.0551 48.7222 47.1309C48.7222 47.1309 48.7222 36.6309 48.7222 31.6309C48.7222 30.5263 50.6003 30.7287 50.7222 29.6309M60.7222 29.6309C60.6828 28.493 62.3394 28.2634 62.2222 27.1309C62.1218 26.1597 61.6985 25.1309 60.7222 25.1309C57.2222 25.1309 53.7222 25.1309 50.2222 25.1309C49.2459 25.1309 48.7997 26.1576 48.7222 27.1309C48.623 28.3772 50.8603 28.3882 50.7222 29.6309M60.7222 29.6309H50.7222M14.7222 15.6309C13.8429 20.4846 13.8471 23.2772 14.7222 28.1309C21.084 38.015 28.2222 42.6309 31.7222 38.6309V26.6309L14.7222 15.6309Z" stroke="#0F3051" stroke-linecap="round"/>
<path d="M18.6486 21.331C18.8323 21.3745 19.0019 21.576 19.0905 21.9525C19.1766 22.3192 19.172 22.8072 19.049 23.3266C18.9259 23.846 18.7111 24.2842 18.4696 24.5733C18.2215 24.8701 17.9795 24.9741 17.7958 24.9306C17.6122 24.887 17.4425 24.6856 17.354 24.309C17.2678 23.9423 17.2725 23.4543 17.3955 22.9349C17.5186 22.4155 17.7334 21.9773 17.9749 21.6882C18.223 21.3914 18.465 21.2875 18.6486 21.331Z" fill="#6F9444" stroke="#0F3051" stroke-width="0.3"/>
<path d="M20.1439 27.1401C20.1602 27.3281 20.0222 27.5524 19.6924 27.7547C19.3713 27.9516 18.9065 28.1003 18.3747 28.1465C17.8429 28.1927 17.3594 28.1262 17.0092 27.9876C16.6495 27.8452 16.4749 27.648 16.4585 27.46C16.4422 27.272 16.5803 27.0477 16.91 26.8454C17.2312 26.6486 17.6959 26.4998 18.2277 26.4536C18.7595 26.4075 19.243 26.4739 19.5933 26.6125C19.9529 26.7549 20.1276 26.9521 20.1439 27.1401Z" fill="#6F9444" stroke="#0F3051" stroke-width="0.3"/>
<path d="M22.6607 26.0625C22.4873 26.137 22.231 26.0763 21.9354 25.8267C21.6477 25.5835 21.3606 25.1889 21.1499 24.6985C20.9392 24.208 20.8506 23.7281 20.8722 23.3521C20.8946 22.9659 21.027 22.7382 21.2004 22.6637C21.3738 22.5892 21.6301 22.6499 21.9256 22.8995C22.2133 23.1426 22.5004 23.5373 22.7111 24.0277C22.9219 24.5181 23.0105 24.998 22.9888 25.3741C22.9665 25.7603 22.8341 25.988 22.6607 26.0625Z" fill="#6F9444" stroke="#0F3051" stroke-width="0.3"/>
<path d="M22.9979 28.4323C22.8728 28.291 22.85 28.0286 22.9942 27.6697C23.1348 27.3202 23.4194 26.9238 23.819 26.5698C24.2185 26.2158 24.6463 25.9811 25.0102 25.8836C25.3839 25.7837 25.6416 25.8379 25.7668 25.9792C25.8919 26.1204 25.9147 26.3828 25.7705 26.7418C25.6299 27.0913 25.3453 27.4877 24.9458 27.8417C24.5462 28.1956 24.1184 28.4304 23.7545 28.5278C23.3808 28.6278 23.1231 28.5735 22.9979 28.4323Z" fill="#6F9444" stroke="#0F3051" stroke-width="0.3"/>
<path d="M25.8548 29.0709C25.9497 28.9078 26.1917 28.8038 26.5777 28.8281C26.9537 28.8519 27.4194 28.9977 27.8809 29.266C28.3423 29.5342 28.6995 29.8668 28.9062 30.1817C29.1184 30.5051 29.1478 30.7669 29.0529 30.93C28.9581 31.0932 28.7161 31.1972 28.33 31.1729C27.9541 31.1491 27.4884 31.0033 27.0269 30.735C26.5654 30.4667 26.2082 30.1342 26.0015 29.8193C25.7894 29.4958 25.76 29.2341 25.8548 29.0709Z" fill="#6F9444" stroke="#0F3051" stroke-width="0.3"/>
<path d="M20.9934 28.4839C21.178 28.5228 21.3527 28.7199 21.4508 29.0941C21.5462 29.4585 21.5539 29.9464 21.444 30.4688C21.3341 30.9912 21.1304 31.4346 20.8963 31.7297C20.6558 32.0327 20.4165 32.1427 20.2318 32.1039C20.0471 32.065 19.8724 31.8679 19.7744 31.4937C19.679 31.1293 19.6713 30.6413 19.7812 30.119C19.8911 29.5966 20.0947 29.1531 20.3289 28.858C20.5694 28.5551 20.8087 28.4451 20.9934 28.4839Z" fill="#6F9444" stroke="#0F3051" stroke-width="0.3"/>
<path d="M26.1594 32.1414C26.1805 32.3289 26.0481 32.5567 25.7236 32.7672C25.4075 32.9721 24.9466 33.1326 24.4162 33.1921C23.8857 33.2517 23.4007 33.1975 23.0471 33.0678C22.6839 32.9345 22.5044 32.7418 22.4833 32.5543C22.4622 32.3668 22.5946 32.139 22.9191 31.9285C23.2352 31.7236 23.6961 31.5631 24.2265 31.5035C24.757 31.444 25.242 31.4982 25.5956 31.6279C25.9588 31.7612 26.1383 31.9539 26.1594 32.1414Z" fill="#6F9444" stroke="#0F3051" stroke-width="0.3"/>
<path d="M28.7393 37.0461C28.5678 37.125 28.3101 37.0707 28.0083 36.8287C27.7146 36.5929 27.4176 36.2056 27.1945 35.7207C26.9715 35.2357 26.8708 34.7582 26.8829 34.3817C26.8955 33.9951 27.0221 33.7641 27.1936 33.6853C27.3651 33.6064 27.6228 33.6606 27.9245 33.9027C28.2183 34.1385 28.5153 34.5257 28.7383 35.0107C28.9614 35.4957 29.0621 35.9731 29.0499 36.3497C29.0373 36.7363 28.9107 36.9672 28.7393 37.0461Z" fill="#6F9444" stroke="#0F3051" stroke-width="0.3"/>
<path d="M19.0141 15.4872C18.8854 15.3492 18.856 15.0875 18.9911 14.725C19.1228 14.3721 19.3973 13.9686 19.7878 13.6046C20.1782 13.2407 20.6 12.9952 20.9613 12.8886C21.3323 12.7792 21.5914 12.8269 21.7201 12.965C21.8487 13.103 21.8782 13.3648 21.743 13.7272C21.6113 14.0801 21.3368 14.4836 20.9464 14.8476C20.5559 15.2116 20.1341 15.457 19.7728 15.5637C19.4018 15.673 19.1428 15.6253 19.0141 15.4872Z" fill="#6F9444" stroke="#0F3051" stroke-width="0.3"/>
<path d="M22.8347 11.0801C22.9254 10.9146 23.1647 10.8045 23.5512 10.8191C23.9276 10.8334 24.3969 10.9674 24.865 11.2239C25.3331 11.4804 25.6986 11.8038 25.9132 12.1134C26.1334 12.4314 26.1694 12.6923 26.0787 12.8578C25.988 13.0233 25.7488 13.1334 25.3622 13.1188C24.9858 13.1045 24.5165 12.9705 24.0484 12.714C23.5803 12.4575 23.2149 12.1341 23.0002 11.8245C22.78 11.5065 22.744 11.2456 22.8347 11.0801Z" fill="#6F9444" stroke="#0F3051" stroke-width="0.3"/>
<path d="M27.9028 8.45985C28.0884 8.49403 28.268 8.68669 28.3755 9.05828C28.4801 9.42018 28.5001 9.90777 28.4034 10.4327C28.3068 10.9577 28.1144 11.4062 27.8878 11.7071C27.655 12.016 27.4185 12.1321 27.2329 12.0979C27.0473 12.0637 26.8677 11.8711 26.7602 11.4995C26.6557 11.1376 26.6357 10.65 26.7323 10.125C26.829 9.60006 27.0214 9.15158 27.248 8.85066C27.4808 8.54172 27.7172 8.42568 27.9028 8.45985Z" fill="#6F9444" stroke="#0F3051" stroke-width="0.3"/>
<path d="M23.2232 13.5625C23.404 13.5082 23.6517 13.5977 23.9169 13.8793C24.1751 14.1536 24.4154 14.5783 24.5689 15.0895C24.7225 15.6008 24.7559 16.0876 24.6916 16.4588C24.6254 16.8399 24.468 17.0511 24.2872 17.1054C24.1065 17.1596 23.8587 17.0702 23.5935 16.7886C23.3354 16.5142 23.0951 16.0895 22.9415 15.5783C22.788 15.067 22.7545 14.5802 22.8189 14.209C22.885 13.8279 23.0425 13.6167 23.2232 13.5625Z" fill="#6F9444" stroke="#0F3051" stroke-width="0.3"/>
<path d="M28.8163 17.0273C28.6469 17.1105 28.3878 17.0628 28.0801 16.8285C27.7804 16.6002 27.4738 16.2205 27.2386 15.7414C27.0033 15.2622 26.8906 14.7874 26.8932 14.4107C26.896 14.0239 27.0168 13.7898 27.1862 13.7066C27.3556 13.6235 27.6146 13.6712 27.9224 13.9055C28.222 14.1338 28.5287 14.5134 28.7639 14.9926C28.9991 15.4718 29.1119 15.9466 29.1092 16.3233C29.1064 16.7101 28.9857 16.9442 28.8163 17.0273Z" fill="#6F9444" stroke="#0F3051" stroke-width="0.3"/>
<path d="M24.654 19.196C24.5997 19.0153 24.6891 18.7676 24.9707 18.5023C25.245 18.2441 25.6697 18.0038 26.1809 17.8502C26.6922 17.6966 27.179 17.6631 27.5502 17.7274C27.9313 17.7936 28.1425 17.951 28.1968 18.1318C28.2511 18.3125 28.1616 18.5602 27.88 18.8255C27.6057 19.0837 27.181 19.324 26.6698 19.4776C26.1586 19.6312 25.6717 19.6646 25.3006 19.6003C24.9194 19.5342 24.7083 19.3768 24.654 19.196Z" fill="#6F9444" stroke="#0F3051" stroke-width="0.3"/>
<path d="M35.654 20.196C35.5997 20.0153 35.6891 19.7676 35.9707 19.5023C36.245 19.2441 36.6697 19.0038 37.1809 18.8502C37.6922 18.6966 38.179 18.6631 38.5502 18.7274C38.9313 18.7936 39.1425 18.951 39.1968 19.1318C39.2511 19.3125 39.1616 19.5602 38.88 19.8255C38.6057 20.0837 38.181 20.324 37.6698 20.4776C37.1586 20.6312 36.6717 20.6646 36.3006 20.6003C35.9194 20.5342 35.7083 20.3768 35.654 20.196Z" fill="#6F9444" stroke="#0F3051" stroke-width="0.3"/>
<path d="M36.0785 16.7017C35.9354 16.5787 35.8773 16.3218 35.9718 15.9466C36.0638 15.5814 36.2923 15.1501 36.6403 14.7454C36.9883 14.3407 37.3805 14.0503 37.7279 13.9045C38.0847 13.755 38.3474 13.7739 38.4905 13.897C38.6335 14.02 38.6916 14.277 38.5972 14.6521C38.5051 15.0174 38.2767 15.4486 37.9286 15.8533C37.5806 16.258 37.1884 16.5485 36.841 16.6942C36.4843 16.8437 36.2216 16.8248 36.0785 16.7017Z" fill="#6F9444" stroke="#0F3051" stroke-width="0.3"/>
<path d="M36.2335 13.0831C36.0466 13.0565 35.8593 12.8713 35.7369 12.5043C35.6177 12.147 35.578 11.6606 35.6533 11.1321C35.7286 10.6037 35.9026 10.1478 36.1168 9.83791C36.3369 9.51979 36.5684 9.39425 36.7553 9.42087C36.9421 9.44749 37.1294 9.63271 37.2518 9.99963C37.371 10.357 37.4108 10.8434 37.3355 11.3718C37.2602 11.9003 37.0861 12.3562 36.8719 12.6661C36.6518 12.9842 36.4203 13.1097 36.2335 13.0831Z" fill="#6F9444" stroke="#0F3051" stroke-width="0.3"/>
<path d="M42.7273 21.0489C42.5555 21.1271 42.298 21.0719 41.9972 20.8287C41.7043 20.5917 41.4089 20.2033 41.1877 19.7175C40.9666 19.2317 40.8677 18.7538 40.8813 18.3774C40.8954 17.9908 41.0229 17.7603 41.1947 17.6821C41.3664 17.6039 41.624 17.6591 41.9248 17.9024C42.2176 18.1393 42.5131 18.5277 42.7342 19.0135C42.9554 19.4993 43.0543 19.9772 43.0407 20.3537C43.0266 20.7402 42.8991 20.9707 42.7273 21.0489Z" fill="#6F9444" stroke="#0F3051" stroke-width="0.3"/>
<path d="M37.9968 8.06338C37.8941 8.22176 37.6474 8.31395 37.263 8.27101C36.8886 8.22907 36.4305 8.06094 35.9825 7.77069C35.5345 7.48044 35.1938 7.13103 35.0026 6.80649C34.8063 6.47318 34.7896 6.21032 34.8922 6.05194C34.9948 5.89355 35.2415 5.80137 35.626 5.84431C36.0003 5.88624 36.4585 6.05438 36.9064 6.34463C37.3544 6.63487 37.6951 6.98428 37.8864 7.30882C38.0827 7.64213 38.0994 7.905 37.9968 8.06338Z" fill="#6F9444" stroke="#0F3051" stroke-width="0.3"/>
<path d="M42.078 11.1546C42.0768 11.3433 41.9185 11.5538 41.5715 11.7247C41.2335 11.891 40.7569 11.996 40.2231 11.9927C39.6894 11.9894 39.2141 11.8785 38.8782 11.708C38.5333 11.5329 38.3776 11.3204 38.3788 11.1317C38.38 10.943 38.5382 10.7324 38.8853 10.5616C39.2233 10.3953 39.6999 10.2902 40.2336 10.2935C40.7674 10.2968 41.2426 10.4078 41.5786 10.5782C41.9235 10.7534 42.0791 10.9659 42.078 11.1546Z" fill="#6F9444" stroke="#0F3051" stroke-width="0.3"/>
<path d="M43.012 14.057C43.1126 14.2166 43.0927 14.4793 42.8922 14.8101C42.697 15.1323 42.352 15.4774 41.9005 15.7621C41.4489 16.0468 40.9888 16.2093 40.6139 16.2466C40.229 16.2848 39.9834 16.1895 39.8828 16.0299C39.7821 15.8703 39.8021 15.6076 40.0025 15.2768C40.1977 14.9546 40.5427 14.6094 40.9942 14.3247C41.4458 14.0401 41.9059 13.8776 42.2808 13.8403C42.6657 13.8021 42.9113 13.8973 43.012 14.057Z" fill="#6F9444" stroke="#0F3051" stroke-width="0.3"/>
<path d="M46.7653 16.6925C46.9361 16.7728 47.0607 17.0048 47.07 17.3915C47.079 17.7681 46.9742 18.2448 46.7471 18.7278C46.5199 19.2109 46.2197 19.5956 45.9239 19.8289C45.6202 20.0684 45.362 20.1204 45.1912 20.0401C45.0204 19.9598 44.8958 19.7277 44.8864 19.341C44.8775 18.9644 44.9822 18.4878 45.2094 18.0047C45.4365 17.5217 45.7368 17.137 46.0325 16.9037C46.3363 16.6642 46.5945 16.6122 46.7653 16.6925Z" fill="#6F9444" stroke="#0F3051" stroke-width="0.3"/>
<path d="M45.2333 12.4088C45.4204 12.3844 45.6504 12.5128 45.8665 12.8336C46.0769 13.1461 46.2453 13.6042 46.3141 14.1335C46.3828 14.6629 46.337 15.1487 46.2135 15.5046C46.0865 15.87 45.8969 16.0528 45.7098 16.0771C45.5226 16.1015 45.2926 15.9731 45.0765 15.6523C44.8662 15.3398 44.6978 14.8817 44.629 14.3524C44.5602 13.823 44.606 13.3372 44.7296 12.9813C44.8566 12.6159 45.0461 12.4331 45.2333 12.4088Z" fill="#6F9444" stroke="#0F3051" stroke-width="0.3"/>
<path d="M34.0851 24.8886C34.2297 24.7674 34.4926 24.7517 34.8475 24.9056C35.193 25.0556 35.5816 25.3509 35.9246 25.7599C36.2676 26.1688 36.4907 26.6029 36.5782 26.9693C36.668 27.3455 36.6068 27.6017 36.4622 27.723C36.3176 27.8443 36.0547 27.8599 35.6998 27.706C35.3542 27.556 34.9657 27.2608 34.6227 26.8518C34.2796 26.4428 34.0566 26.0087 33.969 25.6424C33.8793 25.2661 33.9405 25.0099 34.0851 24.8886Z" fill="#6F9444" stroke="#0F3051" stroke-width="0.3"/>
<path d="M33.6652 35.13C33.7218 34.95 33.9349 34.7952 34.3168 34.7337C34.6887 34.674 35.1751 34.7135 35.6844 34.8734C36.1937 35.0333 36.6154 35.2789 36.8865 35.5404C37.1648 35.8091 37.2511 36.058 37.1946 36.238C37.1381 36.4181 36.925 36.5729 36.5431 36.6343C36.1711 36.694 35.6847 36.6545 35.1755 36.4946C34.6662 36.3347 34.2445 36.0892 33.9734 35.8276C33.6951 35.5589 33.6087 35.3101 33.6652 35.13Z" fill="#6F9444" stroke="#0F3051" stroke-width="0.3"/>
<path d="M33.6289 32.1026C33.5795 31.9205 33.6757 31.6753 33.9644 31.4178C34.2457 31.1672 34.6768 30.9386 35.192 30.799C35.7072 30.6594 36.1948 30.6393 36.5641 30.7137C36.9433 30.7902 37.1501 30.9533 37.1994 31.1355C37.2487 31.3176 37.1526 31.5628 36.8638 31.8203C36.5826 32.0709 36.1515 32.2995 35.6363 32.4391C35.121 32.5787 34.6334 32.5989 34.2642 32.5245C33.885 32.4479 33.6782 32.2848 33.6289 32.1026Z" fill="#6F9444" stroke="#0F3051" stroke-width="0.3"/>
<path d="M39.0635 34.6525C38.9238 34.5256 38.8728 34.2672 38.9774 33.8948C39.0794 33.5321 39.3195 33.1073 39.6785 32.7122C40.0374 32.3172 40.4374 32.0376 40.7886 31.9014C41.1493 31.7616 41.4114 31.7877 41.5511 31.9146C41.6908 32.0415 41.7418 32.3 41.6372 32.6724C41.5352 33.035 41.2951 33.4598 40.9361 33.8549C40.5771 34.25 40.1772 34.5296 39.8259 34.6658C39.4652 34.8055 39.2031 34.7794 39.0635 34.6525Z" fill="#6F9444" stroke="#0F3051" stroke-width="0.3"/>
<path d="M39.2333 31.0939C39.0472 31.0622 38.8651 30.8719 38.7527 30.5018C38.6433 30.1413 38.6168 29.654 38.7065 29.1278C38.7962 28.6016 38.9827 28.1506 39.2053 27.8467C39.4339 27.5347 39.6688 27.4155 39.8549 27.4473C40.0409 27.479 40.2231 27.6692 40.3355 28.0394C40.4448 28.3998 40.4713 28.8871 40.3816 29.4133C40.2919 29.9395 40.1055 30.3905 39.8829 30.6944C39.6542 31.0064 39.4193 31.1256 39.2333 31.0939Z" fill="#6F9444" stroke="#0F3051" stroke-width="0.3"/>
<path d="M42.642 28.066C42.4682 28.1394 42.2122 28.0772 41.9182 27.8259C41.6319 27.581 41.3472 27.1847 41.1394 26.693C40.9316 26.2014 40.8458 25.721 40.8697 25.345C40.8943 24.959 41.028 24.7321 41.2019 24.6586C41.3757 24.5851 41.6317 24.6473 41.9257 24.8987C42.212 25.1435 42.4967 25.5398 42.7045 26.0315C42.9123 26.5232 42.9981 27.0036 42.9742 27.3795C42.9496 27.7656 42.8158 27.9925 42.642 28.066Z" fill="#6F9444" stroke="#0F3051" stroke-width="0.3"/>
<path d="M46.1903 29.127C46.2501 29.306 46.1683 29.5563 45.895 29.83C45.6287 30.0965 45.2115 30.3497 44.7052 30.5189C44.199 30.688 43.7134 30.7364 43.3404 30.6835C42.9574 30.629 42.7415 30.4781 42.6817 30.2991C42.6219 30.1201 42.7038 29.8698 42.9771 29.5961C43.2434 29.3296 43.6605 29.0764 44.1668 28.9072C44.6731 28.7381 45.1587 28.6897 45.5317 28.7426C45.9147 28.7971 46.1305 28.948 46.1903 29.127Z" fill="#6F9444" stroke="#0F3051" stroke-width="0.3"/>
<rect x="50.7222" y="37.6309" width="10" height="4" rx="0.5" stroke="#0F3051"/>
<path d="M71.2222 14.1309L75.7222 17.1309M84.7222 15.1309L87.2222 9.63086M87.7222 21.6309H93.7222M83.2222 27.1309L85.2222 32.6309M76.2222 25.1309L73.2222 28.1309" stroke="#6F9444" stroke-width="2"/>
<circle cx="67.7222" cy="11.6309" r="4" stroke="#0F3051"/>
<circle cx="88.7222" cy="5.63086" r="4" stroke="#0F3051"/>
<circle cx="86.7222" cy="36.6309" r="4" stroke="#0F3051"/>
<circle cx="70.2222" cy="30.1309" r="3.5" stroke="#0F3051"/>
<circle cx="96.7222" cy="21.6309" r="3" stroke="#0F3051"/>
<circle cx="81.2222" cy="21.1309" r="6.5" stroke="#0F3051"/>
<circle cx="81.2222" cy="21.1309" r="5" fill="#6F9444"/>
<circle cx="67.2222" cy="11.1309" r="1" fill="#6F9444"/>
<circle cx="88.2222" cy="6.13086" r="1" fill="#6F9444"/>
<circle cx="96.2222" cy="22.1309" r="1" fill="#6F9444"/>
<circle cx="86.2222" cy="37.1309" r="1" fill="#6F9444"/>
<circle cx="70.2222" cy="30.1309" r="1" fill="#6F9444"/>
</svg>
