<svg width="93" height="54" viewBox="0 0 93 54" fill="none" xmlns="http://www.w3.org/2000/svg">
<path d="M28.0614 33.1074C29.7183 33.1074 31.0614 34.4506 31.0614 36.1074V47.1074C31.0614 48.7643 29.7183 50.1074 28.0614 50.1074H17.0614C15.4046 50.1074 14.0614 48.7643 14.0614 47.1074V36.1074C14.0614 34.4506 15.4046 33.1074 17.0614 33.1074H28.0614ZM23.0614 35.1074C23.0614 35.1074 22.4107 34.9328 22.0614 35.1074C21.8144 35.2309 21.7794 35.4379 21.5614 35.6074C21.2168 35.8755 20.5614 36.1074 20.5614 36.1074V36.6074C20.4741 36.8694 20.1849 36.8604 20.0614 37.1074C19.8868 37.4567 19.7853 37.8313 20.0614 38.1074C20.3376 38.3836 20.6802 38.0227 21.0614 38.1074C21.4877 38.2021 22.0614 38.6074 22.0614 38.6074V40.1074C21.8868 40.4567 21.452 40.1074 21.0614 40.1074H18.5614C18.5611 40.1073 17.3863 39.6201 17.0614 40.1074C16.8448 40.4324 17.0614 40.7169 17.0614 41.1074V42.6074C17.1995 43.0216 17.6709 42.9122 18.0614 43.1074C18.452 43.3027 18.6352 43.5127 19.0614 43.6074C19.4427 43.6921 20.0614 43.6074 20.0614 43.6074V45.1074L20.5614 45.6074H22.0614C22.3948 45.6074 22.0521 45.9124 22.0614 46.1074C22.1088 47.1019 22.5614 43.6074 22.5614 43.6074C22.5677 43.4123 22.4997 43.2927 22.5614 43.1074C22.6488 42.8455 22.8144 42.7309 23.0614 42.6074C23.4107 42.4328 23.7121 42.4328 24.0614 42.6074C24.3083 42.7309 24.5612 43.1071 24.5614 43.1074V43.6074C24.7467 44.1631 25.4756 43.6074 26.0614 43.6074H26.5614L27.0614 43.1074C27.1232 42.9222 27.0614 42.8027 27.0614 42.6074V40.1074C27.0614 40.107 26.9613 39.6074 26.5614 39.6074H24.5614C24.5614 39.6074 24.2467 39.6692 24.0614 39.6074C23.7995 39.5201 23.5614 39.3836 23.5614 39.1074C23.5614 38.8313 23.9741 38.8694 24.0614 38.6074C24.1232 38.4222 23.9997 38.2927 24.0614 38.1074C24.1995 37.6932 24.7168 37.8755 25.0614 37.6074C25.2794 37.4379 25.5614 37.3836 25.5614 37.1074C25.5614 36.8313 25.231 36.8254 25.0614 36.6074C24.7934 36.2628 24.7281 35.4408 24.5614 35.6074C24.3948 35.7741 24.0614 35.6074 24.0614 35.6074L23.0614 35.1074Z" fill="#6F9444"/>
<path d="M19.5614 16.1072C19.5614 15.1309 21.0614 14.1072 21.0614 14.1072H26.0614C26.0614 14.1072 27.5614 15.1309 27.5614 16.1072M19.5614 16.1072C19.5614 17.0835 21.0614 18.6072 21.0614 18.6072H23.5614M19.5614 16.1072C19.5614 17.2788 19.5614 19.1072 19.5614 19.1072C19.5614 19.1072 18.9005 19.6712 18.5614 20.1072C16.8831 22.265 19.6117 24.5833 18.5614 27.1072C17.2258 30.3169 13.5513 29.7564 11.5614 32.6072C7.6498 38.2112 11.5614 50.1072 11.5614 50.1072L13.0614 52.1072H32.0614L34.0614 50.1072C34.0614 50.1072 35.3278 39.323 34.0614 32.6072C32.7782 25.8015 27.5614 16.1072 27.5614 16.1072M19.5614 16.1072C19.5614 14.9356 19.5614 13.1072 19.5614 13.1072L18.99 12.1072M27.5614 16.1072C27.5614 17.0835 26.0614 18.6072 26.0614 18.6072H23.5614M27.5614 16.1072C27.5614 16.1072 27.0614 12.1072 27.5614 12.1072C29.0614 12.1072 32.0614 12.1072 32.0614 12.1072C32.0614 12.1072 32.8868 11.6311 33.0614 11.1072C33.3376 10.2788 32.0614 9.10718 32.0614 9.10718C32.0614 9.10718 29.3366 4.60704 26.5614 4.60718C21.0614 4.60744 12.0614 4.60718 12.0614 4.60718C12.0614 4.60718 11.5614 6.11153 11.5614 7.10718C11.5614 8.10282 12.0614 9.60718 12.0614 9.60718H14.8114M14.8114 9.60718C14.8114 9.60718 16.6255 9.58082 17.5614 10.1074C18.5414 10.6588 18.99 12.1072 18.99 12.1072M14.8114 9.60718C14.8114 9.60718 15.2299 12.1022 14.8114 13.6072C14.3036 15.4335 11.2098 17.7775 12.0614 17.6072C14.5614 17.1072 15.0586 16.4424 16.5614 15.1072C17.6883 14.106 18.99 12.1072 18.99 12.1072M23.5614 18.6072V32.6072" stroke="#0F3051" stroke-linecap="square"/>
<path d="M7.56143 6.20703C7.96789 6.20703 8.33197 6.26238 8.59073 6.34863C8.72052 6.39191 8.8184 6.44129 8.88174 6.49121C8.94625 6.54205 8.96182 6.58216 8.96182 6.60742C8.96182 6.63268 8.94625 6.6728 8.88174 6.72363C8.8184 6.77355 8.72052 6.82293 8.59073 6.86621C8.33197 6.95246 7.96789 7.00781 7.56143 7.00781C7.15498 7.00781 6.79089 6.95246 6.53214 6.86621C6.40234 6.82293 6.30447 6.77355 6.24112 6.72363C6.17661 6.6728 6.16104 6.63268 6.16104 6.60742C6.16104 6.58216 6.17661 6.54205 6.24112 6.49121C6.30447 6.44129 6.40234 6.39191 6.53214 6.34863C6.79089 6.26238 7.15498 6.20703 7.56143 6.20703Z" fill="#6F9444" stroke="#0F3051" stroke-width="0.2"/>
<path d="M5.76311 3.26156C6.11423 3.4663 6.40087 3.69752 6.58095 3.90237C6.67127 4.00514 6.73095 4.09709 6.76053 4.17213C6.79064 4.24854 6.78389 4.29103 6.77116 4.31286C6.75844 4.33468 6.72478 4.36149 6.64345 4.37291C6.56358 4.38412 6.45416 4.37748 6.32023 4.34948C6.05326 4.29365 5.71085 4.15807 5.35973 3.95333C5.00861 3.74858 4.72197 3.51737 4.54189 3.31252C4.45157 3.20975 4.39189 3.11779 4.36231 3.04276C4.33219 2.96635 4.33895 2.92385 4.35167 2.90203C4.3644 2.88021 4.39805 2.8534 4.47939 2.84198C4.55926 2.83076 4.66868 2.83741 4.80261 2.8654C5.06958 2.92123 5.41198 3.05682 5.76311 3.26156Z" fill="#6F9444" stroke="#0F3051" stroke-width="0.2"/>
<path d="M2.84783 1.03607C3.16025 1.29607 3.4047 1.57151 3.54842 1.80333C3.6205 1.91962 3.66414 2.02018 3.6809 2.09907C3.69797 2.17941 3.68428 2.22021 3.66812 2.23962C3.65196 2.25904 3.61433 2.27991 3.53223 2.27772C3.45161 2.27557 3.34479 2.25092 3.21734 2.20116C2.96327 2.10194 2.64801 1.91159 2.33559 1.65159C2.02317 1.39159 1.77872 1.11615 1.635 0.884337C1.56293 0.768044 1.51928 0.667483 1.50252 0.58859C1.48545 0.508251 1.49914 0.467459 1.5153 0.448041C1.53146 0.428623 1.56909 0.407752 1.65119 0.40994C1.73182 0.41209 1.83863 0.436745 1.96608 0.486502C2.22015 0.585723 2.53541 0.776074 2.84783 1.03607Z" fill="#6F9444" stroke="#0F3051" stroke-width="0.2"/>
<path d="M5.44472 8.87382C5.80737 8.69026 6.1572 8.57521 6.42702 8.5353C6.56237 8.5153 6.67199 8.51515 6.75106 8.53107C6.83157 8.5473 6.86358 8.57605 6.87499 8.59859C6.8864 8.62113 6.89062 8.66395 6.85603 8.73844C6.82205 8.81159 6.75703 8.89985 6.66077 8.99708C6.46887 9.1909 6.16903 9.40472 5.80638 9.58829C5.44374 9.77185 5.0939 9.8869 4.82409 9.92681C4.68874 9.94681 4.57911 9.94696 4.50005 9.93104C4.41954 9.91481 4.38753 9.88606 4.37612 9.86352C4.36471 9.84098 4.36049 9.79816 4.39508 9.72367C4.42905 9.65052 4.49408 9.56226 4.59033 9.46503C4.78224 9.27121 5.08208 9.05739 5.44472 8.87382Z" fill="#6F9444" stroke="#0F3051" stroke-width="0.2"/>
<path d="M1.35725 11.0729C1.71183 10.8742 2.05651 10.7445 2.3244 10.6932C2.45879 10.6676 2.56831 10.6628 2.64798 10.6754C2.7291 10.6882 2.76229 10.7156 2.77464 10.7376C2.78699 10.7596 2.79302 10.8022 2.76159 10.8781C2.73074 10.9526 2.66949 11.0436 2.57742 11.1448C2.39385 11.3465 2.10329 11.5728 1.74871 11.7715C1.39413 11.9701 1.04945 12.0998 0.781555 12.1511C0.64717 12.1768 0.537648 12.1815 0.457983 12.169C0.376858 12.1562 0.343666 12.1288 0.331317 12.1067C0.318967 12.0847 0.312943 12.0421 0.344366 11.9662C0.375225 11.8917 0.436472 11.8008 0.528542 11.6996C0.71211 11.4978 1.00267 11.2716 1.35725 11.0729Z" fill="#6F9444" stroke="#0F3051" stroke-width="0.2"/>
<path d="M2.56143 6.20703C3.24717 6.20703 3.86528 6.26274 4.30948 6.35156C4.53231 6.39613 4.70639 6.44821 4.82217 6.50293C4.88012 6.53033 4.91808 6.55645 4.94034 6.57812C4.95098 6.58852 4.95636 6.59664 4.95889 6.60156C4.96009 6.60392 4.96065 6.60566 4.96085 6.60645L4.96182 6.60742L4.96085 6.6084C4.96065 6.60918 4.96009 6.61092 4.95889 6.61328C4.95636 6.6182 4.95098 6.62632 4.94034 6.63672C4.91808 6.6584 4.88012 6.68451 4.82217 6.71191C4.70639 6.76664 4.53231 6.81871 4.30948 6.86328C3.86528 6.9521 3.24717 7.00781 2.56143 7.00781C1.8757 7.00781 1.25758 6.9521 0.813385 6.86328C0.590549 6.81871 0.416471 6.76664 0.30069 6.71191C0.242745 6.68451 0.204787 6.6584 0.182526 6.63672C0.171886 6.62632 0.166505 6.6182 0.163971 6.61328C0.162773 6.61092 0.162216 6.60918 0.162018 6.6084L0.161041 6.60742L0.162018 6.60645C0.162216 6.60566 0.162773 6.60392 0.163971 6.60156C0.166505 6.59664 0.171886 6.58852 0.182526 6.57812C0.204787 6.55645 0.242745 6.53033 0.30069 6.50293C0.416471 6.44821 0.590549 6.39613 0.813385 6.35156C1.25758 6.26274 1.8757 6.20703 2.56143 6.20703Z" fill="#6F9444" stroke="#0F3051" stroke-width="0.2"/>
<mask id="path-9-inside-1_141_149" fill="white">
<path d="M92.0614 28.1074C92.0614 41.9145 80.8686 53.1074 67.0614 53.1074C53.2543 53.1074 42.0614 41.9145 42.0614 28.1074C42.0614 14.3003 53.2543 3.10742 67.0614 3.10742C80.8686 3.10742 92.0614 14.3003 92.0614 28.1074ZM45.7328 28.1074C45.7328 39.8869 55.282 49.4361 67.0614 49.4361C78.8409 49.4361 88.3901 39.8869 88.3901 28.1074C88.3901 16.3279 78.8409 6.77879 67.0614 6.77879C55.282 6.77879 45.7328 16.3279 45.7328 28.1074Z"/>
</mask>
<path d="M92.0614 28.1074C92.0614 41.9145 80.8686 53.1074 67.0614 53.1074C53.2543 53.1074 42.0614 41.9145 42.0614 28.1074C42.0614 14.3003 53.2543 3.10742 67.0614 3.10742C80.8686 3.10742 92.0614 14.3003 92.0614 28.1074ZM45.7328 28.1074C45.7328 39.8869 55.282 49.4361 67.0614 49.4361C78.8409 49.4361 88.3901 39.8869 88.3901 28.1074C88.3901 16.3279 78.8409 6.77879 67.0614 6.77879C55.282 6.77879 45.7328 16.3279 45.7328 28.1074Z" fill="#D9D9D9"/>
<path d="M92.0614 28.1074C92.0614 41.9145 80.8686 53.1074 67.0614 53.1074C53.2543 53.1074 42.0614 41.9145 42.0614 28.1074C42.0614 14.3003 53.2543 3.10742 67.0614 3.10742C80.8686 3.10742 92.0614 14.3003 92.0614 28.1074ZM45.7328 28.1074C45.7328 39.8869 55.282 49.4361 67.0614 49.4361C78.8409 49.4361 88.3901 39.8869 88.3901 28.1074C88.3901 16.3279 78.8409 6.77879 67.0614 6.77879C55.282 6.77879 45.7328 16.3279 45.7328 28.1074Z" fill="#6F9444"/>
<path d="M92.0614 28.1074C92.0614 41.9145 80.8686 53.1074 67.0614 53.1074C53.2543 53.1074 42.0614 41.9145 42.0614 28.1074C42.0614 14.3003 53.2543 3.10742 67.0614 3.10742C80.8686 3.10742 92.0614 14.3003 92.0614 28.1074ZM45.7328 28.1074C45.7328 39.8869 55.282 49.4361 67.0614 49.4361C78.8409 49.4361 88.3901 39.8869 88.3901 28.1074C88.3901 16.3279 78.8409 6.77879 67.0614 6.77879C55.282 6.77879 45.7328 16.3279 45.7328 28.1074Z" stroke="#0F3051" stroke-width="2" mask="url(#path-9-inside-1_141_149)"/>
<path d="M64.0614 27.1074L51.0614 14.1074L54.0614 11.1074L67.0614 23.6074L80.0614 10.6074L83.0614 13.6074L70.0614 27.1074L83.5614 42.1074L80.5614 45.1074L67.0614 30.1074L53.5614 45.1074L50.0614 41.6074L64.0614 27.1074Z" fill="#6F9444" stroke="#0F3051"/>
<path d="M63.0614 19.6074C63.6003 18.3501 65.0264 17.0443 66.0615 16.6904M71.0615 19.1073C70.1003 16.8648 67.9075 16.0591 66.0615 16.6904M66.0615 16.6904L61.5615 13.1074M69.0615 16.6904L73.0615 13.1074M74.0614 31.6074C74.2363 30.8569 74.3553 30.1988 74.4146 29.6074C74.603 27.7315 74.1914 26.5268 73.0615 25.1702C72.9081 24.9861 72.7416 24.7992 72.5615 24.6074M67.0614 41.0404C69.2219 41.1389 71.2992 40.1576 72.2634 37.9561C72.3795 37.691 72.4794 37.4082 72.5615 37.1074M67.0614 41.0404C65.0088 40.9468 62.8811 39.8786 61.5615 37.9561C61.3785 37.6895 61.211 37.4065 61.0615 37.1074M59.4078 29.6074C59.3623 27.7711 59.6896 26.5296 60.6391 25.1702C60.7682 24.9854 60.9088 24.7984 61.0615 24.6074M59.5614 31.6074C59.4767 30.8619 59.4226 30.2033 59.4078 29.6074M52.5614 31.1074L55.0614 29.6074H59.4078M74.4146 29.6074H79.5614L81.0614 31.1074M73.0615 25.1702L78.5614 23.1074M60.6391 25.1702L55.5614 22.1074M61.5615 37.9561L59.4078 42.1074M72.2634 37.9561L74.4146 42.1074M67.0614 31.1074V41.0404" stroke="#0F3051" stroke-linecap="round"/>
</svg>
