<svg width="78" height="54" viewBox="0 0 78 54" fill="none" xmlns="http://www.w3.org/2000/svg">
<path d="M6 48.5027C6 48.5027 4.5 49.1743 4.5 50.0027C4.5 50.8312 6 51.5027 6 51.5027H49.5C49.5 51.5027 51 50.8312 51 50.0027C51 49.1743 49.5 48.5027 49.5 48.5027M6 48.5027H19.5M6 48.5027V41.5027M49.5 48.5027V37.5027M49.5 48.5027H32.5M25.5 48.5027V37.5027M25.5 48.5027H19.5M25.5 48.5027H32.5M25.5 37.5027C24.184 36.58 24.4715 36.1731 25.5 35.5027H28.5M25.5 37.5027H49.5M49.5 37.5027C50.7491 36.7251 50.7027 36.2815 49.5 35.5027H28.5M19.5 48.5027V30.0027M19.5 27.0027H27.5L28.5 29.0027V35.5027M19.5 27.0027V30.0027M19.5 27.0027L16.5 25.5027M19.5 27.0027L25.5 18.0027C25.9842 16.2055 25.2881 15.2119 20.5 13.5027M7 18.0027V30.0027M7 18.0027L12.5 20.5027M7 18.0027C3.66938 16.0485 4.07169 14.001 8 9.00272M7 30.0027L6 31.0027V41.5027M7 30.0027H19.5M6 41.5027H17M16.5 25.5027C14.2961 25.6735 13.4073 24.6271 12.5 20.5027M12.5 20.5027C13.3263 20.5593 13.9687 20.7431 14.5 21.1653C15.3529 21.8431 15.9193 23.1354 16.5 25.5027M14.5 21.1653L20.5 13.5027M20.5 13.5027L15.5 11.0027M15.5 11.0027L12 14.0027L8 9.00272M15.5 11.0027V4.50269M8 9.00272V4.50269M8 4.50269V2.00273C8 2.00273 10.3335 0.425808 12 0.502725C13.4855 0.571286 15.5 2.00273 15.5 2.00273V4.50269M8 4.50269C10.929 2.73623 12.5712 2.71174 15.5 4.50269M32.5 48.5027V45.0027C32.8553 44.1883 33.2108 43.8837 34 43.5027C36.6721 43.0285 38.2104 43.0738 41 43.5027C41.7073 43.8642 42.0559 44.1546 42.5 45.0027V48.5027" stroke="#0F3051" stroke-linecap="round"/>
<path d="M3.61498 9.9652C4.04215 10.0524 4.43391 10.3995 4.68445 11.0049C4.93363 11.6071 5.01555 12.4146 4.83943 13.2771C4.66331 14.1396 4.27138 14.8504 3.80603 15.3067C3.3382 15.7655 2.84174 15.9311 2.41457 15.8439C1.98741 15.7566 1.59563 15.4096 1.3451 14.8042C1.09592 14.202 1.014 13.3945 1.19012 12.532C1.36624 11.6695 1.75817 10.9587 2.22352 10.5024C2.69135 10.0436 3.18781 9.87799 3.61498 9.9652Z" fill="#6F9444" stroke="#0F3051"/>
<path d="M25 19.5027L28.5 23.5027M28.5 23.5027C29.7136 23.9073 30.3737 24.0123 31.5 23.5027C36.3815 20.6708 39.1186 20.8426 44 23.5027C47.1949 26.2679 47.7971 28.9429 47 35.5027M28.5 23.5027C26.2487 23.78 26.3843 24.9175 27.5 27.0027" stroke="#0F3051" stroke-linecap="round"/>
<path d="M37 28.5027C33.3435 28.9532 31.6664 29.5669 29 33.5027V35.0027H46.5L47 32.5027C42.6143 32.6323 41.1745 27.9883 37 28.5027Z" fill="#6F9444" stroke="#0F3051" stroke-linecap="round"/>
<path d="M11 39.5027H9V33.0027H16.5V39.5027H14.5M11 39.5027V36.0027H14.5V39.5027M11 39.5027H14.5" stroke="#0F3051" stroke-linecap="round"/>
<path d="M32.9898 24.8039C33.4907 24.6574 33.9625 24.6304 34.315 24.6942C34.6837 24.7611 34.8433 24.9075 34.8799 25.0326C34.9165 25.1578 34.8609 25.3672 34.5863 25.6221C34.3237 25.8658 33.9117 26.0972 33.4107 26.2436C32.9098 26.3901 32.438 26.4172 32.0855 26.3533C31.7169 26.2865 31.5572 26.1401 31.5206 26.0149C31.484 25.8897 31.5396 25.6804 31.8142 25.4254C32.0768 25.1817 32.4889 24.9504 32.9898 24.8039Z" fill="#6F9444" stroke="#0F3051" stroke-width="0.5"/>
<path d="M35.5 48.0027V45.5027H39.5V48.0027" stroke="#0F3051" stroke-linecap="round"/>
<path d="M72 40.5027C72 40.5027 73.0528 37.9344 74 38.5027C74.6904 38.9169 74.5 40.5027 74.5 40.5027V44.5027C74.5 44.5027 74.1904 45.8646 73.5 46.0027C72.6877 46.1652 72 44.5027 72 44.5027M72 40.5027H68.75M72 40.5027V44.5027M72 44.5027H69M65.5 44.5027H63C63 44.5027 62 43.3759 62 42.5027C62 41.6294 63 40.5027 63 40.5027H65.5M65.5 44.5027V52.5027L69 48.5027V44.5027M65.5 44.5027H69M65.5 40.5027L57 19.0027C56.5864 12.2597 58.0086 9.75321 64 8.00269V4.50269M65.5 40.5027H68.75M64 4.50269C64 4.50269 63 3.70671 63 3.00269C63 2.29866 64 1.50269 64 1.50269H70.5C70.5 1.50269 71.5 2.17426 71.5 3.00269C71.5 3.83111 70.5 4.50269 70.5 4.50269M64 4.50269H70.5M70.5 4.50269V8.00269C76.3303 9.9661 77.4396 12.597 77 19.0027L68.75 40.5027" stroke="#0F3051" stroke-linecap="round"/>
<path d="M67.4688 37.3025C67.3074 37.7372 66.6926 37.7372 66.5312 37.3025L60.1748 20.1765C60.0537 19.8499 60.2952 19.5027 60.6436 19.5027L73.3564 19.5027C73.7048 19.5027 73.9463 19.8499 73.8252 20.1765L67.4688 37.3025Z" fill="#6F9444" stroke="#0F3051"/>
<rect x="68.25" y="16.2527" width="6.5" height="1.5" rx="0.75" fill="#D9D9D9"/>
<rect x="68.25" y="16.2527" width="6.5" height="1.5" rx="0.75" fill="#6F9444"/>
<rect x="68.25" y="16.2527" width="6.5" height="1.5" rx="0.75" stroke="#0F3051" stroke-width="0.5"/>
</svg>
