<svg width="83" height="54" viewBox="0 0 83 54" fill="none" xmlns="http://www.w3.org/2000/svg">
<path d="M1.03187 38.4517C0.718476 34.6495 2.70523 29.9198 8.08405 24.9517H27.0842C37.084 32.9517 39.584 42.9517 27.0842 45.9517H8.5842C3.85285 44.5323 1.3133 41.866 1.03187 38.4517ZM1.03187 38.4517L1.08404 46.4517M1.08404 46.4517L8.5842 50.9517M1.08404 46.4517C1.08404 46.4517 0.813879 49.2196 2.08404 50.9517C3.81612 53.3136 8.5842 50.9517 8.5842 50.9517M8.5842 50.9517H27.0842M27.0842 50.9517L35.584 47.4517M27.0842 50.9517C27.0842 50.9517 33.5309 53.8853 35.084 50.9517C35.9063 49.3985 35.584 47.4517 35.584 47.4517M35.584 47.4517V38.4517" stroke="#0F3051" stroke-width="2"/>
<circle cx="29.084" cy="39.9517" r="1" fill="#6F9444" stroke="#0F3051"/>
<circle cx="7.08405" cy="39.9517" r="1" fill="#6F9444" stroke="#0F3051"/>
<circle cx="18.084" cy="13.9517" r="9" stroke="#0F3051"/>
<circle cx="18.084" cy="13.9517" r="7" fill="#6F9444" stroke="#0F3051"/>
<path d="M18.084 37.9517C19.8235 37.9517 21.3739 38.2784 22.4708 38.7847C23.61 39.3105 24.084 39.9358 24.084 40.4517C24.084 40.9675 23.61 41.5928 22.4708 42.1187C21.3739 42.6249 19.8235 42.9517 18.084 42.9517C16.3446 42.9517 14.7942 42.6249 13.6973 42.1187C12.5581 41.5928 12.084 40.9675 12.084 40.4517C12.084 39.9358 12.5581 39.3105 13.6973 38.7847C14.7942 38.2784 16.3446 37.9517 18.084 37.9517Z" fill="#6F9444" stroke="#0F3051"/>
<path d="M18.084 27.9517C21.2191 27.9517 24.0363 28.3942 26.0518 29.0952C27.0617 29.4465 27.843 29.8538 28.3624 30.2808C28.8852 30.7107 29.084 31.1091 29.084 31.4517C29.084 31.7942 28.8852 32.1926 28.3624 32.6226C27.843 33.0496 27.0617 33.4568 26.0518 33.8081C24.0363 34.5092 21.2191 34.9517 18.084 34.9517C14.949 34.9517 12.1318 34.5092 10.1163 33.8081C9.10643 33.4568 8.32506 33.0496 7.80573 32.6226C7.28289 32.1926 7.08405 31.7942 7.08405 31.4517C7.08405 31.1091 7.28289 30.7107 7.80573 30.2808C8.32506 29.8538 9.10643 29.4465 10.1163 29.0952C12.1318 28.3942 14.949 27.9517 18.084 27.9517Z" fill="#6F9444" stroke="#0F3051"/>
<rect x="5.58405" y="2.45166" width="25" height="22" rx="4" stroke="#0F3051" stroke-width="2"/>
<path d="M49.7853 12.938C56.0016 6.13528 65.7814 5.10993 71.6261 10.4509C77.4707 15.7918 77.3288 25.6242 71.1125 32.4269C64.8962 39.2292 55.1169 40.254 49.2723 34.9133C43.4277 29.5725 43.5692 19.7407 49.7853 12.938Z" stroke="#6F9444"/>
<ellipse cx="47.5759" cy="12.2095" rx="2.165" ry="0.5" transform="rotate(40.8562 47.5759 12.2095)" fill="#6F9444"/>
<ellipse cx="50.4368" cy="9.444" rx="2.22336" ry="0.5" transform="rotate(48.2834 50.4368 9.444)" fill="#6F9444"/>
<ellipse cx="54.1353" cy="7.25154" rx="1.88881" ry="0.5" transform="rotate(52.2729 54.1353 7.25154)" fill="#6F9444"/>
<ellipse cx="57.6931" cy="5.66928" rx="2.16588" ry="0.5" transform="rotate(73.0698 57.6931 5.66928)" fill="#6F9444"/>
<ellipse cx="60.7064" cy="4.81023" rx="2.30739" ry="0.5" transform="rotate(84.6066 60.7064 4.81023)" fill="#6F9444"/>
<ellipse cx="64.2907" cy="5.45157" rx="1.95773" ry="0.5" transform="rotate(96.1435 64.2907 5.45157)" fill="#6F9444"/>
<ellipse cx="67.5096" cy="6.71666" rx="1.44635" ry="0.5" transform="rotate(107.68 67.5096 6.71666)" fill="#6F9444"/>
<ellipse cx="70.7264" cy="7.95797" rx="1.44635" ry="0.5" transform="rotate(119.217 70.7264 7.95797)" fill="#6F9444"/>
<ellipse cx="73.907" cy="10.8737" rx="1.44635" ry="0.5" transform="rotate(130.754 73.907 10.8737)" fill="#6F9444"/>
<ellipse cx="76.2511" cy="14.36" rx="1.44635" ry="0.5" transform="rotate(142.291 76.2511 14.36)" fill="#6F9444"/>
<ellipse cx="77.1026" cy="18.5383" rx="1.44635" ry="0.5" transform="rotate(166.351 77.1026 18.5383)" fill="#6F9444"/>
<ellipse cx="77.0464" cy="22.4722" rx="1.44635" ry="0.5" transform="rotate(-169.588 77.0464 22.4722)" fill="#6F9444"/>
<ellipse cx="76.0594" cy="26.6824" rx="1.44635" ry="0.5" transform="rotate(-155.191 76.0594 26.6824)" fill="#6F9444"/>
<ellipse cx="74.0208" cy="30.7535" rx="1.44635" ry="0.5" transform="rotate(-140.793 74.0208 30.7535)" fill="#6F9444"/>
<ellipse cx="70.89" cy="34.3636" rx="1.44635" ry="0.5" transform="rotate(-126.395 70.89 34.3636)" fill="#6F9444"/>
<ellipse cx="66.9599" cy="37.0818" rx="1.44635" ry="0.5" transform="rotate(-111.998 66.9599 37.0818)" fill="#6F9444"/>
<ellipse cx="63.2709" cy="38.9514" rx="1.44635" ry="0.5" transform="rotate(-97.6001 63.2709 38.9514)" fill="#6F9444"/>
<ellipse cx="59.1776" cy="39.8451" rx="1.63836" ry="0.5" transform="rotate(-91.6616 59.1776 39.8451)" fill="#6F9444"/>
<ellipse cx="55.2048" cy="39.1227" rx="1.63836" ry="0.5" transform="rotate(-85.7232 55.2048 39.1227)" fill="#6F9444"/>
<ellipse cx="51.4841" cy="38.0362" rx="1.63836" ry="0.579713" transform="rotate(-71.011 51.4841 38.0362)" fill="#6F9444"/>
<ellipse cx="48.9754" cy="36.1364" rx="1.63836" ry="0.579713" transform="rotate(-56.2988 48.9754 36.1364)" fill="#6F9444"/>
<ellipse cx="46.9791" cy="34.077" rx="1.47658" ry="0.579713" transform="rotate(-41.5867 46.9791 34.077)" fill="#6F9444"/>
<ellipse cx="45.5924" cy="31.5216" rx="1.36458" ry="0.579713" transform="rotate(-26.8745 45.5924 31.5216)" fill="#6F9444"/>
<ellipse cx="44.0401" cy="28.3058" rx="1.36458" ry="0.579713" transform="rotate(-12.1623 44.0401 28.3058)" fill="#6F9444"/>
<ellipse cx="43.6758" cy="24.5776" rx="1.56697" ry="0.579713" transform="rotate(2.54987 43.6758 24.5776)" fill="#6F9444"/>
<ellipse cx="44.068" cy="20.8699" rx="1.56697" ry="0.579713" transform="rotate(17.262 44.068 20.8699)" fill="#6F9444"/>
<ellipse cx="45.389" cy="17.3835" rx="1.56697" ry="0.579713" transform="rotate(25.2277 45.389 17.3835)" fill="#6F9444"/>
<ellipse cx="46.2127" cy="14.7946" rx="1.56697" ry="0.579713" transform="rotate(33.1934 46.2127 14.7946)" fill="#6F9444"/>
<ellipse cx="49.9408" cy="19.1606" rx="1" ry="1.5" transform="rotate(15.1258 49.9408 19.1606)" fill="#0F3051"/>
<ellipse cx="55.9408" cy="16.1608" rx="1" ry="1.5" transform="rotate(59.6794 55.9408 16.1608)" fill="#6F9444"/>
<ellipse cx="66.2839" cy="26.7897" rx="1" ry="1.5" transform="rotate(104.233 66.2839 26.7897)" fill="#0F3051"/>
<ellipse cx="55.2166" cy="20.2527" rx="1" ry="1.5" transform="rotate(148.787 55.2166 20.2527)" fill="#0F3051"/>
<ellipse cx="61.2166" cy="22.2527" rx="1" ry="1.5" transform="rotate(148.787 61.2166 22.2527)" fill="#6F9444"/>
<ellipse cx="48.2166" cy="23.2527" rx="1" ry="1.5" transform="rotate(-171.757 48.2166 23.2527)" fill="#6F9444"/>
<ellipse cx="57.9032" cy="11.142" rx="1" ry="1.5" transform="rotate(-166.66 57.9032 11.142)" fill="#0F3051"/>
<ellipse cx="63.3861" cy="10.0959" rx="1" ry="1.5" transform="rotate(-122.106 63.3861 10.0959)" fill="#6F9444"/>
<path d="M62.0173 13.1874C62.7257 12.5352 63.7603 12.3083 64.9129 12.5373C66.0651 12.7663 67.2962 13.4485 68.3106 14.55C69.3248 15.6514 69.9032 16.9339 70.0368 18.1008C70.1704 19.2683 69.8592 20.2808 69.151 20.9332C68.4427 21.5856 67.4075 21.813 66.2547 21.584C65.1027 21.3549 63.872 20.6732 62.8577 19.572C61.8433 18.4706 61.2645 17.1876 61.1309 16.0205C60.9973 14.8528 61.309 13.8398 62.0173 13.1874Z" fill="#6F9444" stroke="#0F3051"/>
<path d="M50.1802 24.8088C50.9339 23.857 52.2084 23.3951 53.7378 23.4954C55.2649 23.5957 56.9947 24.2584 58.5438 25.4852C60.093 26.712 61.1344 28.2439 61.5819 29.7074C62.03 31.1731 61.8725 32.5195 61.1187 33.4713C60.3649 34.423 59.0905 34.8851 57.5611 34.7847C56.034 34.6844 54.3048 34.0209 52.7557 32.7941C51.2066 31.5673 50.1645 30.0362 49.717 28.5727C49.2688 27.107 49.4266 25.7607 50.1802 24.8088Z" fill="#6F9444" stroke="#0F3051"/>
<path d="M68.084 10.9517C71.5004 14.1782 72.8995 17.621 72.8555 20.9517M63.584 34.9517C68.8575 31.5395 72.7837 26.3952 72.8555 20.9517M66.584 26.4517C68.8689 26.9784 70.2486 25.6669 72.8555 20.9517" stroke="#0F3051" stroke-linecap="round"/>
<ellipse cx="63.6233" cy="34.9776" rx="1" ry="1.5" transform="rotate(178.488 63.6233 34.9776)" fill="#6F9444"/>
<path d="M37.084 18.9517V25.4517M34.084 21.9517H40.084" stroke="#6F9444" stroke-linecap="round"/>
</svg>
