<svg width="82" height="49" viewBox="0 0 82 49" fill="none" xmlns="http://www.w3.org/2000/svg">
<path d="M80.5 3.74535C80.5 3.74535 74.2511 3.62729 70 4.24514C62.4407 5.3438 58.5 11.7454 56 17.2451C53.5 22.7449 54.0907 30.0389 49 36.2454C46.9842 38.703 46.2425 39.9392 43.5 41.2451C39.9741 42.9241 33.5 42.2451 33.5 42.2451C33.5 42.2451 44.1352 43.2771 49 41.2454C53.461 39.3822 54.0606 37.344 55.5 33.7454C58.5 26.2454 59.3608 10.7297 70.5 7.74535C74.4609 6.68421 80.5 7.24536 80.5 7.24536" stroke="#6F9444" stroke-width="2" stroke-linecap="round"/>
<path d="M18.2683 24.2455L18.1586 19.7455L18 13.2455M18 13.2455H29.5M29.5 13.2455C29.5 13.2455 31.362 12.712 31.5 11.7455C31.6562 10.652 29.5 9.74546 29.5 9.74546H18.1586C18.1586 9.74546 16.3601 10.7405 16.5 11.7455C16.6143 12.566 18 13.2455 18 13.2455M18.2683 24.2455L18.3537 27.7455L18.5 33.7455C18.5 33.7455 18.5 47.7455 24 47.7455C29.5 47.7455 29.5 33.7455 29.5 33.7455V13.2455M18.1586 19.7455H23.5M18.2683 24.2455H21.5M18.3537 27.7455H22.5M16.5 11.7455H12.5L1.00003 2.24546M5.50003 1.24546C4.94774 1.79774 5.50003 3.24546 5.50003 3.24546L11.5 8.24546C11.5 8.24546 12.9477 8.79774 13.5 8.24546C14.0523 7.69318 13.5 6.24546 13.5 6.24546L7.50003 1.24546C7.50003 1.24546 6.05231 0.693175 5.50003 1.24546Z" stroke="#0F3051" stroke-width="2" stroke-linecap="round"/>
<path d="M33.5 46.2454H80.5" stroke="#0F3051" stroke-width="2" stroke-linecap="round"/>
<path d="M24 43.7454C21 43.7454 21 30.7454 21 30.7454H27C27 30.7454 27 43.7454 24 43.7454Z" fill="#6F9444"/>
</svg>
