<svg width="57" height="56" viewBox="0 0 57 56" fill="none" xmlns="http://www.w3.org/2000/svg">
<path d="M25.3171 30.4999C21.4391 29.7996 19.5743 29.8026 16.8171 30.4999C13.9304 32.7146 13.208 34.3068 12.8171 37.4999C12.4266 40.6241 11.8171 44.9998 11.8171 45.4999C11.8171 46 8.49071 49.2935 5.81714 50.4999" stroke="#6F9444" stroke-linecap="round"/>
<path d="M25.8171 31.5C24.8171 35.4999 21.8171 37.5 21.8171 37.5C21.8171 37.5 19.3171 38.5 13.8172 38.5L5.81719 39C5.81719 39 3.31713 39.9999 1.81713 42.5M28.8171 32.9999C29.0532 34.9622 29.0026 36.0582 28.3171 37.9999C27.2345 39.9236 26.497 40.7463 24.8171 41.4999C21.2722 42.1877 19.7749 42.8665 17.8171 44.4999C17.327 46.5227 17.3108 47.6198 17.8171 49.4999C17.4974 51.7618 16.6707 52.4979 14.8171 53.5" stroke="#6F9444" stroke-linecap="round"/>
<path d="M51.8171 15L32.8171 33C27.8104 34.0014 23.24 29.9255 23.664 24.8372L23.8171 23L42.3171 5.5C48.12 3.2989 53.8757 8.82439 51.9131 14.7122L51.8171 15Z" stroke="#0F3051"/>
<circle cx="36.8171" cy="34.5" r="1" fill="#0F3051"/>
<circle cx="39.8171" cy="31.5" r="1" fill="#0F3051"/>
<circle cx="43.8171" cy="28.5" r="1" fill="#0F3051"/>
<circle cx="46.8171" cy="24.5" r="1" fill="#0F3051"/>
<circle cx="50.8171" cy="21.5" r="1" fill="#0F3051"/>
<circle cx="53.8171" cy="17.5" r="1" fill="#0F3051"/>
<circle cx="55.8171" cy="11.5" r="1" fill="#0F3051"/>
<circle cx="53.8171" cy="6.5" r="1" fill="#0F3051"/>
<circle cx="50.8171" cy="3.5" r="1" fill="#0F3051"/>
<circle cx="45.8171" cy="1.5" r="1" fill="#0F3051"/>
<circle cx="40.8171" cy="2.5" r="1" fill="#0F3051"/>
<circle cx="37.8171" cy="5.5" r="1" fill="#0F3051"/>
<circle cx="33.8171" cy="8.5" r="1" fill="#0F3051"/>
<circle cx="30.8171" cy="12.5" r="1" fill="#0F3051"/>
<circle cx="26.8171" cy="15.5" r="1" fill="#0F3051"/>
<circle cx="23.8171" cy="19.5" r="1" fill="#0F3051"/>
<circle cx="21.8171" cy="23.5" r="1" fill="#0F3051"/>
<circle cx="21.8171" cy="27.5" r="1" fill="#0F3051"/>
<circle cx="31.8171" cy="35.5" r="1" fill="#0F3051"/>
<path d="M31.8171 33V35.5M36.8171 34.5L34.8171 31.5M39.8171 31.5L37.3171 28.5M43.8171 28.5L40.3171 26M46.8171 24.5L44.3171 22.5M50.8171 21.5L47.8171 19M53.8171 17.5L51.3171 15.5M55.8171 11.5H52.3171M53.8171 6.5L51.3171 8.5M50.8171 3.5L48.8171 6M45.8171 1.5V5M40.8171 2.5L42.3171 5.5M37.8171 5.5L39.8171 8M33.8171 8.5L36.3171 11M30.8171 12.5L32.3171 14.5M26.8171 15.5L29.3171 18M23.8171 19.5L25.3171 21M21.8171 23.5L23.8171 24M21.8171 27.5H23.8171" stroke="#0F3051" stroke-linecap="round"/>
<ellipse cx="29.4173" cy="28.7996" rx="2.5" ry="1" transform="rotate(36.8539 29.4173 28.7996)" fill="#0F3051"/>
<ellipse cx="28.8273" cy="24.1836" rx="2.5" ry="1" transform="rotate(63.5089 28.8273 24.1836)" fill="#0F3051"/>
<ellipse cx="32.8243" cy="27.0029" rx="2.5" ry="1" transform="rotate(90.1639 32.8243 27.0029)" fill="#0F3051"/>
<ellipse cx="31.8375" cy="21.1823" rx="2.5" ry="1" transform="rotate(116.819 31.8375 21.1823)" fill="#0F3051"/>
<ellipse cx="36.4213" cy="22.7916" rx="2.5" ry="1" transform="rotate(143.474 36.4213 22.7916)" fill="#0F3051"/>
<ellipse cx="36.4515" cy="18.9137" rx="2.5" ry="1" transform="rotate(170.129 36.4515 18.9137)" fill="#0F3051"/>
<ellipse cx="37.4994" cy="16.1793" rx="2.5" ry="1" transform="rotate(-163.216 37.4994 16.1793)" fill="#0F3051"/>
<ellipse cx="42.8824" cy="13.189" rx="0.481993" ry="0.982468" transform="rotate(102.891 42.8824 13.189)" fill="#F8FEF2"/>
<path d="M44.2466 7.61485C45.9293 7.67847 47.2078 9.99725 47.1021 12.7936C46.9963 15.5899 45.5465 17.8054 43.8638 17.7418C42.1812 17.678 40.9026 15.3593 41.0083 12.5631C41.1141 9.76695 42.564 7.55144 44.2466 7.61485ZM43.1802 15.2799C42.8501 14.8493 42.411 14.6316 42.1997 14.7936C41.9887 14.9556 42.0847 15.4354 42.4146 15.8658C42.7445 16.2963 43.1837 16.5147 43.395 16.3531C43.6063 16.1912 43.5101 15.7105 43.1802 15.2799ZM45.1929 15.2115C44.8184 14.8188 44.3582 14.6489 44.1655 14.8326C43.9732 15.0165 44.1213 15.484 44.4956 15.8766C44.87 16.269 45.3294 16.4381 45.522 16.2545C45.7144 16.0708 45.567 15.6041 45.1929 15.2115ZM46.1724 13.0543C45.7244 12.7482 45.2396 12.6783 45.0894 12.8981C44.9392 13.1178 45.1804 13.5441 45.6284 13.8502C46.0764 14.1563 46.5613 14.2262 46.7114 14.0065C46.8616 13.7867 46.6203 13.3604 46.1724 13.0543ZM45.5347 10.8365C45.3442 10.6506 44.8824 10.8146 44.5034 11.2027C44.1246 11.5909 43.9715 12.0567 44.1616 12.2428C44.3521 12.4287 44.8139 12.2647 45.1929 11.8766C45.5718 11.4883 45.7251 11.0225 45.5347 10.8365ZM43.7886 10.9303C43.6687 10.6928 43.1792 10.698 42.6948 10.942C42.2103 11.1862 41.9139 11.5773 42.0337 11.815C42.1536 12.0526 42.644 12.0474 43.1284 11.8033C43.613 11.5591 43.9084 11.168 43.7886 10.9303ZM43.7954 8.59044C43.2554 8.64047 42.8377 8.89583 42.8618 9.16075C42.8864 9.4258 43.344 9.60044 43.8843 9.5504C44.4245 9.50035 44.8422 9.24509 44.8179 8.98009C44.7933 8.71503 44.3357 8.54039 43.7954 8.59044Z" fill="#0F3051"/>
<ellipse cx="41.0487" cy="21.0833" rx="2.5" ry="1" transform="rotate(-84.5819 41.0487 21.0833)" fill="#0F3051"/>
</svg>
