<svg width="45" height="42" viewBox="0 0 45 42" fill="none" xmlns="http://www.w3.org/2000/svg">
<path d="M12.6226 10.0275C10.17 6.813 9.94341 5.07664 11.6226 2.02753L15.1226 8.02753C20.6311 7.08578 23.8083 7.10248 29.6226 8.02753L32.6226 2.02753C34.2464 4.4134 34.9078 5.86424 32.6226 10.0275C32.0289 11.0246 32.1494 11.717 32.6226 13.0275C35.3553 12.6168 36.8891 12.6072 39.6226 13.0275C41.5544 13.6142 42.5356 14.1042 43.6226 16.0275C42.7609 17.2322 41.8749 17.8454 39.6226 18.5275C37.4692 19.0294 36.0402 19.0246 33.1226 18.5275C32.5916 23.442 32.1695 25.941 29.6226 30.0275V36.5275C28.6915 38.5488 27.9732 39.3866 26.1226 40.0275H18.1226C16.4067 39.3219 15.7601 38.6587 15.1226 37.0275V30.0275C12.8803 26.5813 12.03 23.907 11.1226 18.0275C8.67612 18.8906 7.25508 19.0124 4.62261 18.5275C-0.126347 17.2813 -0.288018 16.1083 4.62261 13.0275C6.90095 12.2309 8.42733 12.223 11.6226 13.0275C12.7348 11.9925 12.9257 11.33 12.6226 10.0275Z" stroke="#0F3051" stroke-width="2" stroke-linecap="round"/>
<ellipse cx="25.3897" cy="35.5785" rx="1.23843" ry="0.5" transform="rotate(-12.3578 25.3897 35.5785)" fill="#6F9444"/>
<ellipse cx="19.9381" cy="35.6005" rx="1.32382" ry="0.5" transform="rotate(13.0234 19.9381 35.6005)" fill="#6F9444"/>
<ellipse cx="18.1226" cy="17.0275" rx="1.5" ry="1" transform="rotate(-100.949 18.1226 17.0275)" fill="#6F9444"/>
<ellipse cx="26.1226" cy="17.0275" rx="1.5" ry="1" transform="rotate(-75.7298 26.1226 17.0275)" fill="#6F9444"/>
</svg>
