<svg width="78" height="51" viewBox="0 0 78 51" fill="none" xmlns="http://www.w3.org/2000/svg">
<path d="M57.6741 1.00024C58.6747 5.00024 57.9715 8.98531 68.1747 14.0002C78.378 19.0152 78.6747 30.5002 69.6741 35.0002M64.1747 38.5002C60.2652 41.4377 58.8771 43.8895 57.6741 49.5002" stroke="#6F9444" stroke-width="2" stroke-linecap="round"/>
<path d="M76.1747 1.00024C75.4797 7.55145 74.4242 10.2938 70.1747 12.5002M64.6747 15.0002C57.6747 18.0002 55.1669 31.2308 66.6747 36.5002C78.1825 41.7697 76.1747 49.5002 76.1747 49.5002M61.1747 47.0002H72.1747M61.1747 25.5002H72.1747M61.6747 3.50024H72.1747" stroke="#0F3051" stroke-width="2" stroke-linecap="round"/>
<path d="M64.1747 7.50028H69.6747M62.1747 21.5003H72.1747M63.1747 30.5003H70.1747M64.1747 42.5003H69.6747M50.8897 21.5003C50.8343 23.8882 50.5906 26.5259 50.1747 29.0003C47.4881 44.9844 11.095 52.9692 2.6747 38.0003C1.22218 35.4181 0.771547 32.995 1.1037 30.5003C1.31883 28.8845 1.86234 27.2387 2.6747 25.5003C5.3825 19.7056 16.6747 17.0003 16.6747 17.0003C16.6747 17.0003 23.26 6.45258 30.1747 4.50028C34.3088 3.33304 37.1764 2.92953 41.1747 4.50028C46.0648 6.42141 49.1746 12.0003 50.1747 14.5003C50.7316 15.8925 50.9593 18.4991 50.8897 21.5003ZM1.1037 30.5003C11.6747 44.0002 38.6747 43.5002 50.8897 21.5003" stroke="#0F3051" stroke-width="2" stroke-linecap="round"/>
<ellipse cx="35.3314" cy="15.9643" rx="3.5" ry="1.57548" transform="rotate(-6.54181 35.3314 15.9643)" fill="#0F3051"/>
<path d="M31.1746 7.50179C40.6705 5.13045 48.115 9.1805 46.1746 21.0018C43.505 27.0679 39.9769 30.8344 31.1746 35.0008C31.1409 34.9764 16.6746 24.4964 16.6746 21.0018C16.6753 19.8867 20.1527 19.0073 20.1746 19.0018C24.2174 13.4601 25.1747 9.00015 31.1746 7.50179ZM41.3465 15.4305C41.0924 13.2145 38.2739 11.7174 35.0516 12.0868C31.8292 12.4563 29.4226 14.5524 29.6766 16.7684C29.9307 18.9845 32.749 20.4817 35.9715 20.1121C39.1939 19.7426 41.6005 17.6466 41.3465 15.4305Z" fill="#6F9444"/>
<path d="M26.6748 33.5002L14.6747 22.5002C3.67467 22.5002 2.67474 31.0002 14.1748 35.5002C19.7392 36.5209 22.463 36.5054 26.6748 35.5002C27.8915 34.7194 27.7208 34.2815 26.6748 33.5002Z" fill="#6F9444"/>
</svg>
