<svg width="66" height="67" viewBox="0 0 66 67" fill="none" xmlns="http://www.w3.org/2000/svg">
<path d="M20.9187 45.75V49.25C20.9187 49.9404 20.3591 50.5 19.6687 50.5C18.9784 50.5 18.4187 49.9404 18.4187 49.25V45.75C18.4187 45.0596 18.9784 44.5 19.6687 44.5C20.3591 44.5 20.9187 45.0596 20.9187 45.75Z" stroke="#6F9444" stroke-width="2" stroke-linecap="round"/>
<path d="M27.4187 56.25V59.75C27.4187 60.4404 26.8591 61 26.1687 61C25.4784 61 24.9187 60.4404 24.9187 59.75V56.25C24.9187 55.5596 25.4784 55 26.1687 55C26.8591 55 27.4187 55.5596 27.4187 56.25Z" stroke="#6F9444" stroke-width="2" stroke-linecap="round"/>
<path d="M40.4187 56.25V59.75C40.4187 60.4404 39.8591 61 39.1687 61C38.4784 61 37.9187 60.4404 37.9187 59.75V56.25C37.9187 55.5596 38.4784 55 39.1687 55C39.8591 55 40.4187 55.5596 40.4187 56.25Z" stroke="#6F9444" stroke-width="2" stroke-linecap="round"/>
<path d="M33.4187 45.25V48.75C33.4187 49.4404 32.8591 50 32.1687 50C31.4784 50 30.9187 49.4404 30.9187 48.75V45.25C30.9187 44.5596 31.4784 44 32.1687 44C32.8591 44 33.4187 44.5596 33.4187 45.25Z" stroke="#6F9444" stroke-width="2" stroke-linecap="round"/>
<path d="M46.4187 45.25V48.75C46.4187 49.4404 45.8591 50 45.1687 50C44.4784 50 43.9187 49.4404 43.9187 48.75V45.25C43.9187 44.5596 44.4784 44 45.1687 44C45.8591 44 46.4187 44.5596 46.4187 45.25Z" stroke="#6F9444" stroke-width="2" stroke-linecap="round"/>
<path d="M8.91873 52.75L9.91637 61.5624C10.2025 64.0901 12.3408 66 14.8846 66H49.9528C52.4966 66 54.6349 64.0901 54.9211 61.5624L56.0366 51.7089M8.16873 46.125L7.41873 39.5H11.9187M16.4187 39.5H48.4187M52.9187 39.5H57.4187L56.7395 45.5" stroke="#0F3051" stroke-width="2" stroke-linecap="round"/>
<path d="M7.41873 39.5H7.16873C5.37381 39.5 3.91873 38.0449 3.91873 36.25C3.91873 34.4551 5.37381 33 7.16873 33H58.1687C59.9637 33 61.4187 34.4551 61.4187 36.25C61.4187 38.0449 59.9637 39.5 58.1687 39.5H57.4187" stroke="#0F3051" stroke-width="2" stroke-linecap="round"/>
<path d="M47.9999 38.7659L60.7485 59.5887C61.3654 60.5962 62.7328 60.8216 63.6404 60.0653C64.3756 59.4526 64.5531 58.3949 64.0582 57.5757L51.4326 36.6781C50.8687 35.7448 49.6632 35.4317 48.7165 35.9727C47.7325 36.535 47.4081 37.7994 47.9999 38.7659Z" stroke="#0F3051" stroke-width="2" stroke-linecap="round"/>
<path d="M17.3376 38.2659L4.58893 59.0887C3.97205 60.0962 2.60465 60.3216 1.69708 59.5653C0.961878 58.9526 0.784342 57.8949 1.27923 57.0757L13.9049 36.1781C14.4688 35.2448 15.6742 34.9317 16.621 35.4727C17.6049 36.035 17.9293 37.2994 17.3376 38.2659Z" stroke="#0F3051" stroke-width="2" stroke-linecap="round"/>
<path d="M35.4187 33V29.7155C35.4187 28.6037 35.7893 27.5235 36.472 26.6458L38.9187 23.5M54.4187 33V29.7155C54.4187 28.6037 54.0481 27.5235 53.3655 26.6458L50.9187 23.5" stroke="#0F3051" stroke-width="2" stroke-linecap="round"/>
<path d="M28.9187 16C32.0968 15.5311 32.9208 14.0426 32.9187 9.5M32.9187 9.5H39.9187M44.4187 18C44.4187 16.5 38.4187 15 39.9187 9.5L40.3929 5.46918C40.6728 3.09024 38.8141 1 36.4187 1C34.0234 1 32.1646 3.09024 32.4445 5.46918L32.9187 9.5" stroke="#0F3051" stroke-width="2" stroke-linecap="round"/>
<path d="M48.4187 23.5H41.4187C40.038 23.5 38.9187 22.3807 38.9187 21C38.9187 19.6193 40.038 18.5 41.4187 18.5H48.4187C49.7994 18.5 50.9187 19.6193 50.9187 21C50.9187 22.3807 49.7994 23.5 48.4187 23.5Z" stroke="#6F9444" stroke-width="2" stroke-linecap="round"/>
<path d="M20.9188 26.0005C13.9187 22 14.9187 16.5 20.9188 18.5005M20.9188 18.5005L22.9188 25.5005M20.9188 18.5005C18.9187 7.49994 29.9187 7.49994 28.9187 18.0008M28.9187 18.0008L26.9187 25.5005M28.9187 18.0008C34.4187 17.5 34.9187 21.5 28.9187 26.0005" stroke="#6F9444" stroke-width="2" stroke-linecap="round"/>
<path d="M47.4187 27.9989H53.9187M17.4187 32.9989C17.4187 22.5 31.9187 22.4996 31.9187 32.9989" stroke="#0F3051" stroke-width="2" stroke-linecap="round"/>
<path d="M3.91873 18.0024C12.3878 15.4367 13.378 16.1116 5.91873 22.5024M8.91873 26C17.3878 23.4343 18.378 24.1092 10.9187 30.5" stroke="#6F9444" stroke-width="2" stroke-linecap="round"/>
<path d="M11.4187 33.0002L1.83007 14.3024C1.55803 13.7719 1.37079 13.1958 1.34916 12.6C1.06722 4.83535 9.27053 0.450511 15.4933 6.56253C15.7805 6.84463 16.0176 7.17814 16.2131 7.53006L18.4187 11.5002" stroke="#0F3051" stroke-width="2" stroke-linecap="round"/>
</svg>
