<svg width="102" height="55" viewBox="0 0 102 55" fill="none" xmlns="http://www.w3.org/2000/svg">
<path d="M12.6485 12C3.64852 23.5 10.6485 39.5 22.6485 46" stroke="#0F3051" stroke-width="2"/>
<path d="M43.8414 12C52.8414 23.5 45.8414 39.5 33.8414 46" stroke="#0F3051" stroke-width="2"/>
<circle cx="81.6485" cy="20.5" r="13" stroke="#6F9444"/>
<path d="M75.1485 20.5L79.1485 25.5L89.6485 15" stroke="#6F9444" stroke-width="3"/>
<path d="M81.1485 38.5507C78.8953 38.4172 76.5082 37.8829 73.6485 37C72.7627 35.9935 71.7064 35.3634 70.6485 34.826C68.548 33.7589 66.4409 33.0572 65.6485 30.5C65.0128 28.4484 66.1931 27.0541 65.6485 25C62.4013 21.9838 62.6467 20.2168 65.1485 17C65.774 16.6788 63.4833 12.2101 65.6485 11C67.8137 9.78996 70.0359 8.02679 72.1485 5.00004C74.5176 3.5546 75.8281 3.32886 78.1485 3.50004C81.5705 1.53356 83.4384 1.32248 86.6485 4.00004C91.6541 3.23925 93.2411 5.19078 95.6485 9.50004C99.1584 11.1105 99.4894 12.872 99.1485 16.5C102.629 20.6463 100.232 21.7168 98.6485 24C97.3087 25.9323 98.7311 27.9888 98.1485 30C96.5882 32.7736 95.57 34.0566 94.1485 34.9547M70.6485 34.826L64.6485 47C70.7334 45.0268 72.9311 45.9981 74.6485 51.5L81.1485 38.5507M81.1485 38.5507C81.889 38.5946 82.615 38.5952 83.3385 38.5507M83.3385 38.5507C86.3592 38.3649 89.3375 37.3929 93.1485 35.5C93.5077 35.3289 93.8377 35.151 94.1485 34.9547M83.3385 38.5507L89.1485 51.5C91.7605 45.8926 94.0426 44.8325 99.6485 47L94.1485 34.9547" stroke="#6F9444" stroke-width="2"/>
<path d="M9.64852 4.75C9.73242 4.75 9.87995 4.7879 10.087 4.99805C10.2967 5.21089 10.5201 5.55726 10.7237 6.0459C11.1296 7.01992 11.3985 8.41742 11.3985 10C11.3985 11.5826 11.1296 12.9801 10.7237 13.9541C10.5201 14.4427 10.2967 14.7891 10.087 15.002C9.87995 15.2121 9.73242 15.25 9.64852 15.25C9.56461 15.25 9.41708 15.2121 9.21004 15.002C9.00036 14.7891 8.77692 14.4427 8.57332 13.9541C8.16748 12.9801 7.89852 11.5826 7.89852 10C7.89852 8.41742 8.16748 7.01992 8.57332 6.0459C8.77692 5.55726 9.00036 5.21089 9.21004 4.99805C9.41708 4.7879 9.56461 4.75 9.64852 4.75Z" fill="#6F9444" stroke="#0F3051" stroke-width="1.5"/>
<path d="M46.8414 4.75C46.7575 4.75 46.61 4.7879 46.4029 4.99805C46.1933 5.21089 45.9698 5.55726 45.7662 6.0459C45.3604 7.01992 45.0914 8.41742 45.0914 10C45.0914 11.5826 45.3604 12.9801 45.7662 13.9541C45.9698 14.4427 46.1933 14.7891 46.4029 15.002C46.61 15.2121 46.7575 15.25 46.8414 15.25C46.9253 15.25 47.0729 15.2121 47.2799 15.002C47.4896 14.7891 47.713 14.4427 47.9166 13.9541C48.3225 12.9801 48.5914 11.5826 48.5914 10C48.5914 8.41742 48.3225 7.01992 47.9166 6.0459C47.713 5.55726 47.4896 5.21089 47.2799 4.99805C47.0729 4.7879 46.9253 4.75 46.8414 4.75Z" fill="#6F9444" stroke="#0F3051" stroke-width="1.5"/>
<path d="M17.7665 1.74233C17.7969 1.75755 17.9022 1.82843 17.9807 2.13246C18.0587 2.43455 18.082 2.87566 18.0184 3.44661C17.8918 4.58227 17.4387 6.06775 16.6651 7.61266C15.8915 9.15754 14.9734 10.4103 14.1399 11.1919C13.721 11.5848 13.3537 11.8305 13.0651 11.949C12.7748 12.0682 12.6547 12.0264 12.6244 12.0112C12.5942 11.996 12.4888 11.925 12.4102 11.6211C12.3322 11.319 12.308 10.8774 12.3717 10.3065C12.4983 9.17085 12.9523 7.68572 13.7259 6.14086C14.4994 4.59608 15.4167 3.34287 16.2501 2.56117C16.6692 2.16818 17.0372 1.92303 17.3258 1.80452C17.6164 1.68522 17.7363 1.72718 17.7665 1.74233Z" fill="#6F9444" stroke="#0F3051" stroke-width="1.5"/>
<path d="M38.7234 1.74233C38.6931 1.75755 38.5877 1.82843 38.5092 2.13246C38.4312 2.43455 38.4079 2.87566 38.4716 3.44661C38.5982 4.58227 39.0512 6.06775 39.8249 7.61266C40.5985 9.15754 41.5165 10.4103 42.35 11.1919C42.769 11.5848 43.1363 11.8305 43.4248 11.949C43.7151 12.0682 43.8352 12.0264 43.8655 12.0112C43.8958 11.996 44.0012 11.925 44.0797 11.6211C44.1577 11.319 44.1819 10.8774 44.1182 10.3065C43.9916 9.17085 43.5376 7.68572 42.7641 6.14086C41.9905 4.59608 41.0732 3.34287 40.2398 2.56117C39.8207 2.16818 39.4527 1.92303 39.1641 1.80452C38.8735 1.68522 38.7537 1.72718 38.7234 1.74233Z" fill="#6F9444" stroke="#0F3051" stroke-width="1.5"/>
<path d="M4.75809 12.4795C4.83796 12.4538 4.99002 12.4447 5.25145 12.5814C5.51622 12.7198 5.83496 12.9812 6.17837 13.384C6.8629 14.187 7.54675 15.4351 8.03121 16.9417C8.51567 18.4483 8.68743 19.8611 8.59924 20.9126C8.55499 21.4401 8.44831 21.8382 8.31385 22.105C8.18108 22.3684 8.05224 22.4497 7.97236 22.4754C7.89249 22.5011 7.74043 22.5101 7.479 22.3735C7.21423 22.235 6.89549 21.9737 6.55208 21.5708C5.86755 20.7678 5.1837 19.5197 4.69924 18.0131C4.21478 16.5065 4.04302 15.0938 4.13121 14.0423C4.17546 13.5148 4.28214 13.1166 4.4166 12.8498C4.54937 12.5864 4.67822 12.5051 4.75809 12.4795Z" fill="#6F9444" stroke="#0F3051" stroke-width="1.5"/>
<path d="M51.7318 12.4795C51.652 12.4538 51.4999 12.4447 51.2385 12.5814C50.9737 12.7198 50.655 12.9812 50.3116 13.384C49.627 14.187 48.9432 15.4351 48.4587 16.9417C47.9743 18.4483 47.8025 19.8611 47.8907 20.9126C47.9349 21.4401 48.0416 21.8382 48.1761 22.105C48.3089 22.3684 48.4377 22.4497 48.5176 22.4754C48.5974 22.5011 48.7495 22.5101 49.0109 22.3735C49.2757 22.235 49.5944 21.9737 49.9379 21.5708C50.6224 20.7678 51.3062 19.5197 51.7907 18.0131C52.2752 16.5065 52.4469 15.0938 52.3587 14.0423C52.3145 13.5148 52.2078 13.1166 52.0733 12.8498C51.9406 12.5864 51.8117 12.5051 51.7318 12.4795Z" fill="#6F9444" stroke="#0F3051" stroke-width="1.5"/>
<path d="M2.46859 21.3349C2.53676 21.286 2.67874 21.2308 2.96946 21.2809C3.2639 21.3317 3.64734 21.4829 4.09758 21.7613C4.99507 22.3162 6.02816 23.295 6.95056 24.581C7.87297 25.867 8.46895 27.1593 8.70688 28.1873C8.82624 28.703 8.84656 29.1147 8.80023 29.4099C8.75448 29.7013 8.65669 29.8181 8.58851 29.867C8.52033 29.9159 8.37836 29.9711 8.08764 29.921C7.7932 29.8703 7.40976 29.7191 6.95951 29.4407C6.06203 28.8857 5.02894 27.9069 4.10653 26.621C3.18413 25.335 2.58815 24.0426 2.35022 23.0146C2.23086 22.4989 2.21054 22.0872 2.25686 21.7921C2.30262 21.5006 2.40041 21.3838 2.46859 21.3349Z" fill="#6F9444" stroke="#0F3051" stroke-width="1.5"/>
<path d="M54.0213 21.3349C53.9532 21.286 53.8112 21.2308 53.5205 21.2809C53.226 21.3317 52.8426 21.4829 52.3923 21.7613C51.4949 22.3162 50.4618 23.295 49.5394 24.581C48.617 25.867 48.021 27.1593 47.7831 28.1873C47.6637 28.703 47.6434 29.1147 47.6897 29.4099C47.7354 29.7013 47.8332 29.8181 47.9014 29.867C47.9696 29.9159 48.1116 29.9711 48.4023 29.921C48.6967 29.8703 49.0802 29.7191 49.5304 29.4407C50.4279 28.8857 51.461 27.9069 52.3834 26.621C53.3058 25.335 53.9018 24.0426 54.1397 23.0146C54.2591 22.4989 54.2794 22.0872 54.2331 21.7921C54.1873 21.5006 54.0895 21.3838 54.0213 21.3349Z" fill="#6F9444" stroke="#0F3051" stroke-width="1.5"/>
<path d="M2.99984 30.4661C3.04978 30.3987 3.16804 30.3027 3.46014 30.2614C3.75597 30.2196 4.1673 30.2461 4.68115 30.3733C5.70542 30.6269 6.98855 31.2425 8.26034 32.1843C9.53213 33.1262 10.4951 34.1741 11.0363 35.0799C11.3078 35.5343 11.4532 35.92 11.4994 36.2152C11.5451 36.5066 11.4878 36.6478 11.4378 36.7152C11.3879 36.7826 11.2696 36.8786 10.9775 36.9199C10.6817 36.9617 10.2704 36.9352 9.75651 36.808C8.73224 36.5544 7.44911 35.9389 6.17732 34.997C4.90553 34.0551 3.94255 33.0072 3.40135 32.1014C3.12985 31.647 2.98448 31.2613 2.93822 30.9661C2.89256 30.6747 2.94991 30.5336 2.99984 30.4661Z" fill="#6F9444" stroke="#0F3051" stroke-width="1.5"/>
<path d="M53.4901 30.4661C53.4402 30.3987 53.3219 30.3027 53.0298 30.2614C52.734 30.2196 52.3226 30.2461 51.8088 30.3733C50.7845 30.6269 49.5014 31.2425 48.2296 32.1843C46.9578 33.1262 45.9948 34.1741 45.4536 35.0799C45.1821 35.5343 45.0367 35.92 44.9905 36.2152C44.9448 36.5066 45.0022 36.6478 45.0521 36.7152C45.102 36.7826 45.2203 36.8786 45.5124 36.9199C45.8082 36.9617 46.2196 36.9352 46.7334 36.808C47.7577 36.5544 49.0408 35.9389 50.3126 34.997C51.5844 34.0551 52.5474 33.0072 53.0886 32.1014C53.3601 31.647 53.5055 31.2613 53.5517 30.9661C53.5974 30.6747 53.54 30.5336 53.4901 30.4661Z" fill="#6F9444" stroke="#0F3051" stroke-width="1.5"/>
<path d="M6.30085 38.9964C6.32775 38.9169 6.41094 38.7893 6.67637 38.6606C6.9452 38.5302 7.34492 38.4296 7.87303 38.3934C8.92575 38.3212 10.3357 38.5144 11.8348 39.0218C13.3338 39.5291 14.5714 40.2319 15.3639 40.9285C15.7615 41.278 16.0179 41.6007 16.1523 41.8675C16.285 42.131 16.2736 42.2829 16.2467 42.3624C16.2198 42.4419 16.1366 42.5695 15.8712 42.6982C15.6024 42.8286 15.2026 42.9292 14.6745 42.9654C13.6218 43.0376 12.2118 42.8444 10.7128 42.337C9.21371 41.8297 7.97619 41.1269 7.18368 40.4303C6.7861 40.0808 6.52964 39.7581 6.39524 39.4912C6.26256 39.2278 6.27395 39.0759 6.30085 38.9964Z" fill="#6F9444" stroke="#0F3051" stroke-width="1.5"/>
<path d="M50.1891 38.9964C50.1622 38.9169 50.079 38.7893 49.8136 38.6606C49.5447 38.5302 49.145 38.4296 48.6169 38.3934C47.5642 38.3212 46.1542 38.5144 44.6552 39.0218C43.1561 39.5291 41.9186 40.2319 41.1261 40.9285C40.7285 41.278 40.472 41.6007 40.3376 41.8675C40.2049 42.131 40.2163 42.2829 40.2432 42.3624C40.2701 42.4419 40.3533 42.5695 40.6187 42.6982C40.8876 42.8286 41.2873 42.9292 41.8154 42.9654C42.8681 43.0376 44.2781 42.8444 45.7772 42.337C47.2762 41.8297 48.5137 41.1269 49.3063 40.4303C49.7038 40.0808 49.9603 39.7581 50.0947 39.4912C50.2274 39.2278 50.216 39.0759 50.1891 38.9964Z" fill="#6F9444" stroke="#0F3051" stroke-width="1.5"/>
<path d="M12.0547 46.1064C12.056 46.0225 12.0961 45.8756 12.3094 45.6718C12.5254 45.4654 12.8751 45.2472 13.3668 45.0511C14.3469 44.6601 15.7483 44.4124 17.3307 44.4365C18.9131 44.4606 20.3063 44.7508 21.2741 45.1714C21.7596 45.3824 22.1025 45.6111 22.3121 45.824C22.5191 46.0342 22.5547 46.1823 22.5535 46.2662C22.5522 46.3501 22.512 46.497 22.2988 46.7009C22.0828 46.9073 21.733 47.1254 21.2413 47.3216C20.2613 47.7125 18.8598 47.9602 17.2774 47.9361C15.695 47.912 14.3018 47.6218 13.3341 47.2012C12.8486 46.9902 12.5057 46.7615 12.296 46.5486C12.089 46.3384 12.0534 46.1903 12.0547 46.1064Z" fill="#6F9444" stroke="#0F3051" stroke-width="1.5"/>
<path d="M44.4353 46.1064C44.434 46.0225 44.3938 45.8756 44.1806 45.6718C43.9646 45.4654 43.6148 45.2472 43.1231 45.0511C42.1431 44.6601 40.7416 44.4124 39.1592 44.4365C37.5768 44.4606 36.1836 44.7508 35.2159 45.1714C34.7304 45.3824 34.3874 45.6111 34.1778 45.824C33.9708 46.0342 33.9352 46.1823 33.9365 46.2662C33.9377 46.3501 33.9779 46.497 34.1912 46.7009C34.4072 46.9073 34.7569 47.1254 35.2486 47.3216C36.2287 47.7125 37.6301 47.9602 39.2125 47.9361C40.7949 47.912 42.1881 47.6218 43.1559 47.2012C43.6413 46.9902 43.9843 46.7615 44.1939 46.5486C44.4009 46.3384 44.4365 46.1903 44.4353 46.1064Z" fill="#6F9444" stroke="#0F3051" stroke-width="1.5"/>
<path d="M22.1485 46C27.1485 46.5 29.1485 47 34.1485 46" stroke="#0F3051" stroke-width="2" stroke-linecap="round"/>
</svg>
