<svg width="102" height="50" viewBox="0 0 102 50" fill="none" xmlns="http://www.w3.org/2000/svg">
<ellipse cx="34.5" cy="15.9999" rx="5.5" ry="4" transform="rotate(15.227 34.5 15.9999)" fill="#6F9444"/>
<path d="M33 32.5V23.5M30.5 35H21.5M35.5 35H44.5M31 33L25.5 26.5M34.5 32.5L40.5 26.5M33 37.5V46.5M31.5 37L25.5 43M34.5 37L40.5 43M27.5 13C29.4632 11.7297 31.0592 11.3193 33 11.5C35 11.6862 35.5643 12.8331 37 13C39.4436 13.284 40.4992 13.0057 42 12M27.5 18C26.5 11.5 29 8 34.5 7.5V1.5C34.5 1.5 35.296 0.5 36 0.5C36.704 0.5 37.5 1.5 37.5 1.5V7.5C45.1281 9.99134 43.6702 19.6777 39 21.5L30 21L27.5 18Z" stroke="#0F3051" stroke-linecap="round"/>
<mask id="path-3-inside-1_141_180" fill="white">
<path d="M30.3382 20.5137C28.6492 17.9128 26.2614 15.8405 23.4487 14.5345C20.6359 13.2285 17.512 12.7416 14.4352 13.1297C11.3584 13.5178 8.45327 14.7651 6.05289 16.7286C3.6525 18.6922 1.85407 21.2924 0.863813 24.2313C-0.126448 27.1701 -0.268448 30.3285 0.454095 33.3443C1.17664 36.3602 2.73447 39.1113 4.94897 41.2823C7.16346 43.4534 9.94496 44.9563 12.9745 45.619C16.0041 46.2816 19.1591 46.077 22.0777 45.0287L21.5619 43.5928C18.9132 44.5442 16.0499 44.7299 13.3005 44.1285C10.5511 43.5272 8.02677 42.1632 6.01704 40.1929C4.00731 38.2226 2.59352 35.7258 1.93779 32.9889C1.28205 30.2519 1.41092 27.3855 2.30962 24.7184C3.20831 22.0514 4.84045 19.6915 7.01888 17.9095C9.19731 16.1276 11.8338 14.9956 14.6261 14.6434C17.4184 14.2912 20.2535 14.7331 22.8062 15.9183C25.3589 17.1035 27.5258 18.9842 29.0586 21.3446L30.3382 20.5137Z"/>
</mask>
<path d="M30.3382 20.5137C28.6492 17.9128 26.2614 15.8405 23.4487 14.5345C20.6359 13.2285 17.512 12.7416 14.4352 13.1297C11.3584 13.5178 8.45327 14.7651 6.05289 16.7286C3.6525 18.6922 1.85407 21.2924 0.863813 24.2313C-0.126448 27.1701 -0.268448 30.3285 0.454095 33.3443C1.17664 36.3602 2.73447 39.1113 4.94897 41.2823C7.16346 43.4534 9.94496 44.9563 12.9745 45.619C16.0041 46.2816 19.1591 46.077 22.0777 45.0287L21.5619 43.5928C18.9132 44.5442 16.0499 44.7299 13.3005 44.1285C10.5511 43.5272 8.02677 42.1632 6.01704 40.1929C4.00731 38.2226 2.59352 35.7258 1.93779 32.9889C1.28205 30.2519 1.41092 27.3855 2.30962 24.7184C3.20831 22.0514 4.84045 19.6915 7.01888 17.9095C9.19731 16.1276 11.8338 14.9956 14.6261 14.6434C17.4184 14.2912 20.2535 14.7331 22.8062 15.9183C25.3589 17.1035 27.5258 18.9842 29.0586 21.3446L30.3382 20.5137Z" stroke="#0F3051" stroke-width="2" mask="url(#path-3-inside-1_141_180)"/>
<path d="M5 26.0005C6.81062 21.7647 8.40224 20.2112 12 18.5005M5 29.0005C4.7797 30.2065 4.71606 30.9276 5 32.5005M18.5 13.0005C18.6903 12.4644 18.8785 11.9654 19.0672 11.5005M26 5.00048C22.6781 5.87326 20.9668 7.19507 19.3893 10.7414M19.0672 11.5005C13.0479 11.8257 10.5128 10.7391 8.5 5.00048C13.0365 3.77062 15.4444 4.74016 19.3893 10.7414M19.0672 11.5005C19.1743 11.2367 19.2815 10.9839 19.3893 10.7414" stroke="#0F3051" stroke-linecap="round"/>
<circle cx="33" cy="35" r="14" stroke="#6F9444" stroke-width="2"/>
<circle cx="33" cy="35" r="11.5" stroke="#0F3051"/>
<circle cx="33" cy="35" r="2.5" stroke="#0F3051"/>
<path d="M64.2939 13.7881V22.2109L57 26.4229L49.7061 22.2109V13.7881L57 9.57617L64.2939 13.7881Z" fill="#6F9444" stroke="#0F3051"/>
<path d="M79.2939 13.7881V22.2109L72 26.4229L64.7061 22.2109V13.7881L72 9.57617L79.2939 13.7881Z" stroke="#0F3051"/>
<path d="M93.2939 13.7881V22.2109L86 26.4229L78.7061 22.2109V13.7881L86 9.57617L93.2939 13.7881Z" stroke="#0F3051"/>
<path d="M86.2939 26.7881V35.2109L79 39.4229L71.7061 35.2109V26.7881L79 22.5762L86.2939 26.7881Z" fill="#6F9444" stroke="#0F3051"/>
<path d="M72.2939 26.7881V35.2109L65 39.4229L57.7061 35.2109V26.7881L65 22.5762L72.2939 26.7881Z" stroke="#0F3051"/>
<path d="M71.5 1.5V9.5L73.5 10V1.5C73.5 1.5 73.0523 0.5 72.5 0.5C71.9477 0.5 71.5 1.5 71.5 1.5Z" fill="#6F9444"/>
<path d="M86 1.5V9.5L88 10.5V1.5C88 1.5 87.5523 0.5 87 0.5C86.4477 0.5 86 1.5 86 1.5Z" fill="#6F9444"/>
<path d="M99 33L86.5 31.5V34L98.5 35.5C101.549 35.0194 101.639 34.511 99 33Z" fill="#6F9444"/>
<path d="M76.5 38L74.5 42M83 37.5L84.5 42M92 12.5L94 10M71.5 9.5V1.5C71.5 1.5 71.9477 0.5 72.5 0.5C73.0523 0.5 73.5 1.5 73.5 1.5V10L71.5 9.5ZM86 9.5V1.5C86 1.5 86.4477 0.5 87 0.5C87.5523 0.5 88 1.5 88 1.5V10.5L86 9.5ZM86.5 31.5L99 33C101.639 34.511 101.549 35.0194 98.5 35.5L86.5 34V31.5Z" stroke="#0F3051" stroke-linecap="round"/>
<circle cx="95.5" cy="17.5" r="2" fill="#6F9444" stroke="#0F3051"/>
<path d="M58 35.5C55.5 38.5 59 40.5 60 36.5L58 35.5Z" fill="#6F9444"/>
<path d="M50 17.4998C52.0909 17.5258 52.5997 18.4425 52.5 21.4998M60 36.5C62.1749 32.3462 65.2554 31.1844 71.5 32M60 36.5C59 40.5 55.5 38.5 58 35.5L60 36.5ZM65 21C68.8193 20.9999 70.3574 20.3522 71.5 17.4998C71.3453 13.9252 72.0736 12.6799 75 12M90.5 23.5C87.3296 21.8461 86.596 20.6824 88 18M81.5 24.5C77.6049 26.0458 76.3 27.0931 79 30M75 36.5C77.8689 37.4119 79.2831 37.2979 81 34.5" stroke="#0F3051" stroke-linecap="round"/>
<path d="M58.5 24.9999C56.5 23.5 62 20 62.5 22.9999M58.5 10.5C57.1109 11.9298 57.963 13.1332 64.5 16.5M80 21C82.4153 21.0754 83.3809 21.6391 84.5 23.5C86.0368 24.8935 87.2197 24.4454 89.5 22.9999" stroke="#0F3051" stroke-linecap="round"/>
</svg>
