<svg xmlns="http://www.w3.org/2000/svg" xmlns:xlink="http://www.w3.org/1999/xlink" width="76" height="76" viewBox="0 0 76 76">
  <defs>
    <clipPath id="clip-path">
      <rect id="Rechteck_116" data-name="Rechteck 116" width="57.374" height="57.375" fill="#009057" stroke="#fff" stroke-width="0.3"/>
    </clipPath>
  </defs>
  <g id="Gruppe_440" data-name="Gruppe 440" transform="translate(-433 -3710)">
    <g id="Gruppe_279" data-name="Gruppe 279" transform="translate(442 3719)">
      <g id="Gruppe_278" data-name="Gruppe 278" clip-path="url(#clip-path)">
        <path id="Pfad_380" data-name="Pfad 380" d="M66.967,61.723H55.313V53.655a7.884,7.884,0,0,1,2.056-5.116L66.6,39.311h1.268A3.589,3.589,0,0,1,71.45,42.9v1.267L64.911,50.7l-1.267-1.267,6.012-6.012V42.9A1.8,1.8,0,0,0,67.863,41.1h-.525l-8.7,8.7a6.063,6.063,0,0,0-1.53,3.849V59.93h8.068v-.9a6.447,6.447,0,0,1,2.056-4.22l6.276-6.276a4.712,4.712,0,0,0,1.53-2.961V31.243a1.793,1.793,0,1,0-3.586,0v7.172H69.655V31.243a3.586,3.586,0,0,1,7.172,0V45.587a6.447,6.447,0,0,1-2.056,4.22L68.5,56.082a4.712,4.712,0,0,0-1.53,2.961v2.679Z" transform="translate(-19.453 -9.727)" fill="#009057" stroke="#fff" stroke-width="0.3"/>
        <path id="Pfad_381" data-name="Pfad 381" d="M67.787,84.609H65.994V79.23H54.34v5.379H52.547V79.23a1.8,1.8,0,0,1,1.793-1.793H65.995a1.8,1.8,0,0,1,1.793,1.793v5.379Z" transform="translate(-18.481 -27.234)" fill="#009057" stroke="#fff" stroke-width="0.3"/>
        <path id="Pfad_382" data-name="Pfad 382" d="M21.482,61.723H9.9a.034.034,0,0,1-.034-.034V59.034a4.724,4.724,0,0,0-1.53-2.952L2.056,49.806A6.447,6.447,0,0,1,0,45.586V31.431a3.714,3.714,0,0,1,3.256-3.76,3.589,3.589,0,0,1,3.915,3.571v7.138a.033.033,0,0,1-.034.034H5.413a.034.034,0,0,1-.034-.034V31.339a1.86,1.86,0,0,0-1.463-1.86,1.8,1.8,0,0,0-2.124,1.763V45.587a4.724,4.724,0,0,0,1.53,2.952L9.6,54.815a6.447,6.447,0,0,1,2.056,4.22v.9h8.034a.033.033,0,0,0,.034-.034V53.655a6.14,6.14,0,0,0-1.53-3.849L9.5,41.113a.032.032,0,0,0-.023-.009H9A1.827,1.827,0,0,0,7.172,42.93v.479a.031.031,0,0,0,.01.022l5.979,5.979a.033.033,0,0,1,0,.048L11.94,50.678a.034.034,0,0,1-.048,0S5.379,44.159,5.379,44.15V42.93A3.62,3.62,0,0,1,9,39.311h1.22a.036.036,0,0,1,.024.01l9.217,9.218a7.882,7.882,0,0,1,2.056,5.116v8.034a.033.033,0,0,1-.034.034" transform="translate(0 -9.727)" fill="#009057" stroke="#fff" stroke-width="0.3"/>
        <path id="Pfad_383" data-name="Pfad 383" d="M27.685,84.609H25.892V79.23H14.238v5.379H12.445V79.23a1.8,1.8,0,0,1,1.793-1.793H25.893a1.8,1.8,0,0,1,1.793,1.793v5.379Z" transform="translate(-4.377 -27.234)" fill="#009057" stroke="#fff" stroke-width="0.3"/>
        <path id="Pfad_384" data-name="Pfad 384" d="M53.273,19.723H51.48a17.93,17.93,0,1,0-35.859,0H13.828a19.723,19.723,0,1,1,39.445,0" transform="translate(-4.863)" fill="#009057" stroke="#fff" stroke-width="0.3"/>
        <path id="Pfad_385" data-name="Pfad 385" d="M41.062,23.473a5.878,5.878,0,1,1,5.878-5.878,5.885,5.885,0,0,1-5.878,5.878m0-10.135a4.257,4.257,0,1,0,4.257,4.257,4.262,4.262,0,0,0-4.257-4.257" transform="translate(-12.374 -4.121)" fill="#009057" stroke="#fff" stroke-width="0.3"/>
        <path id="Pfad_386" data-name="Pfad 386" d="M49.59,42.718H47.969a10.05,10.05,0,0,0-20.1,0H26.248a11.671,11.671,0,0,1,23.342,0" transform="translate(-9.231 -10.919)" fill="#009057" stroke="#fff" stroke-width="0.3"/>
      </g>
    </g>
    <rect id="Rechteck_167" data-name="Rechteck 167" width="76" height="76" transform="translate(433 3710)" fill="none"/>
  </g>
</svg>
